<?xml version="1.0" encoding="utf-8"?>
<svg width="1600px" height="790px" viewBox="0 0 1600 790" version="1.1" xmlns:xlink="http://www.w3.org/1999/xlink" xmlns="http://www.w3.org/2000/svg">
  <defs>
    <path d="M0 0L1600 0L1600 789L0 789L0 0Z" id="path_1" />
    <path d="M7.53009 0L57.5928 27.0364L50.0651 49.2808L0 22.2406" id="path_2" />
    <path d="M7.57705 0L96.1671 42.2165L88.5861 62.3322L0 20.1138" id="path_3" />
    <path d="M0.100988 0.108667L69.0916 0L68.9906 65.0152L0 65.1239L0.100988 0.108667Z" transform="matrix(1 -2.6213076E-10 2.6213076E-10 1 -0.00048828125 6.1035156E-05)" id="path_4" />
    <path d="M0.127046 0.141126L62.118 0L61.991 56.9021L0 57.0433L0.127046 0.141126Z" transform="matrix(1 -2.6213076E-10 2.6213076E-10 1 0 -6.1035156E-05)" id="path_5" />
    <clipPath id="mask_1">
      <use xlink:href="#path_1" />
    </clipPath>
    <clipPath id="mask_2">
      <use xlink:href="#path_2" />
    </clipPath>
    <clipPath id="mask_3">
      <use xlink:href="#path_3" />
    </clipPath>
    <clipPath id="mask_4">
      <use xlink:href="#path_4" />
    </clipPath>
    <clipPath id="mask_5">
      <use xlink:href="#path_5" />
    </clipPath>
  </defs>
  <g id="HERO">
    <g id="BG">
      <path d="M0 0L1600 0L1600 789L0 789L0 0Z" id="Rectangle" fill="#F5F5F8" fill-rule="evenodd" stroke="none" />
      <g clip-path="url(#mask_1)">
        <path d="M1.48905 562.178C8.36405 567.795 66.3875 640.662 166.985 601.42C267.583 562.178 327.727 446.474 377.325 398.865C426.923 351.256 473.415 317.404 464.981 218.986C456.548 120.568 400.005 133.153 297.243 76.8509C194.48 20.5491 144.35 -16.5143 78.739 7.37047C13.1277 31.2552 19.4812 155.67 19.4812 155.67C19.4812 155.67 -5.38595 556.56 1.48905 562.178Z" transform="matrix(-1 0 0 1 412.97705 702)" id="Path-2-Copy" fill="#E7E8EA" fill-rule="evenodd" stroke="none" />
      </g>
    </g>
  </g>
  <path d="M23.5 99C36.4787 99 47 76.8381 47 49.5C47 22.1619 36.4787 0 23.5 0C10.5213 0 0 22.1619 0 49.5C0 76.8381 10.5213 99 23.5 99Z" transform="matrix(0.7313537 0.6819984 -0.6819984 0.7313537 1127.0723 337.27103)" id="Oval" fill="#CFE7FF" fill-rule="evenodd" stroke="none" />
  <g id="download" transform="translate(561 191.10934)">
    <g id="Group" transform="translate(0 7.6293945E-06)">
      <g id="Group">
        <path d="M1179.61 227.131L1182.76 107.619L1182.76 49.6404C1179.65 47.3307 1172.36 42.0774 1167.47 39.9347C1117.67 18.1427 1055.57 24.0078 1002.83 40.712C950.079 57.4147 808.304 10.1867 787.743 7.2076C721.331 -2.41681 653.171 -1.14893 585.962 3.74234C392.101 17.8561 198.973 58.0102 28.46 133.497C12.633 140.504 2.38818 145.339 0 146.476L0 227.131L1179.61 227.131Z" transform="translate(0 368.7595)" id="Path" fill="#83AB00" stroke="none" />
        <path d="M1182.76 159.802L1182.76 91.9166C1113.95 109.982 1025.72 131.339 952.309 142.67C878.339 154.087 800.96 156.344 730.319 131.624C637.711 99.218 562.724 22.7385 466.319 4.46201C416.67 -4.94961 365.46 2.07253 315.771 11.2669C203.769 31.992 105.612 61.5952 0 103.648L0 159.802C0 159.802 1182.76 159.802 1182.76 159.802Z" transform="translate(0 436.08896)" id="Path" fill="#D9E021" stroke="none" />
        <path d="M3.00678 332.791C2.84116 332.791 2.67406 332.782 2.50548 332.762C1.01047 332.604 0.0270994 331.549 0.000481894 330.073C-0.0276144 328.452 1.17609 326.395 2.77018 326.169C3.57018 326.061 4.6408 326.408 5.11548 327.731C5.57981 326.806 5.85042 325.825 5.93766 325.482C35.0779 210.607 129.882 46.1005 162.693 0L165.266 1.82794C132.553 47.7881 38.0354 211.783 8.99868 326.255C7.94728 330.391 5.73064 332.791 3.00678 332.791ZM3.54524 329.172C3.45356 329.247 3.34561 329.421 3.26724 329.599C3.95338 329.452 4.50495 328.818 4.9264 328.083L2.16113 328.827C2.23211 328.953 2.44062 329.179 2.78369 329.266C3.15337 329.364 3.45504 329.244 3.54524 329.172Z" transform="translate(89.873535 260.93967)" id="Shape" fill="#D9E021" stroke="none" />
        <path d="M3.10981 378.773L0 378.236C21.6223 252.931 21.6947 125.853 0.21294 0.53198L3.32423 0C24.8667 125.676 24.7942 253.115 3.10981 378.773Z" transform="translate(139.00537 215.45981)" id="Path" fill="#D9E021" stroke="none" />
        <path d="M138.525 223.894C104.525 163.113 69.2262 101.933 33.6061 42.0575C25.1905 27.9112 14.1975 15.3476 0 3.64998L3.01074 0C17.6371 12.0494 28.9761 25.0149 37.6741 39.6384C71.3645 96.2677 104.768 154.06 137.054 211.583L137.686 211.279L142.725 221.713L138.525 223.894Z" transform="translate(852.7212 370.8586)" id="Path" fill="#D9E021" stroke="none" />
        <path d="M91.1797 142.897C90.501 142.897 89.8119 142.693 89.1834 142.283C87.8806 141.436 86.7745 139.611 87.2877 137.9C87.6026 136.852 88.4485 136.11 89.5294 135.885C69.7512 91.7415 39.0982 52.7118 9.45217 14.9679C6.29504 10.9484 3.13939 6.93052 0 2.91111L3.73236 0C6.86879 4.01645 10.0215 8.02995 13.1757 12.0464C43.0745 50.114 73.9922 89.4776 94.0041 134.295C95.9398 138.631 94.7258 140.923 93.3668 142.083C92.7324 142.622 91.9635 142.897 91.1797 142.897ZM90.2408 137.897L90.229 140.543C90.7155 140.583 91.3188 140.254 91.6723 139.609C92.002 139.011 91.8852 138.466 91.8068 138.344C91.6309 138.163 90.8471 138.007 90.2941 138.479C90.2926 138.482 90.2911 138.483 90.2911 138.483C90.2793 138.486 90.3148 138.31 90.2408 137.897Z" transform="translate(935.86816 439.6259)" id="Shape" fill="#D9E021" stroke="none" />
        <path d="M115.983 109.315C91.2344 73.926 53.8679 45.2316 20.9021 19.9153C13.6222 14.325 6.74754 9.04514 0 3.70761L2.93828 0C9.66067 5.31537 16.5236 10.5849 23.7887 16.1648C57.0265 41.6895 94.6977 70.6204 119.865 106.604L115.983 109.315Z" transform="translate(1006.95166 467.88144)" id="Path" fill="#D9E021" stroke="none" />
        <g id="Group" transform="translate(706.14014 437.52164)" opacity="0.27">
          <path d="M11.8758 11.8676L0 0L0 154.592L11.8758 154.592L11.8758 11.8676Z" id="Path" fill="none" fill-rule="evenodd" stroke="none" />
          <path d="M14.1561 25.7434L14.1561 14.1462L0 0L0 25.7434L14.1561 25.7434Z" transform="translate(128.93945 128.84857)" id="Path" fill="none" fill-rule="evenodd" stroke="none" />
          <path d="M14.1561 78.1937L14.1561 14.1448L0 0L0 78.1937L14.1561 78.1937Z" transform="translate(76.45117 76.398254)" id="Path" fill="none" fill-rule="evenodd" stroke="none" />
          <path d="M14.1576 51.97L14.1576 14.1477L0 0L0 51.97L14.1576 51.97Z" transform="translate(102.694824 102.62195)" id="Path" fill="none" fill-rule="evenodd" stroke="none" />
          <path d="M14.1561 130.647L14.1561 14.1477L0 0L0 130.647L14.1561 130.647Z" transform="translate(23.96289 23.945007)" id="Path" fill="none" fill-rule="evenodd" stroke="none" />
          <path d="M14.1576 104.42L14.1576 14.1477L0 0L0 104.42L14.1576 104.42Z" transform="translate(50.206543 50.17163)" id="Path" fill="none" fill-rule="evenodd" stroke="none" />
          <path d="M11.6038 11.5972L0 0L0 11.5972L11.6038 11.5972Z" transform="translate(143.0957 142.99481)" id="Path" fill="#D9E021" stroke="none" />
          <path d="M12.0873 37.8223L12.0873 12.0789L0 0L0 37.8223L12.0873 37.8223Z" transform="translate(116.85205 116.76965)" id="Path" fill="#D9E021" stroke="none" />
          <path d="M12.0873 64.0489L12.0873 12.0789L0 0L0 64.0489L12.0873 64.0489Z" transform="translate(90.60742 90.54303)" id="Path" fill="#D9E021" stroke="none" />
          <path d="M12.0873 90.2726L12.0873 12.0789L0 0L0 90.2726L12.0873 90.2726Z" transform="translate(64.36426 64.319336)" id="Path" fill="#D9E021" stroke="none" />
          <path d="M12.0873 116.499L12.0873 12.0789L0 0L0 116.499L12.0873 116.499Z" transform="translate(38.11914 38.092712)" id="Path" fill="#D9E021" stroke="none" />
          <path d="M12.0873 142.724L12.0873 12.0774L0 0L0 142.724L12.0873 142.724Z" transform="translate(11.875977 11.867615)" id="Path" fill="#D9E021" stroke="none" />
        </g>
        <path d="M110.637 228.544C110.414 227.616 109.466 227.053 108.54 227.277C107.612 227.5 107.048 228.448 107.275 229.376C107.498 230.304 108.446 230.867 109.371 230.642L109.371 230.642C110.3 230.416 110.872 229.48 110.637 228.544L110.637 228.544ZM3.21487 87.1077C3.72652 86.2713 3.46034 85.1793 2.62337 84.671L2.62337 84.671C1.87364 84.1818 0.868094 84.3932 0.380107 85.1409C0.337223 85.1985 0.297297 85.2709 0.272158 85.3419C-0.236532 86.1339 -0.0117621 87.1801 0.776412 87.6988C1.61043 88.1894 2.7047 87.9397 3.21487 87.1077L3.21487 87.1077L3.21487 87.1077ZM53.0101 162.235C53.7435 161.598 53.8884 160.515 53.3487 159.708C52.7542 158.918 51.6171 158.763 50.82 159.37C50.0289 159.964 49.8736 161.1 50.4814 161.897C51.1261 162.622 52.2012 162.775 53.0101 162.235ZM273.671 92.726C275.188 91.6975 275.605 89.6435 274.606 88.1022C273.695 86.5846 271.729 86.0896 270.217 86.9895C270.162 87.0235 270.113 87.0471 270.069 87.0856C268.552 88.1141 268.135 90.1681 269.134 91.7094C270.1 93.2388 272.136 93.6999 273.671 92.726L273.671 92.726ZM206.312 136.523C207.84 135.482 208.224 133.409 207.179 131.89C206.16 130.396 204.131 129.984 202.616 130.971C201.079 131.943 200.625 133.969 201.6 135.505L201.6 135.505C202.679 137.022 204.729 137.46 206.312 136.523ZM138.8 180.327C140.327 179.347 140.771 177.333 139.792 175.807C139.771 175.777 139.749 175.746 139.729 175.715C138.818 174.197 136.852 173.702 135.34 174.602C135.285 174.636 135.236 174.66 135.192 174.698C133.676 175.761 133.234 177.81 134.174 179.409C135.205 180.911 137.262 181.326 138.8 180.327ZM302.997 261.987C302.608 260.207 300.853 259.079 299.065 259.477C297.285 259.862 296.157 261.621 296.553 263.406C296.936 265.15 298.639 266.271 300.395 265.937C302.183 265.541 303.337 263.79 302.997 261.987L302.997 261.987ZM223.904 276.683C223.515 274.903 221.759 273.775 219.972 274.173C218.191 274.558 217.063 276.317 217.459 278.102C217.842 279.846 219.546 280.967 221.301 280.633C223.083 280.246 224.244 278.485 223.904 276.683L223.904 276.683ZM136.904 5.20939C137.91 3.67404 137.509 1.61557 135.979 0.585595C134.509 -0.445855 132.487 -0.0764245 131.455 1.39243C131.448 1.4013 131.442 1.41016 131.434 1.41903C130.347 2.80514 130.596 4.80449 131.981 5.8921C132.048 5.94234 132.113 5.99111 132.191 6.05021C133.747 7.02994 135.786 6.67381 136.904 5.20939ZM91.3129 71.4897C92.3007 69.941 91.9354 67.8959 90.4789 66.7846C88.9425 65.7798 86.8781 66.1906 85.8519 67.7097C84.8227 69.214 85.2071 71.2739 86.7125 72.298C86.7302 72.3113 86.7509 72.3276 86.7613 72.3335C88.2312 73.3649 90.2526 72.9955 91.2774 71.5355C91.2996 71.5074 91.3055 71.4986 91.3129 71.4897ZM45.8089 137.674C46.8396 136.248 46.5335 134.259 45.1065 133.233C45.068 133.204 45.0222 133.17 44.9763 133.151C43.5139 132.064 41.4451 132.384 40.3597 133.845C40.3242 133.894 40.2946 133.932 40.2606 133.977C39.227 135.506 39.6336 137.581 41.1508 138.606C42.6813 139.639 44.7575 139.233 45.7837 137.717C45.7956 137.693 45.8015 137.683 45.8089 137.674ZM315.351 339.841C315.2 338.225 313.779 337.025 312.157 337.143C310.536 337.277 309.326 338.706 309.456 340.335C309.585 341.963 311.021 343.163 312.65 343.033L312.65 343.033C314.268 342.878 315.47 341.462 315.351 339.841ZM174.852 74.3594C175.872 73.0413 175.692 71.1676 174.434 70.0711C173.227 69.0455 171.42 69.1904 170.392 70.3947C170.363 70.4331 170.342 70.4612 170.314 70.4996C169.237 71.7291 169.367 73.5969 170.605 74.6594C170.623 74.6727 170.632 74.6801 170.654 74.6949C171.914 75.6909 173.747 75.5534 174.852 74.3594L174.852 74.3594ZM128.764 129.199C129.784 127.943 129.592 126.102 128.35 125.079C127.143 124.054 125.336 124.199 124.308 125.403C124.279 125.441 124.258 125.469 124.23 125.508C123.153 126.737 123.283 128.605 124.511 129.678C124.529 129.691 124.537 129.699 124.56 129.713C125.865 130.693 127.729 130.474 128.764 129.199L128.764 129.199ZM82.5999 184.293C83.6764 183.064 83.5463 181.196 82.3189 180.123C82.3012 180.11 82.2923 180.102 82.2701 180.088C81.1286 179.05 79.3585 179.148 78.3219 180.289C78.2568 180.357 78.1977 180.433 78.1415 180.509C77.0649 181.738 77.1951 183.606 78.4224 184.679C78.4402 184.692 78.4491 184.7 78.4712 184.714C79.7385 185.684 81.5559 185.505 82.5999 184.293L82.5999 184.293ZM241.472 216.855C242.895 216.051 243.426 214.26 242.651 212.818C241.903 211.377 240.142 210.814 238.701 211.557C237.264 212.336 236.667 214.103 237.35 215.585C238.145 217.059 239.973 217.616 241.472 216.855L241.472 216.855ZM177.745 249.976C179.163 249.3 179.772 247.603 179.095 246.186C179.069 246.139 179.04 246.084 179.021 246.028C178.272 244.587 176.511 244.024 175.071 244.767C173.634 245.546 173.036 247.314 173.719 248.796C174.506 250.22 176.298 250.749 177.745 249.976L177.745 249.976ZM33.7319 37.0292C34.2288 35.5574 33.4451 33.9703 31.9781 33.4649C31.916 33.4472 31.8628 33.4206 31.8096 33.4132C30.2731 32.8827 28.5859 33.6999 28.0506 35.2411C28.0387 35.2751 28.0254 35.3121 28.021 35.3372C27.5981 36.908 28.4824 38.5394 30.0395 39.0433C31.57 39.5398 33.2099 38.6901 33.7068 37.1592C33.7127 37.1193 33.7142 37.0735 33.7319 37.0292L33.7319 37.0292ZM12.1909 105.519C12.6744 103.946 11.8242 102.266 10.2611 101.733C8.66851 101.276 6.99604 102.194 6.54206 103.788C6.1014 105.303 6.92358 106.902 8.40972 107.438C9.92249 107.981 11.6038 107.191 12.1465 105.678C12.1628 105.634 12.182 105.572 12.1909 105.519L12.1909 105.519ZM377.065 295.115C378.696 294.153 379.298 292.093 378.421 290.405C377.531 288.74 375.47 288.096 373.8 288.969C372.148 289.915 371.544 292.003 372.444 293.679C373.334 295.344 375.396 295.988 377.065 295.115L377.065 295.115ZM303.913 334.109C305.588 333.227 306.224 331.16 305.35 329.491C304.476 327.823 302.398 327.182 300.729 328.055C299.053 328.937 298.418 331.004 299.292 332.673C300.176 334.349 302.245 334.982 303.913 334.109L303.913 334.109ZM108.984 71.8473C109.487 69.9942 108.459 68.0747 106.631 67.4762C104.786 66.9812 102.884 68.0821 102.398 69.9336C101.92 71.7158 102.935 73.5511 104.687 74.1112C106.494 74.618 108.387 73.628 108.984 71.8473L108.984 71.8473ZM84.9099 151.095C85.4186 149.29 84.4293 147.4 82.646 146.805C80.8345 146.245 78.9121 147.257 78.3531 149.067C77.7927 150.877 78.8056 152.798 80.6171 153.357C82.4227 153.883 84.3273 152.874 84.9099 151.095L84.9099 151.095ZM245.036 190.625C246.156 189.118 245.934 187 244.542 185.746C243.046 184.606 240.918 184.867 239.741 186.329C238.53 187.739 238.685 189.866 240.107 191.082C240.125 191.095 240.146 191.111 240.165 191.125C241.635 192.338 243.812 192.115 245.036 190.625C245.029 190.634 245.036 190.625 245.036 190.625L245.036 190.625ZM192.381 254.702C193.59 253.216 193.369 251.039 191.896 249.829C191.896 249.829 191.896 249.829 191.887 249.821C190.456 248.655 188.338 248.877 187.183 250.315L187.183 250.315C185.987 251.764 186.186 253.91 187.631 255.1C189.045 256.304 191.168 256.112 192.381 254.702L192.381 254.702ZM296.569 214.646C297.776 213.218 297.592 211.071 296.155 209.858C294.718 208.64 292.578 208.835 291.361 210.27C290.19 211.668 290.323 213.746 291.676 214.971C293.133 216.227 295.311 216.08 296.569 214.646L296.569 214.646ZM241.567 276.203C242.817 274.762 242.67 272.584 241.234 271.327C239.827 270.133 237.715 270.245 236.436 271.57C235.2 273.036 235.311 275.201 236.678 276.53C238.139 277.747 240.285 277.588 241.567 276.203L241.567 276.203ZM131.161 165.103C131.745 163.298 130.775 161.347 128.978 160.725C127.211 160.125 125.287 161.059 124.687 162.823C124.011 164.533 124.845 166.469 126.554 167.146C126.6 167.166 126.643 167.184 126.698 167.193C128.466 167.87 130.449 166.979 131.115 165.202C131.138 165.176 131.149 165.142 131.161 165.103L131.161 165.103Z" transform="translate(311.01514 131.6651)" id="texture-2_12_gS5PXifxC_4sDEWaX2O6s" fill="#A1C3FC" stroke="none" />
        <path d="M33.2276 228.544C33.0043 227.616 32.0564 227.053 31.1307 227.277C30.202 227.5 29.6386 228.448 29.8649 229.376C30.0882 230.304 31.0361 230.867 31.9618 230.642L31.9618 230.642C32.8875 230.417 33.4597 229.48 33.2276 228.544L33.2276 228.544ZM196.259 92.726C197.777 91.6975 198.194 89.6435 197.194 88.1022C196.283 86.5846 194.318 86.0896 192.805 86.9895C192.75 87.0235 192.701 87.0471 192.657 87.0856C191.14 88.1141 190.723 90.1681 191.723 91.7094C192.688 93.2403 194.726 93.7013 196.259 92.726L196.259 92.726ZM128.901 136.524C130.428 135.484 130.813 133.411 129.767 131.892C128.749 130.398 126.72 129.985 125.204 130.972C123.668 131.945 123.214 133.971 124.188 135.506L124.188 135.506C125.268 137.022 127.317 137.461 128.901 136.524ZM61.3887 180.327C62.9148 179.347 63.3599 177.333 62.381 175.807C62.3603 175.777 62.3381 175.746 62.3174 175.715C61.4065 174.197 59.4412 173.702 57.9285 174.602C57.8738 174.636 57.825 174.66 57.7806 174.698C56.2649 175.761 55.8227 177.81 56.7632 179.409C57.7939 180.912 59.8508 181.326 61.3887 180.327ZM225.586 261.99C225.197 260.21 223.442 259.082 221.654 259.48C219.874 259.865 218.745 261.624 219.142 263.409C219.525 265.153 221.228 266.274 222.984 265.94C224.771 265.543 225.926 263.792 225.586 261.99L225.586 261.99ZM146.492 276.685C146.103 274.904 144.348 273.777 142.56 274.174C140.78 274.56 139.653 276.318 140.048 278.103C140.431 279.847 142.134 280.969 143.889 280.635C145.671 280.246 146.832 278.486 146.492 276.685L146.492 276.685ZM59.4946 5.20939C60.5001 3.67404 60.0994 1.61557 58.5689 0.585595C57.099 -0.445855 55.0775 -0.0764245 54.0454 1.39243C54.038 1.4013 54.0321 1.41016 54.0247 1.41903C52.9378 2.80514 53.1862 4.80449 54.5718 5.8921C54.6384 5.94234 54.7034 5.99111 54.7818 6.05021C56.336 7.02994 58.3752 6.67529 59.4946 5.20939ZM13.9032 71.4912C14.891 69.9425 14.5258 67.8974 13.0692 66.7861C11.5328 65.7813 9.46845 66.1921 8.4422 67.7112C7.41299 69.2155 7.79746 71.2754 9.30283 72.2995C9.32057 72.3128 9.34128 72.329 9.35163 72.335C10.8215 73.3664 12.843 72.997 13.8677 71.537C13.8884 71.5089 13.8958 71.5 13.9032 71.4912ZM237.941 339.843C237.79 338.226 236.369 337.026 234.747 337.144C233.126 337.279 231.917 338.708 232.046 340.336C232.174 341.965 233.61 343.165 235.24 343.035L235.24 343.035C236.857 342.879 238.06 341.462 237.941 339.843ZM97.4405 74.3609C98.4608 73.0428 98.2804 71.169 97.022 70.0725C95.8154 69.047 94.0083 69.1918 92.9806 70.3962C92.951 70.4346 92.9303 70.4627 92.9022 70.5011C91.8257 71.7306 91.9558 73.5984 93.1935 74.6609C93.2113 74.6742 93.2202 74.6816 93.2423 74.6963C94.5022 75.6923 96.3359 75.5534 97.4405 74.3609L97.4405 74.3609ZM51.3511 129.201C52.3714 127.945 52.1792 126.103 50.9371 125.081C49.7304 124.055 47.9234 124.2 46.8956 125.404C46.8661 125.443 46.8454 125.471 46.8173 125.509C45.7407 126.739 45.8709 128.607 47.0982 129.679C47.116 129.693 47.1248 129.7 47.147 129.715C48.4542 130.696 50.3175 130.474 51.3511 129.201L51.3511 129.201ZM5.18878 184.295C6.26531 183.065 6.13518 181.197 4.90781 180.124C4.89007 180.111 4.8812 180.104 4.85902 180.089C3.71742 179.052 1.94736 179.149 0.910753 180.29C0.845688 180.359 0.786538 180.435 0.730346 180.51C-0.346184 181.74 -0.216054 183.607 1.01131 184.68C1.02905 184.694 1.03793 184.701 1.06011 184.716C2.3274 185.684 4.14478 185.505 5.18878 184.295L5.18878 184.295ZM164.06 216.856C165.482 216.052 166.013 214.261 165.238 212.819C164.49 211.378 162.729 210.815 161.289 211.559C159.851 212.337 159.254 214.105 159.937 215.587C160.734 217.06 162.562 217.617 164.06 216.856L164.06 216.856ZM100.333 249.978C101.751 249.301 102.36 247.605 101.683 246.188C101.658 246.14 101.628 246.086 101.609 246.029C100.861 244.589 99.0996 244.026 97.6593 244.769C96.222 245.548 95.6246 247.315 96.3077 248.797C97.0959 250.22 98.8867 250.751 100.333 249.978L100.333 249.978ZM299.654 295.116C301.285 294.154 301.886 292.094 301.01 290.407C300.119 288.742 298.058 288.097 296.388 288.971C294.737 289.916 294.132 292.004 295.032 293.68C295.923 295.344 297.984 295.988 299.654 295.116L299.654 295.116ZM226.502 334.109C228.177 333.227 228.813 331.16 227.939 329.491C227.065 327.823 224.987 327.182 223.318 328.055C221.642 328.937 221.006 331.004 221.88 332.673C222.765 334.348 224.833 334.984 226.502 334.109L226.502 334.109ZM31.574 71.8473C32.0767 69.9942 31.049 68.0747 29.2213 67.4762C27.3758 66.9811 25.4741 68.0821 24.9876 69.9336C24.51 71.7158 25.5244 73.5511 27.2767 74.1112C29.0823 74.6195 30.9751 73.6294 31.574 71.8473L31.574 71.8473ZM7.49879 151.096C8.00748 149.292 7.0182 147.402 5.23483 146.806C3.42336 146.246 1.50098 147.258 0.942016 149.069C0.38157 150.879 1.39451 152.8 3.20598 153.358C5.01154 153.883 6.91617 152.874 7.49879 151.096L7.49879 151.096ZM167.625 190.627C168.744 189.119 168.523 187.002 167.131 185.747C165.635 184.608 163.507 184.868 162.33 186.332C161.118 187.742 161.274 189.869 162.696 191.085C162.714 191.098 162.735 191.114 162.754 191.128C164.225 192.339 166.401 192.115 167.625 190.627C167.619 190.636 167.625 190.627 167.625 190.627L167.625 190.627ZM114.97 254.704C116.179 253.217 115.957 251.039 114.485 249.83C114.485 249.83 114.485 249.83 114.476 249.823C113.044 248.657 110.927 248.878 109.772 250.316L109.772 250.316C108.577 251.766 108.775 253.912 110.22 255.101C111.634 256.306 113.759 256.113 114.97 254.704L114.97 254.704ZM219.158 214.647C220.365 213.22 220.181 211.072 218.744 209.859C217.307 208.642 215.167 208.837 213.95 210.272C212.779 211.669 212.912 213.747 214.265 214.972C215.72 216.228 217.898 216.082 219.158 214.647L219.158 214.647ZM164.156 276.205C165.406 274.764 165.259 272.586 163.823 271.328C162.416 270.134 160.304 270.246 159.025 271.572C157.789 273.038 157.899 275.203 159.267 276.531C160.73 277.747 162.874 277.589 164.156 276.205L164.156 276.205ZM53.7495 165.103C54.3336 163.298 53.3636 161.346 51.5669 160.725C49.7998 160.125 47.8759 161.059 47.2755 162.823C46.5998 164.533 47.4338 166.469 49.1432 167.146C49.189 167.166 49.2319 167.184 49.2866 167.193C51.0552 167.87 53.0382 166.979 53.7037 165.202C53.7273 165.177 53.7392 165.142 53.7495 165.103L53.7495 165.103Z" transform="translate(1.9121094 0)" id="texture-2_11_gS5PXifxC_4sDEWaX2O6s" fill="#A1C3FC" stroke="none" />
        <g id="Group" transform="translate(248.51465 331.8674)" opacity="0.26">
          <path d="M23.9765 221.268L23.9765 23.9613L0 0L0 221.268L23.9765 221.268Z" transform="translate(40.583984 40.554626)" id="Path" fill="none" fill-rule="evenodd" stroke="none" />
          <path d="M23.9779 176.851L23.9779 23.9598L0 0L0 176.851L23.9779 176.851Z" transform="translate(85.03076 84.971985)" id="Path" fill="none" fill-rule="evenodd" stroke="none" />
          <path d="M23.9765 88.0176L23.9765 23.9613L0 0L0 88.0176L23.9765 88.0176Z" transform="translate(173.92725 173.8053)" id="Path" fill="none" fill-rule="evenodd" stroke="none" />
          <path d="M20.1125 20.0985L0 0L0 261.823L20.1125 261.823L20.1125 20.0985Z" id="Path" fill="none" fill-rule="evenodd" stroke="none" />
          <path d="M23.9765 43.5987L23.9765 23.9583L0 0L0 43.5987L23.9765 43.5987Z" transform="translate(218.37549 218.22418)" id="Path" fill="none" fill-rule="evenodd" stroke="none" />
          <path d="M23.9765 132.434L23.9765 23.9598L0 0L0 132.434L23.9765 132.434Z" transform="translate(129.479 129.3894)" id="Path" fill="none" fill-rule="evenodd" stroke="none" />
          <path d="M19.6541 19.6404L0 0L0 19.6404L19.6541 19.6404Z" transform="translate(242.35205 242.1825)" id="Path" fill="#FFFFFF" stroke="none" />
          <path d="M20.4718 64.0563L20.4718 20.4576L0 0L0 64.0563L20.4718 64.0563Z" transform="translate(197.90381 197.7666)" id="Path" fill="#FFFFFF" stroke="none" />
          <path d="M20.4718 108.474L20.4718 20.4561L0 0L0 108.474L20.4718 108.474Z" transform="translate(153.45557 153.34918)" id="Path" fill="#FFFFFF" stroke="none" />
          <path d="M20.4703 152.891L20.4703 20.4576L0 0L0 152.891L20.4703 152.891Z" transform="translate(109.00879 108.93182)" id="Path" fill="#FFFFFF" stroke="none" />
          <path d="M20.4703 197.307L20.4703 20.4561L0 0L0 197.307L20.4703 197.307Z" transform="translate(64.56055 64.51587)" id="Path" fill="#FFFFFF" stroke="none" />
          <path d="M20.4718 241.724L20.4718 20.4561L0 0L0 241.724L20.4718 241.724Z" transform="translate(20.112305 20.09851)" id="Path" fill="#FFFFFF" stroke="none" />
        </g>
        <g id="Group" transform="translate(442.45117 487.93124)" opacity="0.26">
          <path d="M0 0L88.7694 88.7077L98.3827 79.1025L19.2252 0L0 0Z" transform="translate(32.54004 0)" id="Path" fill="none" fill-rule="evenodd" stroke="none" />
          <path d="M0 0L35.3111 35.2865L44.9244 25.6799L19.2252 0L0 0Z" transform="translate(139.45654 0)" id="Path" fill="none" fill-rule="evenodd" stroke="none" />
          <path d="M0 0L53.13 53.0931L62.7434 43.4879L19.2237 0L0 0Z" transform="translate(103.81836 0)" id="Path" fill="none" fill-rule="evenodd" stroke="none" />
          <path d="M0 0L105.04 104.967L113.104 96.9105L16.1258 0L0 0Z" id="Path" fill="none" fill-rule="evenodd" stroke="none" />
          <path d="M0 0L17.4921 17.48L27.104 7.87331L19.2252 0L0 0Z" transform="translate(175.0957 0)" id="Path" fill="none" fill-rule="evenodd" stroke="none" />
          <path d="M0 0L70.9489 70.9011L80.5623 61.2959L19.2252 0L0 0Z" transform="translate(68.1792 0)" id="Path" fill="none" fill-rule="evenodd" stroke="none" />
          <path d="M7.87878 7.87331L15.759 0L0 0L7.87878 7.87331Z" transform="translate(194.3208 0)" id="Path" fill="#FFFFFF" stroke="none" />
          <path d="M0 0L25.6992 25.6799L33.9063 17.48L16.4141 0L0 0Z" transform="translate(158.68164 0)" id="Path" fill="#FFFFFF" stroke="none" />
          <path d="M0 0L43.5196 43.4879L51.7252 35.2865L16.4141 0L0 0Z" transform="translate(123.04248 0)" id="Path" fill="#FFFFFF" stroke="none" />
          <path d="M0 0L61.3371 61.2959L69.5441 53.0931L16.4141 0L0 0Z" transform="translate(87.4043 0)" id="Path" fill="#FFFFFF" stroke="none" />
          <path d="M0 0L79.1575 79.1025L87.3631 70.9011L16.4141 0L0 0Z" transform="translate(51.765137 0)" id="Path" fill="#FFFFFF" stroke="none" />
          <path d="M0 0L96.9779 96.9105L105.183 88.7077L16.4141 0L0 0Z" transform="translate(16.125488 0)" id="Path" fill="#FFFFFF" stroke="none" />
        </g>
        <g id="Group" transform="translate(73.10986 203.12964)">
          <path d="M21.7879 14.9752L0 0C4.33422 5.8636 11.9365 11.0149 21.7879 14.9752Z" transform="translate(4.0546875 46.00891)" id="Path" fill="#D9E021" stroke="none" />
          <path d="M0.30758 3.00864L40.7662 30.8194C42.6782 31.2716 44.6375 31.6853 46.6398 32.0607L0 0C0.0103512 1.01372 0.115342 2.01709 0.30758 3.00864Z" transform="translate(0 34.829926)" id="Path" fill="#D9E021" stroke="none" />
          <path d="M0 2.22545L56.2694 40.9048C57.825 41.0777 59.397 41.2255 60.9881 41.3511L0.832536 0C0.504254 0.734428 0.227728 1.47625 0 2.22545Z" transform="translate(0.7421875 27.519653)" id="Path" fill="#D9E021" stroke="none" />
          <path d="M0 1.81021L66.6147 47.6004C67.8229 47.627 69.0369 47.6418 70.2598 47.6418C70.421 47.6418 70.5793 47.6388 70.7404 47.6388L1.43734 0C0.924219 0.597 0.442146 1.19843 0 1.81021Z" transform="translate(3.9038086 21.716644)" id="Path" fill="#D9E021" stroke="none" />
          <path d="M0 1.52944L73.8222 52.2744C75.0732 52.2094 76.3139 52.1296 77.5442 52.0351L1.84548 0C1.20222 0.502426 0.587064 1.01224 0 1.52944Z" transform="translate(8.648926 16.86673)" id="Path" fill="#D9E021" stroke="none" />
          <path d="M0 1.30631L78.773 55.4545C79.9161 55.3126 81.0473 55.1575 82.1682 54.9905L2.1708 0C1.42699 0.42854 0.702406 0.86299 0 1.30631Z" transform="translate(14.522461 12.736511)" id="Path" fill="#D9E021" stroke="none" />
          <path d="M0 1.11273L81.868 57.3874C82.9165 57.1775 83.9546 56.9588 84.9793 56.7283L2.45325 0C1.61775 0.36352 0.800004 0.734428 0 1.11273Z" transform="translate(21.321777 9.212128)" id="Path" fill="#D9E021" stroke="none" />
          <path d="M0 0.933921L83.3113 58.2016C84.2754 57.9312 85.2233 57.6504 86.1579 57.3608L2.71203 0C1.79225 0.304411 0.888729 0.614733 0 0.933921Z" transform="translate(28.94043 6.2359924)" id="Path" fill="#D9E021" stroke="none" />
          <path d="M0 0.755116L83.2019 57.9474C84.0817 57.6179 84.9453 57.278 85.7912 56.9307L2.97229 0C1.96674 0.240869 0.975975 0.493559 0 0.755116Z" transform="translate(37.333984 3.793335)" id="Path" fill="#D9E021" stroke="none" />
          <path d="M0 0.568923L81.525 56.6086C82.3176 56.217 83.0924 55.8165 83.8466 55.4072L3.2429 0C2.1501 0.178804 1.06914 0.367953 0 0.568923Z" transform="translate(46.51367 1.8988953)" id="Path" fill="#D9E021" stroke="none" />
          <path d="M0 0.360564L78.18 54.1024C78.878 53.6413 79.5523 53.1729 80.203 52.6956L3.54309 0C2.35269 0.106396 1.17117 0.227569 0 0.360564Z" transform="translate(56.53369 0.6029358)" id="Path" fill="#D9E021" stroke="none" />
          <path d="M0 0.115262L72.9334 50.2485C73.5175 49.7062 74.0721 49.1535 74.597 48.5949L3.90242 0C2.59225 0.0236436 1.29243 0.0620644 0 0.115262Z" transform="translate(67.50781 0)" id="Path" fill="#D9E021" stroke="none" />
          <path d="M0 0L65.3445 44.9183C65.7792 44.2637 66.1696 43.6002 66.5216 42.9308L4.37562 0.212792C2.93088 0.121173 1.47283 0.0502426 0 0Z" transform="translate(79.64844 0.06945801)" id="Path" fill="#D9E021" stroke="none" />
          <path d="M0 0L54.415 37.4056C54.6132 36.5751 54.7492 35.7343 54.8202 34.8861L5.14901 0.741817C3.46028 0.46696 1.74197 0.218703 0 0Z" transform="translate(93.444824 1.161499)" id="Path" fill="#D9E021" stroke="none" />
          <path d="M7.1882 2.1427C4.88875 1.36542 2.48874 0.650198 0 0L37.3458 25.6725C36.9688 24.3484 36.4349 23.0495 35.7473 21.7757L7.1882 2.1427Z" transform="translate(110.32471 4.3740845)" id="Path" fill="#D9E021" stroke="none" />
        </g>
        <g id="Group" transform="translate(158.31934 360.05792)">
          <path d="M0 1.23094L40.849 29.3106C41.9788 29.1422 43.0863 28.9501 44.1673 28.7358L2.36304 0C1.53494 0.391597 0.74529 0.802403 0 1.23094Z" transform="translate(8.526367 5.2872925)" id="Path" fill="none" fill-rule="evenodd" stroke="none" />
          <path d="M0 2.51361C0 2.54168 0.0029575 2.56828 0.0029575 2.59636L23.8182 18.9681C25.5247 19.2872 27.2948 19.5503 29.1136 19.7512L0.380039 0C0.131609 0.821614 0 1.65948 0 2.51361Z" transform="translate(0 15.20282)" id="Path" fill="none" fill-rule="evenodd" stroke="none" />
          <path d="M0 1.04475L42.1414 30.0126C43.1825 29.7776 44.1954 29.5219 45.1802 29.2441L2.63809 0C1.7257 0.33101 0.845845 0.679753 0 1.04475Z" transform="translate(12.140625 3.6736145)" id="Path" fill="none" fill-rule="evenodd" stroke="none" />
          <path d="M1.9135 4.17161L13.0381 11.8188C15.3524 12.7483 17.9091 13.5507 20.6596 14.2009L0 0C0.280962 1.44817 0.933091 2.84462 1.9135 4.17161Z" transform="translate(0.15820312 19.335999)" id="Path" fill="none" fill-rule="evenodd" stroke="none" />
          <path d="M0 2.04074L30.7181 23.1559C32.188 23.2712 33.6844 23.3495 35.2046 23.3835L1.18891 0C0.708321 0.663498 0.312016 1.34473 0 2.04074Z" transform="translate(0.80566406 12.025726)" id="Path" fill="none" fill-rule="evenodd" stroke="none" />
          <path d="M0 1.44226L38.6545 28.0132C39.8848 27.9201 41.0945 27.7974 42.2819 27.6497L2.05694 0C1.322 0.464005 0.635862 0.944265 0 1.44226Z" transform="translate(5.3603516 7.1846924)" id="Path" fill="none" fill-rule="evenodd" stroke="none" />
          <path d="M0 1.69643L35.3894 26.0227C36.7395 26.0183 38.0719 25.9813 39.385 25.9133L1.68873 0C1.06618 0.549713 0.501296 1.1142 0 1.69643Z" transform="translate(2.7280273 9.407196)" id="Path" fill="none" fill-rule="evenodd" stroke="none" />
          <path d="M0 0.678275L42.2908 29.748C43.1647 29.389 44.0017 29.0121 44.8002 28.6161L3.17044 0C2.08947 0.203926 1.03217 0.431495 0 0.678275Z" transform="translate(20.581055 1.2723389)" id="Path" fill="none" fill-rule="evenodd" stroke="none" />
          <path d="M0 0.477304L41.1595 28.7698C41.9433 28.3442 42.6871 27.9009 43.3821 27.4413L3.46027 0C2.28467 0.132995 1.12976 0.292589 0 0.477304Z" transform="translate(25.40918 0.50686646)" id="Path" fill="none" fill-rule="evenodd" stroke="none" />
          <path d="M0 0L25.3635 17.4357C25.3827 17.2007 25.3961 16.9672 25.3961 16.7308C25.3961 15.9299 25.2807 15.1437 25.0604 14.3709L5.98894 1.26198C4.08874 0.763983 2.08652 0.339876 0 0Z" transform="translate(50.34668 0.98565674)" id="Path" fill="none" fill-rule="evenodd" stroke="none" />
          <path d="M0 0.248257L39.1455 27.1561C39.8301 26.6537 40.4616 26.135 41.0368 25.6001L3.79447 0C2.50944 0.0517203 1.24363 0.134473 0 0.248257Z" transform="translate(30.679688 0.07388306)" id="Path" fill="none" fill-rule="evenodd" stroke="none" />
          <path d="M1.40481 0C0.933091 0 0.465806 0.00591089 0 0.0132995L36.0992 24.8272C36.6597 24.2287 37.1551 23.614 37.5736 22.9845L4.20556 0.0472871C3.28282 0.0177327 2.34826 0 1.40481 0Z" transform="translate(36.46582 0)" id="Path" fill="none" fill-rule="evenodd" stroke="none" />
          <path d="M0 0L14.5834 10.0249C12.3742 5.9301 7.11427 2.40278 0 0Z" transform="translate(60.009277 3.3411255)" id="Path" fill="none" fill-rule="evenodd" stroke="none" />
          <path d="M0 0.861512L42.6102 30.1529C43.5669 29.8559 44.4926 29.5397 45.3873 29.2042L2.90131 0C1.90463 0.264512 0.937527 0.554146 0 0.861512Z" transform="translate(16.164062 2.3377686)" id="Path" fill="none" fill-rule="evenodd" stroke="none" />
          <path d="M0 0L31.734 21.8141C32.1229 21.0768 32.4127 20.3216 32.5976 19.5503L4.81037 0.449228C3.2429 0.254168 1.63846 0.101963 0 0Z" transform="translate(42.90869 0.15664673)" id="Path" fill="none" fill-rule="evenodd" stroke="none" />
          <path d="M11.1246 7.64722L0 0C2.21369 2.99387 6.09541 5.62421 11.1246 7.64722Z" transform="translate(2.0717773 23.50763)" id="Path" fill="#A1C3FC" stroke="none" />
          <path d="M0.156748 1.53683L20.8164 15.7377C21.7938 15.9683 22.7935 16.1796 23.8153 16.3717L0 0C0.00443625 0.517203 0.05915 1.02997 0.156748 1.53683Z" transform="translate(0.0014648438 17.799164)" id="Path" fill="#A1C3FC" stroke="none" />
          <path d="M0 1.13637L28.7336 20.8876C29.5262 20.9748 30.3321 21.0516 31.1425 21.1152L0.424401 0C0.257302 0.373864 0.116821 0.753639 0 1.13637Z" transform="translate(0.3798828 14.066437)" id="Path" fill="#A1C3FC" stroke="none" />
          <path d="M0 0.715218L34.0157 24.3071C34.6323 24.3204 35.2534 24.5376 35.8774 24.5376C35.9602 24.5376 36.0401 24.5376 36.1229 24.5376L0.73346 0C0.471721 0.305889 0.226249 0.401941 0 0.715218Z" transform="translate(1.9946289 11.311981)" id="Path" fill="#A1C3FC" stroke="none" />
          <path d="M0 0.77876L37.6963 26.6921C38.3351 26.6581 38.968 26.6182 39.5965 26.5709L0.941964 0C0.61516 0.254168 0.300186 0.514248 0 0.77876Z" transform="translate(4.416992 8.628418)" id="Path" fill="#A1C3FC" stroke="none" />
          <path d="M0 0.664975L40.225 28.3161C40.8091 28.2422 41.3873 28.1639 41.9581 28.0797L1.10906 0C0.727545 0.217225 0.357857 0.438884 0 0.664975Z" transform="translate(7.4174805 6.5197144)" id="Path" fill="#A1C3FC" stroke="none" />
          <path d="M0 0.568923L41.8043 29.3047C42.3396 29.1983 42.8704 29.086 43.3924 28.9678L1.25102 0C0.825143 0.186193 0.408135 0.375342 0 0.568923Z" transform="translate(10.889648 4.7168884)" id="Path" fill="#A1C3FC" stroke="none" />
          <path d="M0 0.475827L42.5422 29.72C43.0346 29.5811 43.5181 29.4392 43.9958 29.2914L1.38559 0C0.915346 0.153683 0.452497 0.3118 0 0.475827Z" transform="translate(14.779785 3.1992798)" id="Path" fill="#A1C3FC" stroke="none" />
          <path d="M0 0.384208L42.486 29.5884C42.9355 29.42 43.3762 29.2471 43.8094 29.0698L1.51868 0C1.00555 0.121173 0.498339 0.249735 0 0.384208Z" transform="translate(19.06543 1.9520874)" id="Path" fill="#A1C3FC" stroke="none" />
          <path d="M0 0.289634L41.6298 28.9057C42.0349 28.7048 42.4298 28.5008 42.8157 28.2925L1.6562 0C1.09871 0.0901411 0.545659 0.186193 0 0.289634Z" transform="translate(23.75293 0.9841614)" id="Path" fill="#A1C3FC" stroke="none" />
          <path d="M0 0.184715L39.9218 27.626C40.2782 27.3911 40.6227 27.1502 40.9555 26.9079L1.80999 0C1.20074 0.0546757 0.598894 0.11674 0 0.184715Z" transform="translate(28.869629 0.3206787)" id="Path" fill="#A1C3FC" stroke="none" />
          <path d="M0 0.0591089L37.2423 25.6592C37.541 25.3828 37.8235 25.1006 38.0926 24.8139L1.99336 0C1.32496 0.0118218 0.661001 0.0310322 0 0.0591089Z" transform="translate(34.472656 0.013305664)" id="Path" fill="#A1C3FC" stroke="none" />
          <path d="M0 0L33.368 22.9372C33.5898 22.6032 33.7894 22.2648 33.9698 21.922L2.23587 0.107874C1.49649 0.0620644 0.751205 0.026599 0 0Z" transform="translate(40.67285 0.04876709)" id="Path" fill="#A1C3FC" stroke="none" />
          <path d="M0 0L27.7872 19.101C27.8892 18.6769 27.9587 18.2469 27.9942 17.8154L2.6307 0.379775C1.76563 0.239391 0.888729 0.112307 0 0Z" transform="translate(47.71924 0.6058655)" id="Path" fill="#A1C3FC" stroke="none" />
          <path d="M3.67026 1.09499C2.49613 0.698963 1.27025 0.332488 0 0L19.0714 13.1089C18.8792 12.4336 18.6056 11.7686 18.2552 11.1199L3.67026 1.09499Z" transform="translate(56.338867 2.2461548)" id="Path" fill="#A1C3FC" stroke="none" />
        </g>
        <g id="Group" transform="translate(897.94434 449.1912)">
          <path d="M11.4677 22.921C5.14457 22.921 0 17.7814 0 11.4612C0 5.141 5.14457 0 11.4677 0C17.7923 0 22.9369 5.141 22.9369 11.4612C22.9339 17.7814 17.7908 22.921 11.4677 22.921ZM11.4675 1.57971C6.01535 1.57971 1.5791 6.01288 1.5791 11.4627C1.5791 16.9111 6.01535 21.3443 11.4675 21.3443C16.9211 21.3443 21.3574 16.9111 21.3574 11.4627C21.3574 6.01436 16.9211 1.57971 11.4675 1.57971Z" transform="translate(30.215332 30.192871)" id="Shape" fill="#FFFFFF" stroke="none" />
          <path d="M18.1812 36.3387C8.15679 36.3387 0 28.1876 0 18.1701C0 8.15112 8.15679 0 18.1812 0C28.2072 0 36.3639 8.15112 36.3639 18.1701C36.3625 28.1876 28.2057 36.3387 18.1812 36.3387ZM18.181 1.57672C9.0261 1.57672 1.57764 9.02149 1.57764 18.1701C1.57764 27.3187 9.0261 34.7619 18.181 34.7619C27.336 34.7619 34.7859 27.3187 34.7859 18.1701C34.7844 9.02001 27.336 1.57672 18.181 1.57672Z" transform="translate(23.501465 23.485474)" id="Shape" fill="#FFFFFF" stroke="none" />
          <path d="M25.7347 51.4366C11.5446 51.4366 0 39.9 0 25.7198C0 11.5381 11.5446 0 25.7347 0C39.9248 0 51.4723 11.5366 51.4723 25.7198C51.4708 39.9 39.9248 51.4366 25.7347 51.4366ZM25.7345 1.57672C12.4139 1.57672 1.57764 12.407 1.57764 25.7183C1.57764 39.0296 12.4139 49.8584 25.7345 49.8584C39.0551 49.8584 49.8928 39.0296 49.8928 25.7183C49.8928 12.407 39.0536 1.57672 25.7345 1.57672Z" transform="translate(15.948242 15.935791)" id="Shape" fill="#FFFFFF" stroke="none" />
          <path d="M34.1296 68.2087C15.311 68.2087 0 52.9099 0 34.1058C0 15.3003 15.3095 0 34.1296 0C52.9496 0 68.2591 15.2989 68.2591 34.1058C68.2576 52.9099 52.9481 68.2087 34.1296 68.2087ZM34.1293 1.57526C16.1803 1.57526 1.5791 16.1678 1.5791 34.1029C1.5791 52.0395 16.1818 66.6305 34.1293 66.6305C52.0769 66.6305 66.6796 52.0395 66.6796 34.1029C66.6796 16.1692 52.0769 1.57526 34.1293 1.57526Z" transform="translate(7.5532227 7.5511475)" id="Shape" fill="#FFFFFF" stroke="none" />
          <path d="M41.683 83.3081C18.7003 83.3081 0 64.6223 0 41.654C0 18.6858 18.6988 0 41.683 0C64.6672 0 83.366 18.6858 83.366 41.654C83.3645 64.6223 64.6672 83.3081 41.683 83.3081ZM41.6828 1.57819C19.5696 1.57819 1.5791 19.5576 1.5791 41.6555C1.5791 63.7534 19.5696 81.7313 41.6828 81.7313C63.796 81.7313 81.788 63.7534 81.788 41.6555C81.788 19.5576 63.796 1.57819 41.6828 1.57819Z" id="Shape" fill="#FFFFFF" stroke="none" />
        </g>
        <g id="Group" transform="translate(1028.0566 308.2135)" opacity="0.31">
          <path d="M0 11.8661L154.699 11.8661L154.699 0L11.8758 0L0 11.8661Z" transform="translate(0 142.72586)" id="Path" fill="none" fill-rule="evenodd" stroke="none" />
        </g>
        <path d="M58.9646 64.0167C58.7162 63.8792 58.4042 63.9738 58.2667 64.2206C58.1291 64.4689 58.2238 64.7821 58.4722 64.9181C58.7206 65.0555 59.0326 64.9609 59.1702 64.7142L59.1702 64.7142C59.3077 64.4659 59.2175 64.1526 58.9646 64.0167L58.9646 64.0167ZM6.47164 59.121C6.39179 58.8417 6.099 58.6806 5.82099 58.7619L5.82099 58.7619C5.56369 58.8269 5.40842 59.0899 5.47349 59.3456C5.47644 59.3663 5.48532 59.3899 5.49567 59.4091C5.56813 59.6796 5.84022 59.8406 6.11231 59.7712C6.38587 59.6884 6.55149 59.4003 6.47164 59.121L6.47164 59.121L6.47164 59.121ZM32.8986 63.3104C32.906 63.0222 32.6975 62.774 32.4136 62.7296C32.1222 62.7015 31.859 62.9188 31.8324 63.2143C31.8043 63.5054 32.0217 63.7685 32.3174 63.7951C32.6043 63.798 32.8542 63.5941 32.8986 63.3104ZM61.947 1.15141C62.0253 0.613518 61.6601 0.109614 61.1218 0.0194732C60.6072 -0.0854452 60.1044 0.244087 59.998 0.755379C59.995 0.774589 59.9906 0.789367 59.9891 0.807099C59.9107 1.34499 60.276 1.84889 60.8142 1.93904C61.3436 2.03509 61.8523 1.68191 61.947 1.15141L61.947 1.15141ZM58.0195 24.6546C58.0979 24.1123 57.7223 23.6113 57.1796 23.5359C56.6487 23.4591 56.1504 23.8197 56.0631 24.3487C55.967 24.8792 56.3204 25.3846 56.8513 25.4806L56.8513 25.4806C57.3999 25.5486 57.9071 25.1895 58.0195 24.6546ZM54.0639 48.1918C54.1556 47.6613 53.8052 47.1603 53.2743 47.0687C53.2639 47.0672 53.2521 47.0658 53.2417 47.0643C52.7271 46.9594 52.2244 47.2889 52.1179 47.8002C52.1149 47.8194 52.1105 47.8342 52.109 47.8519C52.038 48.3957 52.3974 48.904 52.9356 49.0193C53.471 49.0947 53.9737 48.7297 54.0639 48.1918ZM104.865 28.6932C104.398 28.4213 103.799 28.5779 103.527 29.0493C103.255 29.5148 103.413 30.1148 103.883 30.3867C104.341 30.6527 104.928 30.5049 105.206 30.0542C105.48 29.5843 105.328 28.9799 104.865 28.6932L104.865 28.6932ZM92.2169 48.9232C91.7496 48.6513 91.1507 48.808 90.8786 49.2794C90.6066 49.7449 90.7648 50.3448 91.235 50.6167C91.6934 50.8827 92.2805 50.7349 92.5585 50.2857C92.8321 49.8173 92.6798 49.2099 92.2169 48.9232L92.2169 48.9232ZM15.3666 13.483C15.232 12.9555 14.7012 12.6304 14.1688 12.7574C13.6483 12.8727 13.3244 13.3884 13.4383 13.9086C13.4398 13.9115 13.4398 13.916 13.4413 13.9189C13.527 14.4347 14.0135 14.7819 14.5296 14.6977C14.5533 14.6933 14.5784 14.6888 14.6065 14.6829C15.13 14.5381 15.4627 14.0209 15.3666 13.483ZM20.7239 36.7394C20.5834 36.2119 20.0629 35.8823 19.5276 35.9784C18.9996 36.1129 18.6758 36.6463 18.8015 37.1754C18.9242 37.7029 19.4521 38.031 19.9786 37.9068C19.986 37.9053 19.9934 37.9039 19.9963 37.9039C20.5168 37.7886 20.8407 37.2729 20.7283 36.7572C20.7253 36.7453 20.7253 36.7424 20.7239 36.7394ZM26.08 59.9574C25.975 59.4461 25.4781 59.1136 24.9665 59.22C24.9517 59.223 24.9354 59.2259 24.9221 59.2319C24.3913 59.3338 24.0467 59.8495 24.1488 60.38C24.1517 60.3978 24.1547 60.4111 24.1576 60.4288C24.2848 60.9608 24.8201 61.2888 25.348 61.1632C25.8804 61.0362 26.2087 60.5012 26.083 59.9737C26.0815 59.9633 26.08 59.9604 26.08 59.9574ZM124.378 41.6085C123.994 41.3174 123.447 41.3868 123.147 41.7651C122.851 42.1464 122.922 42.6976 123.303 42.9961C123.685 43.2946 124.236 43.2207 124.535 42.8394L124.535 42.8394C124.826 42.4537 124.757 41.9085 124.378 41.6085ZM38.108 19.0614C38.0252 18.5737 37.5772 18.2368 37.0862 18.293C36.6204 18.3521 36.2892 18.7747 36.3469 19.2417C36.3498 19.2564 36.3513 19.2653 36.3542 19.2801C36.4075 19.7618 36.8422 20.1076 37.3228 20.0515C37.3302 20.05 37.3332 20.0485 37.3406 20.0485C37.8093 19.9702 38.148 19.5416 38.108 19.0614L38.108 19.0614ZM40.8631 40.1308C40.7936 39.655 40.3514 39.3284 39.8782 39.3949C39.4124 39.454 39.0812 39.8766 39.1388 40.3436C39.1418 40.3584 39.1433 40.3672 39.1462 40.382C39.1995 40.8637 39.6342 41.2095 40.1148 41.1563C40.1222 41.1549 40.1252 41.1534 40.1326 41.1534C40.6102 41.0632 40.934 40.6125 40.8631 40.1308L40.8631 40.1308ZM43.6594 61.2681C43.6062 60.7864 43.1715 60.4406 42.6909 60.4938C42.6835 60.4953 42.6805 60.4968 42.6731 60.4968C42.2162 60.5381 41.8835 60.9445 41.9249 61.3996C41.9278 61.4277 41.9323 61.4558 41.9367 61.4824C41.9899 61.9641 42.4247 62.3099 42.9053 62.2567C42.9127 62.2552 42.9156 62.2538 42.923 62.2538C43.3888 62.1725 43.7156 61.7395 43.6594 61.2681L43.6594 61.2681ZM82.6495 33.085C82.7589 32.6136 82.4735 32.1378 82.0033 32.0181C81.5375 31.8925 81.0613 32.1644 80.9356 32.6284C80.8188 33.0998 81.085 33.5844 81.5464 33.7322C82.027 33.8519 82.5149 33.5638 82.6495 33.085L82.6495 33.085ZM77.116 53.6534C77.252 53.2072 77.0036 52.7343 76.557 52.5983C76.5407 52.5939 76.523 52.591 76.5067 52.5821C76.0409 52.4565 75.5647 52.7284 75.439 53.1924C75.3222 53.6638 75.5884 54.1485 76.0498 54.2962C76.52 54.4086 76.9932 54.1233 77.116 53.6534L77.116 53.6534ZM1.63476 42.4094C1.41295 42.0045 0.908695 41.8582 0.503517 42.0769C0.487251 42.0873 0.470985 42.0932 0.459155 42.1035C0.0347533 42.3326 -0.124952 42.8646 0.105733 43.2916C0.111648 43.3005 0.116085 43.3108 0.120521 43.3182C0.379302 43.7261 0.913131 43.8605 1.33605 43.6212C1.75158 43.3862 1.89502 42.8572 1.6599 42.4419C1.65103 42.4316 1.64068 42.4227 1.63476 42.4094L1.63476 42.4094ZM12.2995 60.8529C12.0525 60.4318 11.5143 60.281 11.084 60.5145C10.6655 60.7716 10.5294 61.3213 10.7882 61.7395C11.0322 62.14 11.5468 62.2819 11.9609 62.0632C12.3838 61.8415 12.5479 61.3154 12.3246 60.8928C12.3202 60.8825 12.3098 60.8662 12.2995 60.8529L12.2995 60.8529ZM126.969 19.1531C127.086 18.6033 126.756 18.0581 126.21 17.9118C125.668 17.7729 125.113 18.0935 124.97 18.6329C124.845 19.1841 125.181 19.7338 125.728 19.8742C126.272 20.0131 126.825 19.6924 126.969 19.1531L126.969 19.1531ZM120.831 42.9592C120.974 42.4168 120.649 41.8627 120.109 41.7194C119.569 41.576 119.012 41.9011 118.868 42.4405C118.725 42.9828 119.05 43.537 119.59 43.6803C120.131 43.8236 120.686 43.4985 120.831 42.9592L120.831 42.9592ZM24.3469 32.9491C24.0422 32.4673 23.4167 32.3077 22.9184 32.587C22.4393 32.8914 22.3003 33.5269 22.6079 34.0042C22.9021 34.4652 23.5069 34.6115 23.9801 34.3426C24.4533 34.05 24.6175 33.4367 24.3469 32.9491L24.3469 32.9491ZM36.8586 54.1041C36.5658 53.6313 35.9536 53.4672 35.4656 53.7377C34.9806 54.0214 34.8149 54.6435 35.0989 55.1297C35.3828 55.6144 36.0053 55.7799 36.4918 55.4962C36.9695 55.2065 37.1307 54.5888 36.8586 54.1041L36.8586 54.1041ZM77.6245 27.0441C77.5196 26.4973 77.0109 26.1205 76.4578 26.1737C75.9077 26.2712 75.538 26.7899 75.6223 27.3396C75.6874 27.8864 76.1842 28.2795 76.7358 28.213C76.7432 28.2115 76.7506 28.21 76.7565 28.21C77.317 28.1317 77.7044 27.6115 77.6245 27.0441C77.626 27.0485 77.6245 27.0441 77.6245 27.0441L77.6245 27.0441ZM81.085 51.4028C81.0022 50.8413 80.4816 50.4526 79.9212 50.531C79.9212 50.531 79.9212 50.531 79.9182 50.5324C79.3755 50.6108 78.9999 51.1176 79.0827 51.6599L79.0827 51.6599C79.1611 52.2111 79.6698 52.5983 80.2199 52.5215C80.767 52.4535 81.15 51.9496 81.085 51.4028L81.085 51.4028ZM93.2183 20.6027C93.1488 20.053 92.6416 19.6629 92.0885 19.7323C91.534 19.8018 91.1481 20.3086 91.2176 20.8628C91.2885 21.3992 91.7691 21.7863 92.3089 21.7361C92.8738 21.6696 93.2789 21.1642 93.2183 20.6027L93.2183 20.6027ZM95.6554 44.9673C95.5918 44.4058 95.0846 43.9994 94.5212 44.0615C93.977 44.1295 93.5792 44.6127 93.6117 45.1594C93.6857 45.7239 94.181 46.1333 94.7459 46.1008C95.3049 46.0254 95.7012 45.5244 95.6554 44.9673L95.6554 44.9673ZM49.2001 46.8086C48.9221 46.3195 48.3011 46.1392 47.8042 46.4067C47.3192 46.6726 47.1373 47.28 47.4035 47.7662C47.643 48.2568 48.233 48.4636 48.724 48.2243C48.7373 48.2183 48.7506 48.2124 48.7639 48.2036C49.2667 47.9524 49.4693 47.3406 49.2149 46.8381C49.212 46.8278 49.2075 46.8189 49.2001 46.8086L49.2001 46.8086Z" transform="translate(114.98389 493.6837)" id="texture-2_15_gS5PXifxC_4sDEWaX2O6s" fill="#FFFFFF" stroke="none" />
      </g>
    </g>
  </g>
  <g id="Group-31" transform="translate(1201.001 551)">
    <g id="Group-4" transform="translate(293.99902 113)">
      <path d="M57 85L0 56.5459L0 0L57 28.4541L57 85Z" transform="translate(0 7)" id="Fill-1" fill="#FFDC91" fill-rule="evenodd" stroke="none" />
      <path d="M14 56.1723L0 63L0 6.82343L14 0L14 56.1723Z" transform="translate(57 29)" id="Fill-2" fill="#FFBA5A" fill-rule="evenodd" stroke="none" />
      <path d="M13.5724 0L0 6.66421L56.4226 35L70 28.3358L13.5724 0Z" id="Fill-3" fill="#FDC54A" fill-rule="evenodd" stroke="none" />
      <path d="M11.0207 18.5998C10.7375 19.8133 10.2953 20.7384 9.65925 21.3709C10.494 23.0233 11.0008 24.8349 11.2244 26.8659L11.2244 33.9444C11.2244 34.5038 11.2592 35.0159 11.3486 35.4849C11.6368 36.9909 12.4567 38.0839 14.3448 39.0263L14.9907 39.349L14.9907 46.4662L14.3448 46.1392C13.2467 45.5927 12.2579 45.029 11.3486 44.4481C6.65316 41.3843 4.32281 37.6321 3.77128 32.5459L3.77128 25.5019C3.77128 24.9296 3.73153 24.4089 3.64209 23.9399C3.35888 22.4295 2.53406 21.3666 0.650906 20.42L0 20.0972L0 12.9929L0.650906 13.3157C0.958969 13.4749 1.23722 13.5911 1.49559 13.6814C1.78378 13.789 2.03719 13.8492 2.26078 13.8794C2.37009 13.8837 2.48438 13.8837 2.58375 13.8837C2.7825 13.8794 2.94647 13.8234 3.07566 13.7245C3.14522 13.69 3.20484 13.6255 3.2595 13.5609C3.38372 13.4448 3.47316 13.2942 3.54769 13.0962C3.58247 12.9929 3.61725 12.8983 3.64209 12.7778C3.73153 12.3819 3.77128 11.9043 3.77128 11.3449L3.77128 4.93767C4.32281 0.419492 6.64322 -0.983296 11.3486 0.669068C12.2579 0.991795 13.2467 1.4178 14.3448 1.96858L14.9907 2.29131L14.9907 9.39131L14.3448 9.06858C12.4567 8.12622 11.6368 8.36719 11.3486 9.60646C11.2592 9.98083 11.2244 10.4671 11.2244 11.0394L11.2244 17.4466C11.1499 17.9027 11.0952 18.2599 11.0207 18.5998" transform="translate(9.393555 23.855164)" id="Fill-4" fill="#DD0000" fill-rule="evenodd" stroke="none" />
      <path d="M3.97003 27.1908C4.25325 25.9774 4.70044 25.0522 5.33644 24.4197C4.49672 22.7673 3.99487 20.9558 3.77128 18.9247L3.77128 12.5175C3.77128 11.9581 3.7365 11.4504 3.64209 10.977C3.35888 9.47097 2.53406 8.378 0.650906 7.43564L0 7.11291L0 0L0.650906 0.322727C1.749 0.869212 2.73281 1.43721 3.64209 2.01382C8.33756 5.07758 10.6729 8.82982 11.2244 13.916L11.2244 20.2888C11.2244 20.8611 11.2592 21.3775 11.3536 21.8508C11.6368 23.3568 12.4616 24.424 14.3448 25.3664L14.9907 25.6934L14.9907 32.7934L14.3448 32.4707C14.0367 32.3158 13.7535 32.1996 13.4951 32.1092C13.2119 31.9973 12.9535 31.9414 12.7299 31.9113C12.6206 31.9027 12.5063 31.9027 12.4119 31.9027C12.2132 31.9113 12.0492 31.9629 11.92 32.0662C11.8455 32.1006 11.7859 32.1652 11.7312 32.2297C11.612 32.3459 11.5176 32.4965 11.448 32.6944C11.4132 32.7977 11.3735 32.8924 11.3536 33.0128C11.2592 33.4087 11.2244 33.8821 11.2244 34.4458L11.2244 41.5242C10.6729 46.0467 8.35247 47.4452 3.64209 45.7929C2.73281 45.4701 1.749 45.0441 0.650906 44.4976L0 44.1749L0 37.0749L0.650906 37.3976C2.53406 38.34 3.35888 38.0947 3.64209 36.8555C3.7365 36.4811 3.77128 35.9949 3.77128 35.4225L3.77128 28.3441C3.84084 27.8879 3.90047 27.5308 3.97003 27.1908" transform="translate(32.62207 30.265747)" id="Fill-6" fill="#DD0000" fill-rule="evenodd" stroke="none" />
    </g>
    <g id="Group-30">
      <g id="Group-3" transform="translate(30 8.371826)">
        <path d="M82.1235 96.0264L0 54.7991L0 0L82.1235 41.2273L82.1235 96.0264Z" transform="translate(0 6.574585)" id="Fill-8" fill="#FFDC91" fill-rule="evenodd" stroke="none" />
        <path d="M13.6144 54.7991L0 61.4602L0 6.65679L13.6144 0L13.6144 54.7991Z" transform="translate(82.06201 41.141724)" id="Fill-10" fill="#FFBA5A" fill-rule="evenodd" stroke="none" />
        <path d="M82.1235 47.7163L0 6.48897L13.2666 0L95.3901 41.2273L82.1235 47.7163Z" transform="translate(0.111816406 0)" id="Fill-12" fill="#FDC54A" fill-rule="evenodd" stroke="none" />
        <path d="M7.41834 8.89867L16.4515 21.2613L16.4515 23.4816L9.64931 20.0822L0 6.69982L0 3.72212L9.64931 0L16.4515 3.39939L16.4515 5.57242L7.41834 8.89867Z" transform="translate(9.490234 37.48584)" id="Fill-14" fill="#135665" fill-rule="evenodd" stroke="none" />
        <path d="M6.70781 27.2769L0 23.9292L0 22.1305L18.3148 0L24.9729 3.33055L24.9729 5.12491L6.70781 27.2769Z" transform="translate(27.838867 43.757507)" id="Fill-16" fill="#135665" fill-rule="evenodd" stroke="none" />
        <path d="M0 0L6.85191 3.42091L16.5012 16.8033L16.5012 19.781L6.85191 23.5075L0 20.0822L0 17.8619L9.08288 14.5615L0 2.17303L0 0Z" transform="translate(54.708496 55.2677)" id="Fill-18" fill="#135665" fill-rule="evenodd" stroke="none" />
      </g>
      <g id="Group-3-Copy" transform="translate(175.99902 0)">
        <path d="M82.1235 96.0264L0 54.7991L0 0L82.1235 41.2274L82.1235 96.0264Z" transform="translate(0 6.574585)" id="Fill-8" fill="#FFDC91" fill-rule="evenodd" stroke="none" />
        <g id="Group-16" transform="matrix(0.99254614 0.12186935 -0.12186935 0.99254614 15.791016 24.94342)">
          <g id="Group-3">
            <path d="M7.53009 0L57.5928 27.0364L50.0651 49.2808L0 22.2406" id="Clip-2" fill="none" fill-rule="evenodd" stroke="none" />
            <g clip-path="url(#mask_2)">
              <path d="M8.80165 1.17323C6.93908 -0.177606 5.36021 -0.367355 4.05408 0.632012C2.75115 1.63228 1.65288 3.73806 0.813648 6.94446C-0.0328931 10.1527 -0.215633 12.8431 0.249896 15.0537C0.709943 17.2589 1.83334 19.0267 3.642 20.3364C3.98509 20.5863 4.47027 20.8282 5.09295 21.0956C5.71838 21.3638 6.33924 21.4846 6.91076 21.4573C7.48273 21.4302 7.84912 21.1133 8.00994 20.4946C8.07709 20.2473 8.09171 19.8547 8.09491 19.344C8.08988 18.7887 8.03963 18.3134 7.94323 17.8411C7.8811 17.3551 7.7742 17.0917 7.62755 16.9868L7.4206 16.9466L7.18761 16.9262C6.82807 16.9603 6.47081 16.9182 6.10259 16.8347C5.73117 16.7502 5.32366 16.5675 4.90519 16.2627C4.10159 15.681 3.65753 14.8076 3.51774 13.6774C3.38799 12.5189 3.5721 10.9986 4.05819 9.15172C4.54245 7.30045 5.1094 6.05618 5.71564 5.47268C6.31548 4.84127 7.05878 4.82943 7.8843 5.42447C8.26212 5.70321 8.57049 6.03226 8.80988 6.35449C9.04653 6.7065 9.285 7.10551 9.51434 7.56342C9.64683 7.87997 9.75053 8.06555 9.80809 8.10403C9.93327 8.19918 10.1297 8.11738 10.4002 7.91313C10.661 7.66014 10.9287 7.37796 11.1997 7.02371C11.4491 6.65219 11.5989 6.39629 11.656 6.18069C11.7949 5.65627 11.7365 5.06346 11.4655 4.42499C11.2179 3.80445 10.8351 3.19739 10.3339 2.61649C9.85241 2.04446 9.33251 1.55858 8.80165 1.17323" transform="translate(0.31347656 10.526825)" id="Fill-1" fill="#33004D" fill-rule="evenodd" stroke="none" />
            </g>
          </g>
          <g id="Group-6">
            <path d="M7.53009 0L57.5928 27.0364L50.0651 49.2808L0 22.2406" id="Clip-5" fill="none" fill-rule="evenodd" stroke="none" />
            <g clip-path="url(#mask_2)">
              <path d="M5.72977 0.836393L5.31502 0.396709C4.73539 -0.217079 4.37 -0.114863 4.22398 0.67739L0.375335 21.5503C0.00651266 23.5535 -0.0932339 25.2313 0.0887779 26.6048C0.273189 27.979 0.708166 29.0487 1.40125 29.7849C2.3329 30.7751 2.91185 30.6674 3.13122 29.4592C3.16173 29.3006 3.19121 28.9868 3.23405 28.5038C3.27724 28.0171 3.30466 27.552 3.29267 27.1233C3.30055 26.6746 3.2601 26.4016 3.18401 26.3209L3.07809 26.2447L2.99583 26.1976L2.75349 26.0534C2.56359 25.8541 2.44636 25.5794 2.41894 25.2438C2.37644 24.8949 2.41654 24.4426 2.51492 23.9015L6.37555 2.96961C6.45268 2.55522 6.4304 2.19001 6.32551 1.85278C6.22851 1.4829 6.03038 1.15747 5.72977 0.836393" transform="translate(13.90625 5.270584)" id="Fill-4" fill="#33004D" fill-rule="evenodd" stroke="none" />
            </g>
          </g>
          <g id="Group-9">
            <path d="M7.53009 0L57.5928 27.0364L50.0651 49.2808L0 22.2406" id="Clip-8" fill="none" fill-rule="evenodd" stroke="none" />
            <g clip-path="url(#mask_2)">
              <path d="M8.69781 1.32784C7.93248 0.785993 7.23078 0.399497 6.54693 0.20115C5.86079 0.00190833 5.31014 -0.0641676 4.84142 0.0706082C4.39605 0.181768 4.10722 0.442494 3.99371 0.865189C3.93695 1.07469 3.91681 1.48456 3.9255 2.02545C3.93054 2.56539 3.96395 3.08678 4.03719 3.53244C4.10585 4.01053 4.22486 4.30382 4.37133 4.40955C4.40429 4.43317 4.55672 4.43585 4.81899 4.4374C5.27169 4.44068 5.71569 4.50115 6.09423 4.5522C6.48056 4.64988 6.91037 4.84143 7.38229 5.17879C7.96681 5.59051 8.32155 6.05417 8.50831 6.57831C8.68499 7.05867 8.6763 7.65848 8.48771 8.34972L8.18103 9.48475C6.51855 8.31453 5.14948 7.73762 4.08388 7.73792C3.0224 7.73559 2.2081 8.09018 1.66385 8.81111C1.12236 9.53658 0.693463 10.4786 0.377628 11.6488C-0.0297525 13.1801 -0.104363 14.5894 0.13915 15.8653C0.402804 17.1578 1.05965 18.1909 2.13715 18.953C2.72442 19.3655 3.30116 19.5582 3.8303 19.5365C4.36538 19.4902 4.81579 19.3431 5.19708 19.1478C5.5651 18.9078 5.82143 18.6947 5.96424 18.4777L5.93586 18.7435L5.89054 18.9935C5.80266 19.6474 5.76467 20.191 5.7697 20.585C5.78115 21.022 5.92442 21.3029 6.16152 21.4663C6.40137 21.6376 6.71629 21.8253 7.11726 22.0354C7.50725 22.2051 7.88671 22.3275 8.22909 22.3576C8.59024 22.3964 8.78981 22.2882 8.85435 22.047C8.8928 21.8999 8.93903 21.6465 8.98435 21.247C9.09009 20.6089 9.18804 20.0025 9.31163 19.3766C9.43842 18.7516 9.64394 17.8968 9.93277 16.8207L11.6813 10.3151C12.166 8.51622 12.1944 6.85925 11.7458 5.2974C11.3064 3.77527 10.2706 2.43688 8.69781 1.32784M4.77063 16.2905C4.4306 16.0455 4.2086 15.6971 4.08308 15.228C3.97161 14.8099 3.97536 14.3593 4.11305 13.8491C4.58563 12.0733 5.84692 11.8861 7.8885 13.3527L7.34848 15.3879C7.00518 15.9305 6.56866 16.2975 6.0989 16.4538C5.62164 16.6398 5.18513 16.5908 4.77063 16.2905" transform="translate(21.376465 17.624542)" id="Fill-7" fill="#33004D" fill-rule="evenodd" stroke="none" />
            </g>
          </g>
          <g id="Group-12">
            <path d="M7.53009 0L57.5928 27.0364L50.0651 49.2808L0 22.2406" id="Clip-11" fill="none" fill-rule="evenodd" stroke="none" />
            <g clip-path="url(#mask_2)">
              <path d="M7.60985 0.804056C6.92857 0.228689 6.2906 -0.0443533 5.67491 0.0058811C5.07252 0.0641407 4.51429 0.428585 4.04095 1.088C3.55775 1.78393 3.17317 2.70776 2.87905 3.9796C2.61451 5.11809 2.51332 6.1319 2.54934 7.03729C2.58664 7.93893 2.7084 8.72387 2.90305 9.34519C3.11657 9.97992 3.38282 10.6229 3.68981 11.2622L3.93891 11.7377C4.19144 12.2141 4.37495 12.638 4.51258 12.945C4.63263 13.2348 4.72352 13.5789 4.76211 13.9111C4.81184 14.2588 4.78783 14.6154 4.70037 14.9964C4.58118 15.5023 4.41525 15.8201 4.16486 15.9141C3.9239 16.0506 3.6285 15.9488 3.27778 15.6562C3.01153 15.4288 2.77057 15.1498 2.58578 14.8046C2.39499 14.4894 2.19862 14.0972 2.01426 13.6771C1.85134 13.3149 1.74715 13.1092 1.68455 13.0586C1.55807 12.9488 1.38571 13.031 1.15633 13.2183C0.914091 13.4336 0.703147 13.7058 0.481484 14.0895C0.266253 14.4398 0.129911 14.7782 0.0625973 15.0624C-0.0518785 15.5737 -0.0145774 16.135 0.214374 16.7825C0.427891 17.4172 0.731873 18.0558 1.16448 18.6464C1.57479 19.2577 2.02584 19.7552 2.50046 20.1566C3.24434 20.7864 3.95349 21.0812 4.61548 20.9977C5.2899 20.9574 5.87685 20.5422 6.38235 19.8292C6.86255 19.1362 7.26557 18.1508 7.55712 16.8781C7.85724 15.5804 7.96657 14.379 7.86539 13.347C7.74791 12.3022 7.5151 11.3451 7.13266 10.4531C7.07092 10.3236 6.88441 9.89881 6.58557 9.30929C6.31203 8.77497 6.10966 8.3375 5.97204 8.03052C5.84298 7.69456 5.73365 7.33679 5.68992 6.95936C5.62089 6.5981 5.63933 6.19617 5.72936 5.81586C5.92745 4.95795 6.35276 4.82612 7.0036 5.37618C7.25785 5.58821 7.47137 5.8074 7.63172 6.09368C7.81565 6.36721 7.9923 6.6661 8.15479 7.02828L8.39446 7.46128C8.50637 7.55458 8.67829 7.47243 8.87123 7.21445C9.07574 6.97572 9.2884 6.62095 9.47234 6.24548C9.67728 5.8528 9.79604 5.49705 9.85692 5.24269C9.97311 4.73588 9.91823 4.23237 9.70686 3.67746C9.48048 3.10602 9.19065 2.55889 8.79277 2.06978C8.40347 1.54789 8.00473 1.13762 7.60985 0.804056" transform="translate(35.773926 22.761017)" id="Fill-10" fill="#33004D" fill-rule="evenodd" stroke="none" />
            </g>
          </g>
          <g id="Group-15">
            <path d="M7.53009 0L57.5928 27.0364L50.0651 49.2808L0 22.2406" id="Clip-14" fill="none" fill-rule="evenodd" stroke="none" />
            <g clip-path="url(#mask_2)">
              <path d="M7.62735 0.806877C6.94401 0.23149 6.30915 -0.0406134 5.69059 0.00490056C5.07117 0.0542125 4.53111 0.432107 4.05496 1.09062C3.5711 1.78264 3.18589 2.71019 2.89205 3.97803C2.62695 5.12011 2.52572 6.13391 2.56261 7.03543C2.59907 7.94068 2.7209 8.72557 2.91607 9.34678C3.13227 9.98232 3.39651 10.6244 3.70407 11.2638L3.9533 11.7392C4.2051 12.2154 4.38955 12.6394 4.51267 12.9299C4.65036 13.2369 4.72586 13.5646 4.77691 13.9124C4.82967 14.2609 4.80565 14.6175 4.71513 14.9976C4.59889 15.5044 4.43031 15.8211 4.18365 15.9122C3.93829 16.0515 3.64273 15.9498 3.2927 15.6536C3.01002 15.4133 2.7861 15.1515 2.59864 14.8057C2.40776 14.4903 2.21344 14.0992 2.02641 13.6781C1.86426 13.3123 1.7596 13.1104 1.6974 13.0559C1.57 12.9499 1.39798 13.0322 1.16806 13.2157C0.926126 13.431 0.71379 13.7068 0.492447 14.0867C0.277966 14.4369 0.127401 14.7671 0.0609124 15.0515C-0.0561938 15.5581 -0.00386065 16.1357 0.212764 16.7713C0.441829 17.4187 0.746391 18.0572 1.17921 18.6477C1.5863 19.2581 2.03842 19.7556 2.51371 20.1571C3.25881 20.7831 3.96874 21.0779 4.63406 20.9953C5.30538 20.9579 5.89349 20.543 6.38336 19.8173C6.88224 19.138 7.28332 18.1518 7.57502 16.8794C7.87829 15.5788 7.98467 14.3805 7.868 13.3322C7.76633 12.3002 7.53255 11.3469 7.15249 10.4558C7.08772 10.3254 6.90069 9.9006 6.6017 9.31113C6.32931 8.77311 6.12813 8.34033 5.98786 8.03245C5.85831 7.69651 5.75236 7.33975 5.70475 6.96137C5.63912 6.60106 5.65799 6.19921 5.7455 5.81813C5.94539 4.96108 6.37135 4.82944 7.00793 5.36299C7.27474 5.59044 7.49137 5.81053 7.64923 6.09593C7.83454 6.36583 7.99668 6.65655 8.17513 7.03145L8.41535 7.46441C8.52473 7.55679 8.6813 7.4619 8.88935 7.21663C9.09439 6.97429 9.30973 6.62415 9.49032 6.24779C9.69966 5.85237 9.81762 5.50045 9.87639 5.24519C9.99264 4.73854 9.94073 4.23598 9.72926 3.67726C9.50276 3.10585 9.19477 2.54529 8.813 2.07337C8.42178 1.55078 8.02113 1.14042 7.62735 0.806877" transform="translate(46.94043 26.737793)" id="Fill-13" fill="#33004D" fill-rule="evenodd" stroke="none" />
            </g>
          </g>
        </g>
        <path d="M13.6144 54.7991L0 61.4602L0 6.6568L13.6144 0L13.6144 54.7991Z" transform="translate(82.06201 41.141724)" id="Fill-10" fill="#FFBA5A" fill-rule="evenodd" stroke="none" />
        <path d="M82.1235 47.7163L0 6.48898L13.2666 0L95.3901 41.2274L82.1235 47.7163Z" transform="translate(0.111816406 0)" id="Fill-12" fill="#FDC54A" fill-rule="evenodd" stroke="none" />
      </g>
      <g id="Group-3" transform="translate(0 88.371826)">
        <path d="M132.999 121.054L0 54.7991L0 0L132.999 66.2544L132.999 121.054Z" transform="translate(0 6.574585)" id="Fill-8" fill="#FFDC91" fill-rule="evenodd" stroke="none" />
        <g id="Group-25" transform="matrix(0.99254614 0.12186935 -0.12186935 0.99254614 22.33496 29.641785)">
          <g id="Group-3">
            <path d="M7.57705 0L96.1671 42.2165L88.5861 62.3322L0 20.1138" id="Clip-2" fill="none" fill-rule="evenodd" stroke="none" />
            <g clip-path="url(#mask_3)">
              <path d="M7.02474 0.613277C5.67281 -0.88436 4.6388 0.359475 3.9045 4.36138L3.39588 7.14729L3.14249 6.86968C2.99774 6.70974 2.86867 6.71988 2.75565 6.94415C2.63132 7.15196 2.51829 7.60405 2.39506 8.27588L2.28349 8.88468C2.15916 9.56025 2.10265 10.0342 2.12161 10.401C2.1227 10.7894 2.20546 11.0333 2.35057 11.1971L2.60142 11.4739L0.0426582 25.4412C-0.0969835 26.2107 0.10464 26.9003 0.655915 27.5089L1.03984 27.9331C1.60242 28.5579 1.94587 28.4788 2.08806 27.7101L4.64682 13.7428L5.34284 14.5113C5.4854 14.6703 5.61666 14.661 5.73515 14.4068C5.85875 14.1989 5.97907 13.7896 6.10012 13.1168L6.21169 12.5081C6.33492 11.8363 6.38742 11.3168 6.36846 10.9497C6.3619 10.5954 6.27731 10.3468 6.13476 10.1878L5.44165 9.41634L5.96996 6.53427C6.0684 5.98856 6.18033 5.61211 6.31122 5.45074C6.42315 5.30212 6.57993 5.32257 6.75822 5.51937L6.99266 5.89774L7.14907 6.14595C7.23111 6.23763 7.33903 6.12755 7.4794 5.82184C7.60737 5.53541 7.72952 5.17077 7.85858 4.77686C7.97817 4.36741 8.04416 4.09303 8.0726 3.93216C8.29464 2.71456 7.94755 1.63719 7.02474 0.613277" transform="translate(0.5517578 1.5652084)" id="Fill-1" fill="#000000" fill-rule="evenodd" stroke="none" />
            </g>
          </g>
          <g id="Group-6">
            <path d="M7.57705 0L96.1671 42.2165L88.5861 62.3322L0 20.1138" id="Clip-5" fill="none" fill-rule="evenodd" stroke="none" />
            <g clip-path="url(#mask_3)">
              <path d="M11.0913 4.93569L10.5492 4.53945C10.141 4.24083 9.81457 4.10537 9.58234 4.14327C9.35012 4.17778 9.18176 4.36289 9.08887 4.70961L6.29325 15.4726C6.01146 15.8544 5.68947 16.1677 5.31792 16.3448C4.94234 16.5533 4.58373 16.5316 4.22915 16.2692C3.80355 15.9586 3.54319 15.5631 3.44361 15.0776C3.35027 14.5939 3.40252 14.0124 3.58115 13.3172L6.3397 2.69951C6.43259 2.35285 6.39865 2.01876 6.25306 1.70484C6.11283 1.39601 5.8297 1.08808 5.42376 0.790292L4.87982 0.389779C4.49084 0.107053 4.16082 -0.0292393 3.92993 0.0052785C3.68074 0.0314931 3.52846 0.22834 3.43869 0.575949L0.484543 11.9455C0.0026795 13.7965 -0.115665 15.3311 0.111646 16.5624C0.35548 17.8089 0.9673 18.7765 1.9547 19.4959C2.56652 19.9435 3.17699 20.0806 3.82811 19.9723C4.48548 19.8657 5.04952 19.5568 5.54299 19.0591L5.46797 19.5873C5.38222 20.2139 5.34962 20.7393 5.35007 21.1219C5.36793 21.5095 5.50414 21.7811 5.73994 21.9569C5.95921 22.1177 6.23788 22.2872 6.61033 22.4895C6.98903 22.6645 7.32799 22.771 7.64015 22.7979C7.95276 22.8503 8.14836 22.7159 8.20821 22.4865C8.24706 22.342 8.29038 22.0975 8.34575 21.7264C8.42882 21.1677 8.52037 20.5825 8.64586 19.9488C8.76152 19.3449 8.96293 18.4935 9.23445 17.4517L11.9934 6.83411C12.0828 6.4865 12.0658 6.16416 11.9055 5.84276C11.7657 5.534 11.4968 5.23354 11.0913 4.93569" transform="translate(9.599609 12.483681)" id="Fill-4" fill="#000000" fill-rule="evenodd" stroke="none" />
            </g>
          </g>
          <g id="Group-9">
            <path d="M7.57705 0L96.1671 42.2165L88.5861 62.3322L0 20.1138" id="Clip-8" fill="none" fill-rule="evenodd" stroke="none" />
            <g clip-path="url(#mask_3)">
              <path d="M10.0922 3.2227C9.49683 2.78714 8.87729 2.6121 8.23943 2.73112C7.58414 2.83847 7.01914 3.14694 6.51448 3.60502L6.5641 3.09205C6.65037 2.46266 6.66959 1.99557 6.65842 1.64644C6.63473 1.28302 6.51761 1.02778 6.27847 0.851257C6.07509 0.705854 5.77963 0.52121 5.41667 0.361403C5.04432 0.156013 4.70818 0.0504435 4.37517 0.0142854C4.06541 -0.0407223 3.87678 0.06301 3.80749 0.321926C3.77039 0.467032 3.72793 0.711426 3.67205 1.08202C3.52723 2.25075 3.23311 3.61694 2.82008 5.20677L0.0514043 15.8399C-0.130522 16.5333 0.169411 17.1663 0.952096 17.7353L1.4943 18.1346C2.29352 18.7156 2.77494 18.6549 2.95642 17.965L5.75504 7.21046C6.03754 6.83264 6.35267 6.54675 6.73441 6.34361C7.11033 6.1355 7.46613 6.15624 7.82194 6.41854C8.2515 6.72618 8.51076 7.12451 8.6082 7.60879C8.70207 8.09225 8.66989 8.68559 8.49511 9.34853L5.72912 19.9858C5.54719 20.6792 5.84802 21.3088 6.62981 21.8813L7.15547 22.2655C7.95738 22.8505 8.45265 22.801 8.63502 22.1075L11.5986 10.7199C12.0751 8.89833 12.1895 7.36802 11.9441 6.12613C11.6969 4.91235 11.0778 3.94052 10.0922 3.2227" transform="translate(24.409668 18.112953)" id="Fill-7" fill="#000000" fill-rule="evenodd" stroke="none" />
            </g>
          </g>
          <g id="Group-12">
            <path d="M7.57705 0L96.1671 42.2165L88.5861 62.3322L0 20.1138" id="Clip-11" fill="none" fill-rule="evenodd" stroke="none" />
            <g clip-path="url(#mask_3)">
              <path d="M8.6695 1.15463C6.82998 -0.171558 5.26846 -0.361117 3.9845 0.615917C2.67858 1.5799 1.61959 3.65303 0.793332 6.79037C-0.0338367 9.93138 -0.213079 12.5646 0.24966 14.7301C0.71057 16.8913 1.82215 18.6245 3.58806 19.897C3.92963 20.1434 4.42391 20.3927 5.04166 20.6565C5.65575 20.9194 6.25155 21.0264 6.81534 21.0009C7.37959 20.9754 7.74128 20.662 7.90223 20.0611C7.96533 19.8181 7.99597 19.4461 7.98042 18.9335C7.99322 18.4022 7.94293 17.9367 7.84965 17.4748C7.77832 17.0261 7.6608 16.7274 7.53369 16.6368L7.32929 16.597L7.0993 16.5767C6.74676 16.6102 6.39467 16.5684 6.03207 16.4859C5.66535 16.4026 5.26252 16.2228 4.83224 15.9077C4.05445 15.3525 3.5972 14.4841 3.47512 13.3894C3.34526 12.2547 3.52176 10.7655 3.99867 8.95791C4.4765 7.14677 5.03115 5.92853 5.61414 5.34686C6.22229 4.74194 6.93789 4.71929 7.76826 5.31503C8.14549 5.5897 8.44682 5.91149 8.68733 6.22833C8.91687 6.57254 9.13636 6.94791 9.38099 7.41263C9.51496 7.72373 9.6183 7.90567 9.6718 7.94252C9.79754 8.03676 9.99187 7.95708 10.2388 7.74082C10.5159 7.51024 10.7797 7.23454 11.0426 6.88708C11.2886 6.52385 11.44 6.27442 11.4953 6.06342C11.6311 5.55014 11.5703 4.96865 11.3046 4.34379C11.0559 3.73483 10.6773 3.13969 10.1853 2.57077C9.6942 1.99841 9.19214 1.53212 8.6695 1.15463" transform="translate(38.99707 24.154667)" id="Fill-10" fill="#000000" fill-rule="evenodd" stroke="none" />
            </g>
          </g>
          <g id="Group-15">
            <path d="M7.57705 0L96.1671 42.2165L88.5861 62.3322L0 20.1138" id="Clip-14" fill="none" fill-rule="evenodd" stroke="none" />
            <g clip-path="url(#mask_3)">
              <path d="M6.23368 0.805864L5.65147 0.314856C5.05956 -0.18694 4.64595 -0.0959829 4.42479 0.638476L3.42007 3.84771L3.13867 3.60904C2.93288 3.43663 2.77964 3.4544 2.62358 3.6528C2.48247 3.86377 2.33247 4.28809 2.18773 4.93828L2.05188 5.52943C1.90471 6.17882 1.85498 6.65395 1.87035 6.99866C1.89258 7.38412 1.99002 7.6155 2.19541 7.78785L2.47722 8.02658L0.437465 17.0702C-0.00444743 19.0182 -0.116037 20.66 0.122911 22.0018C0.36105 23.3474 0.906871 24.3986 1.76846 25.1275C2.92722 26.1078 3.638 26.0095 3.90242 24.8327C3.93638 24.6772 3.9853 24.3872 4.03746 23.913C4.07142 23.4289 4.09972 22.9705 4.09649 22.5638C4.08719 22.1128 4.03544 21.8493 3.9287 21.7541L3.68571 21.6628L3.40673 21.4984C3.17061 21.301 3.02708 21.032 2.99029 20.7038C2.95026 20.3783 2.98746 19.965 3.1132 19.4093L5.16872 10.3049L6.04567 11.0464C6.24783 11.2178 6.4043 11.2009 6.56724 10.9698C6.70753 10.7589 6.85228 10.3636 6.99985 9.71437L7.13449 9.12677C7.27882 8.47652 7.33745 7.9732 7.31926 7.62757C7.28934 7.26669 7.19351 7.03985 6.98853 6.86749L6.11198 6.12605L6.883 2.72013C6.97438 2.32001 6.9574 1.97077 6.85915 1.66573C6.74554 1.3483 6.54662 1.06979 6.23368 0.805864" transform="translate(51.91211 23.151928)" id="Fill-13" fill="#000000" fill-rule="evenodd" stroke="none" />
            </g>
          </g>
          <g id="Group-18">
            <path d="M7.57705 0L96.1671 42.2165L88.5861 62.3322L0 20.1138" id="Clip-17" fill="none" fill-rule="evenodd" stroke="none" />
            <g clip-path="url(#mask_3)">
              <path d="M3.72831 0.786504L3.13589 0.386394C2.68912 0.08489 2.35206 -0.0406184 2.07429 0.0114101C1.81706 0.0473797 1.65227 0.243998 1.55003 0.61916L0.799818 3.31291C0.697114 3.69151 0.716721 4.01464 0.874046 4.32586C1.02857 4.63608 1.33388 4.94884 1.78392 5.25124L2.37681 5.65135C2.8231 5.95291 3.1793 6.09045 3.43093 6.05697C3.68442 6.02017 3.86789 5.83546 3.97387 5.45769L4.71988 2.76655C4.82678 2.3889 4.78944 2.0503 4.63164 1.73919C4.48412 1.40166 4.17181 1.08724 3.72831 0.786504M3.97228 9.38752L3.65967 8.98043C3.42668 8.67502 3.24481 8.5526 3.09623 8.58971C2.95828 8.63526 2.86529 8.85708 2.8018 9.23321L0.0398052 26.0837C-0.0826987 26.8413 0.0778946 27.5073 0.526732 28.0912L0.83934 28.5019C1.29744 29.0978 1.58191 29.0144 1.70648 28.2611L4.46985 11.4114C4.53093 11.0345 4.51755 10.6721 4.44171 10.345C4.36656 10.0182 4.20494 9.69299 3.97228 9.38752" transform="translate(61.300293 22.193817)" id="Fill-16" fill="#000000" fill-rule="evenodd" stroke="none" />
            </g>
          </g>
          <g id="Group-21">
            <path d="M7.57705 0L96.1671 42.2165L88.5861 62.3322L0 20.1138" id="Clip-20" fill="none" fill-rule="evenodd" stroke="none" />
            <g clip-path="url(#mask_3)">
              <path d="M9.17492 1.01155C7.31909 -0.206856 5.70139 -0.330473 4.26779 0.672707C2.84567 1.64818 1.69659 3.67024 0.822468 6.73913C-0.0449595 9.80621 -0.226192 12.4644 0.276381 14.7398C0.782779 17.0162 1.94142 18.7506 3.79439 19.968C5.63349 21.1747 7.27509 21.2816 8.70917 20.2749C10.1256 19.2601 11.2703 17.237 12.1421 14.1672C13.0095 11.1003 13.1974 8.41338 12.7082 6.17913C12.1985 3.93233 11.0116 2.21752 9.17492 1.01155M5.11206 15.9865C4.45574 15.4889 4.09637 14.6579 4.01007 13.4789C3.93484 12.342 4.1247 10.8161 4.57789 9.00169C5.50241 5.31156 6.59732 3.95172 7.87855 4.9224C8.51762 5.40713 8.87964 6.23905 8.94204 7.40339C9.01816 8.54035 8.8345 10.0369 8.37733 11.8816C7.9144 13.7244 7.4112 14.9785 6.87525 15.6892C6.34638 16.3666 5.75113 16.4713 5.11206 15.9865" transform="translate(68.18506 34.398006)" id="Fill-19" fill="#000000" fill-rule="evenodd" stroke="none" />
            </g>
          </g>
          <g id="Group-24">
            <path d="M7.57705 0L96.1671 42.2165L88.5861 62.3322L0 20.1138" id="Clip-23" fill="none" fill-rule="evenodd" stroke="none" />
            <g clip-path="url(#mask_3)">
              <path d="M10.078 3.22347C9.48354 2.78794 8.86584 2.60943 8.21196 2.71686C7.5737 2.8394 6.98994 3.13555 6.50578 3.60647L6.55536 3.09327C6.64112 2.46364 6.66032 1.99633 6.63352 1.63195C6.62638 1.28352 6.50936 1.02823 6.27085 0.851608C6.06718 0.706116 5.77284 0.521494 5.3932 0.350034C5.03812 0.156282 4.68661 0.035454 4.37039 0.0145848C4.06131 -0.0404342 3.87328 0.0599398 3.80315 0.322347C3.76742 0.464163 3.72455 0.708547 3.66782 1.08289C3.50748 2.23692 3.22967 3.61886 2.81697 5.20943L0.0513638 15.8471C-0.129973 16.5408 0.168831 17.1741 0.950454 17.7432L1.49134 18.1427C2.28993 18.7237 2.77052 18.663 2.9523 17.9694L5.74739 7.21359C6.0118 6.82359 6.3441 6.54945 6.72196 6.34538C7.09714 6.13704 7.45534 6.15862 7.81176 6.41747C8.24009 6.72855 8.49915 7.12732 8.59607 7.61164C8.69031 8.09187 8.64029 8.67704 8.46877 9.34106L5.70004 19.9814C5.51781 20.6751 5.82153 21.3058 6.60181 21.8785L7.14359 22.2745C7.94442 22.8597 8.42232 22.7948 8.60455 22.1011L11.5644 10.7118C12.0401 8.88941 12.1714 7.37017 11.9276 6.12447C11.6801 4.91026 11.062 3.94162 10.078 3.22347" transform="translate(83.65869 39.02131)" id="Fill-22" fill="#000000" fill-rule="evenodd" stroke="none" />
            </g>
          </g>
        </g>
        <path d="M13.6144 54.7991L0 61.4602L0 6.6568L13.6144 0L13.6144 54.7991Z" transform="translate(132.99902 66.628174)" id="Fill-10" fill="#FFBA5A" fill-rule="evenodd" stroke="none" />
        <path d="M132.887 73.6282L0 6.48895L13.2666 0L146.154 67.1392L132.887 73.6282Z" transform="translate(0.111816406 0)" id="Fill-12" fill="#FDC54A" fill-rule="evenodd" stroke="none" />
      </g>
      <g id="Group-2" transform="translate(169.19336 87.80524)">
        <path d="M71 107L0 71.1924L0 0L71 35.816L71 107Z" transform="translate(0 9)" id="Fill-20" fill="#FFDC91" fill-rule="evenodd" stroke="none" />
        <path d="M18 71.3323L0 80L0 8.66765L18 0L18 71.3323Z" transform="translate(71 36)" id="Fill-22" fill="#FFBA5A" fill-rule="evenodd" stroke="none" />
        <path d="M70.9278 44L0 8.38295L17.0722 0L88 35.617L70.9278 44Z" id="Fill-24" fill="#FDC54A" fill-rule="evenodd" stroke="none" />
        <path d="M9.615 47L9.085 46.7474C2.875 43.7245 0.385 39.8933 0.385 33.9822L0.385 5.80797C0.385 -0.103069 2.875 -1.46715 9.085 1.55573L9.615 1.80834L9.615 7.42467L9.085 7.17206C7.075 6.18688 6.545 6.82683 6.545 8.72139L6.545 37.1062C6.545 38.9586 7.075 40.1459 9.085 41.1226L9.615 41.3837L9.615 47Z" transform="translate(7 29)" id="Fill-26" fill="#0071C6" fill-rule="evenodd" stroke="none" />
        <path d="M0.92 39.8414C2.92 40.8187 3.46 40.1447 3.46 38.2828L3.46 9.89084C3.46 7.98681 2.92 6.84945 0.92 5.87216L0.39 5.61941L0.39 0L0.92 0.252747C7.12 3.26886 9.61 7.05165 9.61 12.9744L9.61 41.1557C9.61 47.07 7.12 48.4769 0.92 45.4608L0.39 45.208L0.39 39.5886L0.92 39.8414Z" transform="translate(54 50)" id="Fill-28" fill="#0071C6" fill-rule="evenodd" stroke="none" />
      </g>
    </g>
  </g>
  <g id="Group-101" transform="matrix(-0.9925461 0.1218694 0.1218694 0.9925461 1229.6938 367.00375)">
    <path d="M77.106 11.2864C77.106 11.2864 51.4643 8.15576 31.4651 5.16566C11.4685 2.17817 4.63456 -0.486629 2.11045 0.0754779C-0.41105 0.634982 -1.13372 4.35894 2.53463 8.19219C6.20297 12.0228 28.0664 15.6817 28.0664 15.6817C28.0664 15.6817 26.0608 20.6184 28.5037 23.1739C30.9493 25.7294 34.6962 26.445 34.6962 26.445C34.6962 26.445 32.1563 27.6291 33.9578 30.7909C35.7618 33.9528 40.1345 34.6841 40.1345 34.6841C40.1345 34.6841 38.1446 38.9987 41.2316 40.9453C44.3213 42.8944 59.9452 45.1507 61.8749 43.329C63.8021 41.5074 63.2679 37.7522 63.2679 37.7522C63.2679 37.7522 72.0133 39.2147 73.9902 35.5246C75.9618 31.8345 74.2206 26.1796 74.2206 26.1796L83 26.3956L77.106 11.2864Z" transform="matrix(1 -5.2027442E-08 5.2027442E-08 1 0 132.64471)" id="Fill-1" fill="#FDC68B" fill-rule="evenodd" stroke="none" />
    <path d="M47.4634 15.5227C47.4634 15.5227 40.9261 23.4542 34.0293 20.7965C27.1299 18.1362 27.1457 17.5153 24.6609 15.585C22.1787 13.6574 16.4185 16.0085 9.53233 12.7247C2.65139 9.4461 4.06036 3.87872 4.06036 3.87872C4.06036 3.87872 7.19286 5.19847 14.169 4.74903C18.9801 4.43728 27.1219 3.0266 32.9587 2.41348C27.5211 1.71464 21.1583 0.880701 14.7426 0C13.6323 0.423464 12.1943 0.885896 10.4602 1.23402C6.32316 2.06536 0 1.60033 0 1.60033C0 1.60033 1.67067 10.6645 6.66153 13.5898C11.655 16.5125 19.9132 15.4681 19.559 17.0165C19.2048 18.5649 11.9247 18.3856 11.9247 18.3856C11.9247 18.3856 23.3153 18.6636 25.824 19.6612C28.3326 20.6562 32.3507 24.4882 30.0905 26.2989C27.8251 28.1123 18.9827 27.2731 18.9827 27.2731C18.9827 27.2731 29.3927 28.7721 30.9602 29.432C32.5278 30.0945 33.0724 33.5316 28.6102 34.6669C26.395 35.228 21.6949 35.5008 17.5209 35.6333C23.3603 36.8673 31.6264 37.6155 33.001 36.3295C34.9492 34.511 34.41 30.7622 34.41 30.7622C34.41 30.7622 43.2365 32.2248 45.2323 28.5383C47.2255 24.8545 45.4676 19.2091 45.4676 19.2091L48 19.2715C47.7515 17.0866 47.4634 15.5227 47.4634 15.5227" transform="matrix(1 -5.2027442E-08 5.2027442E-08 1 29.007324 139.64484)" id="Fill-3" fill="#F0A96E" fill-rule="evenodd" stroke="none" />
    <path d="M10.3164 1.4024L0 0L6.20912 27.6581L20 28L10.3164 1.4024Z" transform="matrix(1 -5.2027442E-08 5.2027442E-08 1 74.00781 139.64484)" id="Fill-5" fill="#E0DBD7" fill-rule="evenodd" stroke="none" />
    <path d="M0 33.9106C0 33.9106 31.5693 42.2318 68.4626 37.8818C131.591 30.4364 172.197 0 172.197 0L208 31.2228C208 31.2228 184.975 53.2092 126.227 65.2754C77.3158 75.3244 8.117 69.0862 8.117 69.0862L0 33.9106Z" transform="matrix(1 -5.2027442E-08 5.2027442E-08 1 81.99756 102.64459)" id="Fill-7" fill="#AF9074" fill-rule="evenodd" stroke="none" />
    <path d="M31.5598 6.59681C39.4336 14.5455 40.1926 26.5433 33.2564 33.3932C26.3202 40.2431 14.3151 39.3515 6.44127 31.4028C-1.43256 23.454 -2.1942 11.4589 4.74464 4.60898C11.6809 -2.24353 23.686 -1.35189 31.5598 6.59681" transform="matrix(1 -5.2027442E-08 5.2027442E-08 1 108.00586 156.64496)" id="Fill-9" fill="#B6D1DC" fill-rule="evenodd" stroke="none" />
    <path d="M48.4461 48.5005L48.4461 48.5005C46.5028 50.4061 43.5035 50.5105 41.7919 48.7276L0 5.20767L5.30858 0L48.7515 41.9067C50.529 43.6217 50.392 46.5923 48.4461 48.5005" transform="matrix(1 -5.2027442E-08 5.2027442E-08 1 143.0083 191.64496)" id="Fill-11" fill="#1F3038" fill-rule="evenodd" stroke="none" />
    <path d="M14 3.8378L3.77501 14L0 10.1622L10.225 0L14 3.8378Z" transform="matrix(1 -5.2027442E-08 5.2027442E-08 1 138.99023 187.64484)" id="Fill-13" fill="#1F3038" fill-rule="evenodd" stroke="none" />
    <path d="M7.77174 9.91067C2.4482 15.1655 4.68999 26.5771 11.8346 33.7737C18.9769 40.9701 30.2207 43.4957 35.5442 38.2408C40.8682 32.9886 39.8052 20.6554 32.6606 13.4589C25.5145 6.26255 13.0958 4.65582 7.77174 9.91067M41.4597 41.5913C33.8826 49.0665 19.4419 46.8052 9.26389 36.5556C-0.913149 26.3034 -3.03394 11.8799 4.54313 4.40734C12.1141 -3.06511 26.5581 -0.806493 36.7337 9.44563C46.9155 19.6952 49.0311 34.1188 41.4597 41.5913" transform="matrix(1 -5.2027442E-08 5.2027442E-08 1 103.990234 152.64484)" id="Fill-15" fill="#1F3038" fill-rule="evenodd" stroke="none" />
    <path d="M16.4508 3.81444C20.6691 8.28595 21.2044 14.9047 17.6418 18.5951C14.0791 22.2883 7.77089 21.6576 3.55002 17.186C-0.670856 12.7145 -1.20359 6.09582 2.35905 2.40266C5.9217 -1.28782 12.2325 -0.657079 16.4508 3.81444" transform="matrix(1 -5.2027442E-08 5.2027442E-08 1 112.007324 161.64484)" id="Fill-17" fill="#CDDEE6" fill-rule="evenodd" stroke="none" />
    <path d="M51.3849 7.17455L45.3204 9.2553C45.3204 9.2553 35.0335 0.0766112 32.0301 0.0011842C29.0242 -0.0742428 22.1741 3.47863 22.1741 3.47863L9.40409 3.16132L0 18.551C2.06527 26.0391 6.58996 25.4071 6.58996 25.4071C6.58996 25.4071 6.45858 30.6115 9.39095 33.6598C12.3181 36.7055 16.8979 33.8445 16.8979 33.8445C16.8979 33.8445 13.8 37.4858 17.4813 40.5523C21.1599 43.6188 25.0093 39.9957 25.0093 39.9957C25.0093 39.9957 21.8562 45.866 27.114 45.9986C32.3691 46.1287 46.8812 36.8148 46.9548 33.8419C47.031 30.869 47.1072 27.8962 47.1072 27.8962L57 22.9336L51.3849 7.17455Z" transform="matrix(1 -5.2027442E-08 5.2027442E-08 1 149.0083 190.64496)" id="Fill-19" fill="#FDC68B" fill-rule="evenodd" stroke="none" />
    <path d="M34.5845 9.61956C25.6348 1.16016 15.0925 0.291119 10.8677 0.0101893C9.55288 -0.0738271 8.26188 0.364633 7.26188 1.21792L0 7.42201L3.91268 10.738L5.4312 10.7984C5.4312 10.7984 18.7909 5.84933 19.5184 6.99405C20.246 8.13877 31.4734 12.9225 36.8914 23.1908C42.3067 33.4645 38.3094 42 38.3094 42L44.0342 34.0762C44.73 33.1126 45.066 31.9443 44.9893 30.7602C44.7565 27.1475 43.8676 18.3966 34.5845 9.61956" transform="matrix(1 -5.2027442E-08 5.2027442E-08 1 109.001465 149.64471)" id="Fill-21" fill="#1F3038" fill-rule="evenodd" stroke="none" />
    <path d="M0 3.5985L14.6911 0C14.6911 0 32.4796 22.4257 63.8726 24.7118C95.2655 26.998 148 14.0554 148 14.0554C148 14.0554 111.988 46.9328 110.438 79.1723C108.888 111.412 132.199 167.542 132.199 167.542C132.199 167.542 112.494 172.894 91.6968 170.282C61.8382 166.531 50.145 154.98 50.145 154.98C50.145 154.98 55.7769 109.33 47.6341 75.3481C39.4965 41.3683 0 3.5985 0 3.5985" transform="matrix(1 -5.2027442E-08 5.2027442E-08 1 268.0044 111.64496)" id="Fill-23" fill="#C9A57F" fill-rule="evenodd" stroke="none" />
    <path d="M49.8426 18.8335C28.8126 17.3081 13.8754 6.8161 6.25825 0C5.23842 2.132 2.72041 7.38323 0 12.9574C12.2247 27.0937 28.6129 48.9756 33.5438 69.4869C35.4914 77.5869 36.6506 86.3512 37.2945 95C42.1361 86.1622 48.2445 73.0709 51.8717 57.9316C58.5847 29.9399 55.0915 19.3403 55.0915 19.3403L54.4213 19.0567C52.8547 19.0147 51.3224 18.9412 49.8426 18.8335" transform="matrix(1 -5.2027442E-08 5.2027442E-08 1 281.99756 117.644714)" id="Fill-25" fill="#AF9074" fill-rule="evenodd" stroke="none" />
    <path d="M6.98651 0L0 1.52077L8.16037 22L14 19.8883L6.98651 0Z" transform="matrix(1 -5.2027442E-08 5.2027442E-08 1 197.99854 194.64471)" id="Fill-27" fill="#F2EFED" fill-rule="evenodd" stroke="none" />
    <path d="M0 195.177C0 195.177 17.174 198.6 62.3774 191.486C107.581 184.372 124.343 174.304 124.343 174.304C124.343 174.304 108.271 96.7481 108.964 99.0138C109.659 101.277 145.602 164.346 145.602 164.346C145.602 164.346 158.334 165.412 197.106 145.403C235.878 125.395 261 81.0772 261 81.0772C261 81.0772 136.182 0.813176 133.952 0.00906913C131.721 -0.795038 61.3593 52.1346 60.5537 54.3609C59.7482 56.5899 17.9218 138.695 17.9218 138.695L0 195.177Z" transform="matrix(1 -5.2027442E-08 5.2027442E-08 1 371.00195 85.64484)" id="Fill-29" fill="#AF9074" fill-rule="evenodd" stroke="none" />
    <g id="Group-33" transform="matrix(1 -5.2027442E-08 5.2027442E-08 1 151.41846 0)">
      <path d="M0.100988 0.108667L69.0916 0L68.9906 65.0152L0 65.1239L0.100988 0.108667Z" transform="matrix(1 -2.6213076E-10 2.6213076E-10 1 -0.00048828125 6.1035156E-05)" id="Clip-32" fill="none" fill-rule="evenodd" stroke="none" />
      <g clip-path="url(#mask_4)">
        <path d="M3.23389 65.1242C3.23389 65.1242 -2.08677 24.7182 0.921274 19.1236C3.92683 13.529 21.1819 16.6344 21.1819 16.6344C21.1819 16.6344 27.331 3.32519 34.4078 0.217784C41.4871 -2.88951 69.0916 28.2817 69.0916 28.2817L3.23389 65.1242Z" transform="matrix(1 -2.6213076E-10 2.6213076E-10 1 -0.0009765625 -0.00030517578)" id="Fill-31" fill="#C9A57F" fill-rule="evenodd" stroke="none" />
      </g>
    </g>
    <g id="Group-36" transform="matrix(1 -5.2027442E-08 5.2027442E-08 1 152.66553 0.0020751953)">
      <path d="M0.127046 0.141126L62.118 0L61.991 56.9021L0 57.0433L0.127046 0.141126Z" transform="matrix(1 -2.6213076E-10 2.6213076E-10 1 0 -6.1035156E-05)" id="Clip-35" fill="none" fill-rule="evenodd" stroke="none" />
      <g clip-path="url(#mask_5)">
        <path d="M0 57.0442L0 57.0442L62.118 22.6667C53.4553 13.6059 37.4942 -2.00789 32.3559 0.213894C31.1515 0.73464 29.9732 1.55395 28.8514 2.54451C34.6565 5.1107 41.2526 13.9704 41.2526 13.9704L0 57.0442Z" transform="matrix(1 -2.6213076E-10 2.6213076E-10 1 0.00048828125 -0.0010375977)" id="Fill-34" fill="#AF9074" fill-rule="evenodd" stroke="none" />
      </g>
    </g>
    <path d="M55.8601 0C37.9917 5.50687 9.77419 31.8509 0 41.3525C0.292751 44.1674 0.553853 46.4931 0.727921 48C6.65151 43.2361 17.3382 35.6625 31.9389 29.4336C38.7117 26.5455 45.743 23.7672 52.3128 21.2819L68 12.5441C68 12.5441 62.5459 6.46959 55.8601 0" transform="matrix(1 -5.2027442E-08 5.2027442E-08 1 153.01953 15.64447)" id="Fill-37" fill="#703807" fill-rule="evenodd" stroke="none" />
    <path d="M30.5391 70.9943C30.5391 70.9943 6.88126 80.4055 0.83985 75.6657C-5.20156 70.9284 21.9585 43.6122 62.7459 19.4778C103.536 -4.6539 138.135 -3.6047 139.932 7.7573C141.732 19.1193 107.307 36.7897 107.307 36.7897L30.5391 70.9943Z" transform="matrix(1 -5.2027442E-08 5.2027442E-08 1 122.990234 21.644897)" id="Fill-39" fill="#C9A57F" fill-rule="evenodd" stroke="none" />
    <path d="M133.233 0C125.328 1.12405 112.727 3.94859 93.1786 10.5855C50.9985 24.902 30.8557 50.9936 23.4301 57.3344C17.4096 62.4778 7.31322 65.9102 6.14754 61.2542C0.761221 67.4666 -1.31489 71.9969 0.83753 73.6738C6.87642 78.3848 30.5373 69.0309 30.5373 69.0309L107.304 35.0368C107.304 35.0368 141.729 17.4713 139.932 6.17835C139.498 3.44552 137.127 1.32318 133.233 0" transform="matrix(1 -5.2027442E-08 5.2027442E-08 1 123.03369 23.644714)" id="Fill-41" fill="#AF9074" fill-rule="evenodd" stroke="none" />
    <path d="M58.0275 0L74 25.3405L65.45 31.5292L7.42255 45L0 13.4682L58.0275 0Z" transform="matrix(1 -5.2027442E-08 5.2027442E-08 1 216.99902 80.644714)" id="Fill-43" fill="#FDC68B" fill-rule="evenodd" stroke="none" />
    <path d="M55 27.8185C50.8132 19.0696 43.4661 8.37101 30.7387 0L0 7.21902L7.3941 39L55 27.8185Z" transform="matrix(1 -5.2027442E-08 5.2027442E-08 1 217.01953 86.64484)" id="Fill-45" fill="#F0A96E" fill-rule="evenodd" stroke="none" />
    <path d="M67.7199 9.36746C67.2432 9.77262 66.8556 10.2562 66.5387 10.792C61.1014 4.61796 59.7342 2.55819 57.3796 0.495804C51.408 -4.72943 -4.57849 32.864 0.30094 41.9814C7.17615 54.8366 25.2874 69.3282 39.9179 96.6777C54.5483 124.03 76.4704 108.213 83.5316 99.2132C90.5953 90.2135 95.5769 56.4102 88.7462 41.5788C87.9841 39.9216 87.0229 38.1494 85.9254 36.3039C87.366 36.2151 88.6467 35.7576 89.6577 34.8924C93.6597 31.4656 91.994 22.9755 85.9333 15.9258C79.8779 8.87866 71.7193 5.94061 67.7199 9.36746" transform="matrix(1 -5.2027442E-08 5.2027442E-08 1 158.99023 42.644775)" id="Fill-47" fill="#FDC68B" fill-rule="evenodd" stroke="none" />
    <path d="M80.2097 10.5313C80.2097 10.5313 81.4661 -3.53539 61.0089 0.84572C31.8118 7.10483 2.86375 30.8805 0.42693 41.832C-2.00989 52.7835 6.77996 63 6.77996 63C6.77996 63 6.05075 62.1473 7.50917 53.5106C8.97021 44.8713 21.65 25.155 42.3879 14.8051C63.1258 4.45524 72.7681 13.942 78.3867 23.9152L84 33.8911L80.2097 10.5313Z" transform="matrix(1 -5.2027442E-08 5.2027442E-08 1 150.99023 39.644897)" id="Fill-49" fill="#703807" fill-rule="evenodd" stroke="none" />
    <path d="M7.216 1.269C9.29011 3.68553 9.60217 6.81977 7.90737 8.26862C6.21526 9.72284 3.16194 8.94063 1.08783 6.52409C-0.986285 4.10755 0.248497 3.27426 1.9406 1.82273C3.63271 0.373883 5.14189 -1.14754 7.216 1.269" transform="matrix(1 -5.2027442E-08 5.2027442E-08 1 171.0083 90.64508)" id="Fill-51" fill="#703807" fill-rule="evenodd" stroke="none" />
    <path d="M7.23036 1.522C9.28778 3.85922 9.59732 6.89059 7.91617 8.29448C6.23768 9.69837 3.20893 8.94183 1.15151 6.60461C-0.905905 4.26739 0.100121 2.69711 1.77861 1.29322C3.45977 -0.108078 5.17294 -0.815224 7.23036 1.522" transform="matrix(1 -5.2027442E-08 5.2027442E-08 1 196.99023 71.64496)" id="Fill-53" fill="#703807" fill-rule="evenodd" stroke="none" />
    <path d="M0.0953332 6.46029C0.0953332 6.46029 2.74081 2.12851 8.63935 0.72617C13.9626 -0.537831 16.4548 0.0914567 17.4227 0.785844C18.3959 1.48023 19.6433 3.84549 18.6137 3.97297C17.5813 4.09774 14.3309 3.8482 10.8923 6.05613C7.45373 8.26678 4.64157 13 4.64157 13C4.64157 13 -0.778426 9.00456 0.0953332 6.46029" transform="matrix(1 -5.2027442E-08 5.2027442E-08 1 187.99023 63.64496)" id="Fill-55" fill="#703807" fill-rule="evenodd" stroke="none" />
    <path d="M0.220349 10.7199C-0.330818 9.05278 0.0937648 5.18728 2.15866 2.58849C4.22356 -0.0075805 6.26736 -0.53878 7.12708 0.496378C7.98416 1.52881 10.6662 5.05652 9.84599 5.269C9.03111 5.47876 7.92614 5.94458 5.65818 7.6989C3.38758 9.45322 2.85751 13 2.85751 13C2.85751 13 0.547357 11.7142 0.220349 10.7199" transform="matrix(1 -5.2027442E-08 5.2027442E-08 1 165.99854 81.64459)" id="Fill-57" fill="#703807" fill-rule="evenodd" stroke="none" />
    <path d="M15.9074 9.08795C15.9074 9.08795 9.01688 8.82598 6.74103 12.504C4.4678 16.1821 5.36451 18.3748 4.4914 22.823C3.61829 27.2686 0 27.6564 0 27.6564C0 27.6564 4.55432 32.3875 11.5051 28.4056C18.4559 24.421 19.038 13.3109 19.038 13.3109C19.038 13.3109 28.9017 19.9073 38.3512 14.5212C47.8007 9.13772 48 1.31792 48 1.31792C48 1.31792 41.0885 4.77331 33.325 2.05406C25.5587 -0.665186 23.9331 -0.256513 22.651 0.84114C21.3715 1.93879 15.9074 9.08795 15.9074 9.08795" transform="matrix(1 -5.2027442E-08 5.2027442E-08 1 181.00732 106.64484)" id="Fill-59" fill="#703807" fill-rule="evenodd" stroke="none" />
    <path d="M0.165046 0.183722C-1.24616 -1.58258 6.83764 9.79419 7.50064 16.8438C8.16364 23.8908 7.27964 28.3143 8.57901 30.6564C9.88104 32.9984 16.1995 36.195 20.9044 31.8417C26.5785 26.5897 30 15.622 30 15.622C30 15.622 24.1422 24.9537 19.2722 28.5514C15.0146 31.6959 11.0766 28.0695 10.5787 25.7873C10.0834 23.5078 10.7411 13.3867 0.165046 0.183722" transform="matrix(1 -5.2027442E-08 5.2027442E-08 1 177.99854 84.64484)" id="Fill-61" fill="#F0A96E" fill-rule="evenodd" stroke="none" />
    <path d="M0 23.8029L20.201 48.9084L11.6268 55.1762C11.6268 55.1762 5.83445 61.2779 48.2743 78.1749C90.7167 95.0745 208 50.5011 208 50.5011L178.804 0C178.804 0 94.3215 40.8686 0 23.8029" transform="matrix(1 -5.2027442E-08 5.2027442E-08 1 270.99023 56.64496)" id="Fill-63" fill="#F2EFED" fill-rule="evenodd" stroke="none" />
    <path d="M0 0L27.3273 22.778L13.5455 27.536L24.6384 39.1443L10.9123 41.6355L14.8382 44L31.9938 41.0253C31.9938 41.0253 16.9432 28.1859 18.65 28.2282C20.3568 28.2704 37 23.0184 37 23.0184L10.7955 0.834824L0 0Z" transform="matrix(1 -5.2027442E-08 5.2027442E-08 1 287.99756 82.644714)" id="Fill-65" fill="#E0DBD7" fill-rule="evenodd" stroke="none" />
    <path d="M0 3.69655L7.79434 11.8018C7.79434 11.8018 16.3863 13.1717 17.816 8.70865C19.2458 4.2456 11.8729 0 11.8729 0L0 3.69655Z" transform="matrix(1 -5.2027442E-08 5.2027442E-08 1 306.0205 107.644714)" id="Fill-67" fill="#1F3038" fill-rule="evenodd" stroke="none" />
    <path d="M50.7834 31.8788C50.7834 31.8788 86.4119 -10.7272 138.674 2.57191C190.938 15.8737 222.463 137.388 234.068 184.169C245.67 230.949 248 288 248 288L198.421 287.515L215.937 278.201C215.937 278.201 213.175 238.39 179.234 183.552C155.501 145.218 117.582 125.028 117.582 125.028C117.582 125.028 65.73 155.231 57.5118 183.521C49.2911 211.813 78.4276 278.526 78.4276 278.526L28.0811 278.773L47.0973 269.499C47.0973 269.499 13.011 231.83 1.77678 188.883C-11.2545 139.066 51.6688 86.6407 51.6688 86.6407L50.7834 31.8788Z" transform="matrix(1 -5.2027442E-08 5.2027442E-08 1 364.99805 39.64392)" id="Fill-69" fill="#1F3038" fill-rule="evenodd" stroke="none" />
    <path d="M0 54.2993L10.5677 51.9359C10.5677 51.9359 40.2472 65.8039 82.4106 60.8542C124.571 55.9046 148.334 36.2423 194.002 41.1316C254.45 47.6027 308.04 164 308.04 164L374 137.89C374 137.89 323.71 18.7046 253.492 3.60643C198.238 -8.27069 135.409 12.6664 109.04 16.5092C74.2341 21.5821 36.2679 14.694 31.7321 16.0816C27.1911 17.4692 16.2034 36.6987 16.2034 36.6987L0 54.2993Z" transform="matrix(1 -5.2027442E-08 5.2027442E-08 1 259.0078 29.64386)" id="Fill-71" fill="#C9A57F" fill-rule="evenodd" stroke="none" />
    <path d="M0 0C0 0 20.0409 2.75599 35.9127 23.4233C51.7871 44.0879 42.0375 76.8737 42.0375 76.8737L26.8922 87L21.3846 68.8472C21.3846 68.8472 33.8112 48.1406 26.8349 29.2004C19.8534 10.2575 0 0 0 0" transform="matrix(1 -5.2027442E-08 5.2027442E-08 1 319.99023 114.64484)" id="Fill-73" fill="#1F3038" fill-rule="evenodd" stroke="none" />
    <path d="M0 34.3375L18.4784 14.3662L26.3027 0.939985C26.3027 0.939985 31.6586 -3.46661 48.6382 6.80221C65.6204 17.0684 93.3302 17.7671 93.3302 17.7671L99.7368 31.5532C99.7368 31.5532 102.244 21.0198 110.574 17.4442C118.907 13.8713 175 18.3096 175 18.3096C175 18.3096 144.874 24.3624 118.438 32.7813C92.0017 41.1975 65.023 41.2742 49.2959 40.8772C33.5714 40.4802 15.4598 30.3729 15.4598 30.3729L0 34.3375Z" transform="matrix(1 -5.2027442E-08 5.2027442E-08 1 254.99023 50.644714)" id="Fill-75" fill="#AF9074" fill-rule="evenodd" stroke="none" />
    <path d="M0 5.64644L22.6907 0C22.6907 0 35.497 13.287 43.2469 33.7422C50.9943 54.1922 53 64 53 64C53 64 22.2286 17.4562 0 5.64644" transform="matrix(1 -5.2027442E-08 5.2027442E-08 1 260.0088 111.64496)" id="Fill-77" fill="#AF9074" fill-rule="evenodd" stroke="none" />
    <path d="M89.4022 10.602C89.4022 10.602 99.0819 -7.40962 128.173 3.52036C145.248 9.93437 147.91 83.3734 119.809 128.345C91.7081 173.313 9.75568 184 9.75568 184L0 154.558C0 154.558 36.8478 149.485 71.353 118.153C105.858 86.8187 96.2938 34.7317 89.4022 10.602" transform="matrix(1 -5.2027442E-08 5.2027442E-08 1 202.01855 34.644043)" id="Fill-79" fill="#C9A57F" fill-rule="evenodd" stroke="none" />
    <path d="M0 7.25798L6.23846 26.4309L15.785 32L22 21.5106L13.5865 0L0 7.25798Z" transform="matrix(1 -5.2027442E-08 5.2027442E-08 1 217.99023 177.64484)" id="Fill-81" fill="#AF9074" fill-rule="evenodd" stroke="none" />
    <path d="M0 4.43073L5.14539 0.0121184C5.14539 0.0121184 16.0728 -0.56307 25.419 6.21196C34.7679 12.987 37.0614 22.1423 36.9988 24.6975C36.9335 27.2554 33.4607 32 33.4607 32C33.4607 32 32.1039 18.89 21.9305 11.5238C11.7598 4.16036 0 4.43073 0 4.43073" transform="matrix(1 -5.2027442E-08 5.2027442E-08 1 113.01953 150.64471)" id="Fill-99" fill="#405964" fill-rule="evenodd" stroke="none" />
  </g>
</svg>