<?xml version="1.0" encoding="utf-8"?>
<svg width="1039px" height="596px" viewBox="0 0 1039 596" version="1.1" xmlns:xlink="http://www.w3.org/1999/xlink" xmlns="http://www.w3.org/2000/svg">
  <g id="download">
    <g id="Group" transform="translate(0 7.6293945E-06)">
      <g id="Group">
        <path d="M1179.61 227.131L1182.76 107.619L1182.76 49.6404C1179.65 47.3307 1172.36 42.0774 1167.47 39.9347C1117.67 18.1427 1055.57 24.0078 1002.83 40.712C950.079 57.4147 808.304 10.1867 787.743 7.2076C721.331 -2.41681 653.171 -1.14893 585.962 3.74234C392.101 17.8561 198.973 58.0102 28.46 133.497C12.633 140.504 2.38818 145.339 0 146.476L0 227.131L1179.61 227.131Z" transform="translate(0 368.7595)" id="Path" fill="#83AB00" stroke="none" />
        <path d="M1182.76 159.802L1182.76 91.9166C1113.95 109.982 1025.72 131.339 952.309 142.67C878.339 154.087 800.96 156.344 730.319 131.624C637.711 99.218 562.724 22.7385 466.319 4.46201C416.67 -4.94961 365.46 2.07253 315.771 11.2669C203.769 31.992 105.612 61.5952 0 103.648L0 159.802C0 159.802 1182.76 159.802 1182.76 159.802Z" transform="translate(0 436.08896)" id="Path" fill="#D9E021" stroke="none" />
        <path d="M3.00678 332.791C2.84116 332.791 2.67406 332.782 2.50548 332.762C1.01047 332.604 0.0270994 331.549 0.000481894 330.073C-0.0276144 328.452 1.17609 326.395 2.77018 326.169C3.57018 326.061 4.6408 326.408 5.11548 327.731C5.57981 326.806 5.85042 325.825 5.93766 325.482C35.0779 210.607 129.882 46.1005 162.693 0L165.266 1.82794C132.553 47.7881 38.0354 211.783 8.99868 326.255C7.94728 330.391 5.73064 332.791 3.00678 332.791ZM3.54524 329.172C3.45356 329.247 3.34561 329.421 3.26724 329.599C3.95338 329.452 4.50495 328.818 4.9264 328.083L2.16113 328.827C2.23211 328.953 2.44062 329.179 2.78369 329.266C3.15337 329.364 3.45504 329.244 3.54524 329.172Z" transform="translate(89.873535 260.93967)" id="Shape" fill="#D9E021" stroke="none" />
        <path d="M3.10981 378.773L0 378.236C21.6223 252.931 21.6947 125.853 0.21294 0.53198L3.32423 0C24.8667 125.676 24.7942 253.115 3.10981 378.773Z" transform="translate(139.00537 215.45981)" id="Path" fill="#D9E021" stroke="none" />
        <path d="M138.525 223.894C104.525 163.113 69.2262 101.933 33.6061 42.0575C25.1905 27.9112 14.1975 15.3476 0 3.64998L3.01074 0C17.6371 12.0494 28.9761 25.0149 37.6741 39.6384C71.3645 96.2677 104.768 154.06 137.054 211.583L137.686 211.279L142.725 221.713L138.525 223.894Z" transform="translate(852.7212 370.8586)" id="Path" fill="#D9E021" stroke="none" />
        <path d="M91.1797 142.897C90.501 142.897 89.8119 142.693 89.1834 142.283C87.8806 141.436 86.7745 139.611 87.2877 137.9C87.6026 136.852 88.4485 136.11 89.5294 135.885C69.7512 91.7415 39.0982 52.7118 9.45217 14.9679C6.29504 10.9484 3.13939 6.93052 0 2.91111L3.73236 0C6.86879 4.01645 10.0215 8.02995 13.1757 12.0464C43.0745 50.114 73.9922 89.4776 94.0041 134.295C95.9398 138.631 94.7258 140.923 93.3668 142.083C92.7324 142.622 91.9635 142.897 91.1797 142.897ZM90.2408 137.897L90.229 140.543C90.7155 140.583 91.3188 140.254 91.6723 139.609C92.002 139.011 91.8852 138.466 91.8068 138.344C91.6309 138.163 90.8471 138.007 90.2941 138.479C90.2926 138.482 90.2911 138.483 90.2911 138.483C90.2793 138.486 90.3148 138.31 90.2408 137.897Z" transform="translate(935.86816 439.6259)" id="Shape" fill="#D9E021" stroke="none" />
        <path d="M115.983 109.315C91.2344 73.926 53.8679 45.2316 20.9021 19.9153C13.6222 14.325 6.74754 9.04514 0 3.70761L2.93828 0C9.66067 5.31537 16.5236 10.5849 23.7887 16.1648C57.0265 41.6895 94.6977 70.6204 119.865 106.604L115.983 109.315Z" transform="translate(1006.95166 467.88144)" id="Path" fill="#D9E021" stroke="none" />
        <g id="Group" transform="translate(706.14014 437.52164)" opacity="0.27">
          <path d="M11.8758 11.8676L0 0L0 154.592L11.8758 154.592L11.8758 11.8676Z" id="Path" fill="none" fill-rule="evenodd" stroke="none" />
          <path d="M14.1561 25.7434L14.1561 14.1462L0 0L0 25.7434L14.1561 25.7434Z" transform="translate(128.93945 128.84857)" id="Path" fill="none" fill-rule="evenodd" stroke="none" />
          <path d="M14.1561 78.1937L14.1561 14.1448L0 0L0 78.1937L14.1561 78.1937Z" transform="translate(76.45117 76.398254)" id="Path" fill="none" fill-rule="evenodd" stroke="none" />
          <path d="M14.1576 51.97L14.1576 14.1477L0 0L0 51.97L14.1576 51.97Z" transform="translate(102.694824 102.62195)" id="Path" fill="none" fill-rule="evenodd" stroke="none" />
          <path d="M14.1561 130.647L14.1561 14.1477L0 0L0 130.647L14.1561 130.647Z" transform="translate(23.96289 23.945007)" id="Path" fill="none" fill-rule="evenodd" stroke="none" />
          <path d="M14.1576 104.42L14.1576 14.1477L0 0L0 104.42L14.1576 104.42Z" transform="translate(50.206543 50.17163)" id="Path" fill="none" fill-rule="evenodd" stroke="none" />
          <path d="M11.6038 11.5972L0 0L0 11.5972L11.6038 11.5972Z" transform="translate(143.0957 142.99481)" id="Path" fill="#D9E021" stroke="none" />
          <path d="M12.0873 37.8223L12.0873 12.0789L0 0L0 37.8223L12.0873 37.8223Z" transform="translate(116.85205 116.76965)" id="Path" fill="#D9E021" stroke="none" />
          <path d="M12.0873 64.0489L12.0873 12.0789L0 0L0 64.0489L12.0873 64.0489Z" transform="translate(90.60742 90.54303)" id="Path" fill="#D9E021" stroke="none" />
          <path d="M12.0873 90.2726L12.0873 12.0789L0 0L0 90.2726L12.0873 90.2726Z" transform="translate(64.36426 64.319336)" id="Path" fill="#D9E021" stroke="none" />
          <path d="M12.0873 116.499L12.0873 12.0789L0 0L0 116.499L12.0873 116.499Z" transform="translate(38.11914 38.092712)" id="Path" fill="#D9E021" stroke="none" />
          <path d="M12.0873 142.724L12.0873 12.0774L0 0L0 142.724L12.0873 142.724Z" transform="translate(11.875977 11.867615)" id="Path" fill="#D9E021" stroke="none" />
        </g>
        <path d="M110.637 228.544C110.414 227.616 109.466 227.053 108.54 227.277C107.612 227.5 107.048 228.448 107.275 229.376C107.498 230.304 108.446 230.867 109.371 230.642L109.371 230.642C110.3 230.416 110.872 229.48 110.637 228.544L110.637 228.544ZM3.21487 87.1077C3.72652 86.2713 3.46034 85.1793 2.62337 84.671L2.62337 84.671C1.87364 84.1818 0.868094 84.3932 0.380107 85.1409C0.337223 85.1985 0.297297 85.2709 0.272158 85.3419C-0.236532 86.1339 -0.0117621 87.1801 0.776412 87.6988C1.61043 88.1894 2.7047 87.9397 3.21487 87.1077L3.21487 87.1077L3.21487 87.1077ZM53.0101 162.235C53.7435 161.598 53.8884 160.515 53.3487 159.708C52.7542 158.918 51.6171 158.763 50.82 159.37C50.0289 159.964 49.8736 161.1 50.4814 161.897C51.1261 162.622 52.2012 162.775 53.0101 162.235ZM273.671 92.726C275.188 91.6975 275.605 89.6435 274.606 88.1022C273.695 86.5846 271.729 86.0896 270.217 86.9895C270.162 87.0235 270.113 87.0471 270.069 87.0856C268.552 88.1141 268.135 90.1681 269.134 91.7094C270.1 93.2388 272.136 93.6999 273.671 92.726L273.671 92.726ZM206.312 136.523C207.84 135.482 208.224 133.409 207.179 131.89C206.16 130.396 204.131 129.984 202.616 130.971C201.079 131.943 200.625 133.969 201.6 135.505L201.6 135.505C202.679 137.022 204.729 137.46 206.312 136.523ZM138.8 180.327C140.327 179.347 140.771 177.333 139.792 175.807C139.771 175.777 139.749 175.746 139.729 175.715C138.818 174.197 136.852 173.702 135.34 174.602C135.285 174.636 135.236 174.66 135.192 174.698C133.676 175.761 133.234 177.81 134.174 179.409C135.205 180.911 137.262 181.326 138.8 180.327ZM302.997 261.987C302.608 260.207 300.853 259.079 299.065 259.477C297.285 259.862 296.157 261.621 296.553 263.406C296.936 265.15 298.639 266.271 300.395 265.937C302.183 265.541 303.337 263.79 302.997 261.987L302.997 261.987ZM223.904 276.683C223.515 274.903 221.759 273.775 219.972 274.173C218.191 274.558 217.063 276.317 217.459 278.102C217.842 279.846 219.546 280.967 221.301 280.633C223.083 280.246 224.244 278.485 223.904 276.683L223.904 276.683ZM136.904 5.20939C137.91 3.67404 137.509 1.61557 135.979 0.585595C134.509 -0.445855 132.487 -0.0764245 131.455 1.39243C131.448 1.4013 131.442 1.41016 131.434 1.41903C130.347 2.80514 130.596 4.80449 131.981 5.8921C132.048 5.94234 132.113 5.99111 132.191 6.05021C133.747 7.02994 135.786 6.67381 136.904 5.20939ZM91.3129 71.4897C92.3007 69.941 91.9354 67.8959 90.4789 66.7846C88.9425 65.7798 86.8781 66.1906 85.8519 67.7097C84.8227 69.214 85.2071 71.2739 86.7125 72.298C86.7302 72.3113 86.7509 72.3276 86.7613 72.3335C88.2312 73.3649 90.2526 72.9955 91.2774 71.5355C91.2996 71.5074 91.3055 71.4986 91.3129 71.4897ZM45.8089 137.674C46.8396 136.248 46.5335 134.259 45.1065 133.233C45.068 133.204 45.0222 133.17 44.9763 133.151C43.5139 132.064 41.4451 132.384 40.3597 133.845C40.3242 133.894 40.2946 133.932 40.2606 133.977C39.227 135.506 39.6336 137.581 41.1508 138.606C42.6813 139.639 44.7575 139.233 45.7837 137.717C45.7956 137.693 45.8015 137.683 45.8089 137.674ZM315.351 339.841C315.2 338.225 313.779 337.025 312.157 337.143C310.536 337.277 309.326 338.706 309.456 340.335C309.585 341.963 311.021 343.163 312.65 343.033L312.65 343.033C314.268 342.878 315.47 341.462 315.351 339.841ZM174.852 74.3594C175.872 73.0413 175.692 71.1676 174.434 70.0711C173.227 69.0455 171.42 69.1904 170.392 70.3947C170.363 70.4331 170.342 70.4612 170.314 70.4996C169.237 71.7291 169.367 73.5969 170.605 74.6594C170.623 74.6727 170.632 74.6801 170.654 74.6949C171.914 75.6909 173.747 75.5534 174.852 74.3594L174.852 74.3594ZM128.764 129.199C129.784 127.943 129.592 126.102 128.35 125.079C127.143 124.054 125.336 124.199 124.308 125.403C124.279 125.441 124.258 125.469 124.23 125.508C123.153 126.737 123.283 128.605 124.511 129.678C124.529 129.691 124.537 129.699 124.56 129.713C125.865 130.693 127.729 130.474 128.764 129.199L128.764 129.199ZM82.5999 184.293C83.6764 183.064 83.5463 181.196 82.3189 180.123C82.3012 180.11 82.2923 180.102 82.2701 180.088C81.1286 179.05 79.3585 179.148 78.3219 180.289C78.2568 180.357 78.1977 180.433 78.1415 180.509C77.0649 181.738 77.1951 183.606 78.4224 184.679C78.4402 184.692 78.4491 184.7 78.4712 184.714C79.7385 185.684 81.5559 185.505 82.5999 184.293L82.5999 184.293ZM241.472 216.855C242.895 216.051 243.426 214.26 242.651 212.818C241.903 211.377 240.142 210.814 238.701 211.557C237.264 212.336 236.667 214.103 237.35 215.585C238.145 217.059 239.973 217.616 241.472 216.855L241.472 216.855ZM177.745 249.976C179.163 249.3 179.772 247.603 179.095 246.186C179.069 246.139 179.04 246.084 179.021 246.028C178.272 244.587 176.511 244.024 175.071 244.767C173.634 245.546 173.036 247.314 173.719 248.796C174.506 250.22 176.298 250.749 177.745 249.976L177.745 249.976ZM33.7319 37.0292C34.2288 35.5574 33.4451 33.9703 31.9781 33.4649C31.916 33.4472 31.8628 33.4206 31.8096 33.4132C30.2731 32.8827 28.5859 33.6999 28.0506 35.2411C28.0387 35.2751 28.0254 35.3121 28.021 35.3372C27.5981 36.908 28.4824 38.5394 30.0395 39.0433C31.57 39.5398 33.2099 38.6901 33.7068 37.1592C33.7127 37.1193 33.7142 37.0735 33.7319 37.0292L33.7319 37.0292ZM12.1909 105.519C12.6744 103.946 11.8242 102.266 10.2611 101.733C8.66851 101.276 6.99604 102.194 6.54206 103.788C6.1014 105.303 6.92358 106.902 8.40972 107.438C9.92249 107.981 11.6038 107.191 12.1465 105.678C12.1628 105.634 12.182 105.572 12.1909 105.519L12.1909 105.519ZM377.065 295.115C378.696 294.153 379.298 292.093 378.421 290.405C377.531 288.74 375.47 288.096 373.8 288.969C372.148 289.915 371.544 292.003 372.444 293.679C373.334 295.344 375.396 295.988 377.065 295.115L377.065 295.115ZM303.913 334.109C305.588 333.227 306.224 331.16 305.35 329.491C304.476 327.823 302.398 327.182 300.729 328.055C299.053 328.937 298.418 331.004 299.292 332.673C300.176 334.349 302.245 334.982 303.913 334.109L303.913 334.109ZM108.984 71.8473C109.487 69.9942 108.459 68.0747 106.631 67.4762C104.786 66.9812 102.884 68.0821 102.398 69.9336C101.92 71.7158 102.935 73.5511 104.687 74.1112C106.494 74.618 108.387 73.628 108.984 71.8473L108.984 71.8473ZM84.9099 151.095C85.4186 149.29 84.4293 147.4 82.646 146.805C80.8345 146.245 78.9121 147.257 78.3531 149.067C77.7927 150.877 78.8056 152.798 80.6171 153.357C82.4227 153.883 84.3273 152.874 84.9099 151.095L84.9099 151.095ZM245.036 190.625C246.156 189.118 245.934 187 244.542 185.746C243.046 184.606 240.918 184.867 239.741 186.329C238.53 187.739 238.685 189.866 240.107 191.082C240.125 191.095 240.146 191.111 240.165 191.125C241.635 192.338 243.812 192.115 245.036 190.625C245.029 190.634 245.036 190.625 245.036 190.625L245.036 190.625ZM192.381 254.702C193.59 253.216 193.369 251.039 191.896 249.829C191.896 249.829 191.896 249.829 191.887 249.821C190.456 248.655 188.338 248.877 187.183 250.315L187.183 250.315C185.987 251.764 186.186 253.91 187.631 255.1C189.045 256.304 191.168 256.112 192.381 254.702L192.381 254.702ZM296.569 214.646C297.776 213.218 297.592 211.071 296.155 209.858C294.718 208.64 292.578 208.835 291.361 210.27C290.19 211.668 290.323 213.746 291.676 214.971C293.133 216.227 295.311 216.08 296.569 214.646L296.569 214.646ZM241.567 276.203C242.817 274.762 242.67 272.584 241.234 271.327C239.827 270.133 237.715 270.245 236.436 271.57C235.2 273.036 235.311 275.201 236.678 276.53C238.139 277.747 240.285 277.588 241.567 276.203L241.567 276.203ZM131.161 165.103C131.745 163.298 130.775 161.347 128.978 160.725C127.211 160.125 125.287 161.059 124.687 162.823C124.011 164.533 124.845 166.469 126.554 167.146C126.6 167.166 126.643 167.184 126.698 167.193C128.466 167.87 130.449 166.979 131.115 165.202C131.138 165.176 131.149 165.142 131.161 165.103L131.161 165.103Z" transform="translate(311.01514 131.6651)" id="texture-2_12_gS5PXifxC_4sDEWaX2O6s" fill="#A1C3FC" stroke="none" />
        <path d="M33.2276 228.544C33.0043 227.616 32.0564 227.053 31.1307 227.277C30.202 227.5 29.6386 228.448 29.8649 229.376C30.0882 230.304 31.0361 230.867 31.9618 230.642L31.9618 230.642C32.8875 230.417 33.4597 229.48 33.2276 228.544L33.2276 228.544ZM196.259 92.726C197.777 91.6975 198.194 89.6435 197.194 88.1022C196.283 86.5846 194.318 86.0896 192.805 86.9895C192.75 87.0235 192.701 87.0471 192.657 87.0856C191.14 88.1141 190.723 90.1681 191.723 91.7094C192.688 93.2403 194.726 93.7013 196.259 92.726L196.259 92.726ZM128.901 136.524C130.428 135.484 130.813 133.411 129.767 131.892C128.749 130.398 126.72 129.985 125.204 130.972C123.668 131.945 123.214 133.971 124.188 135.506L124.188 135.506C125.268 137.022 127.317 137.461 128.901 136.524ZM61.3887 180.327C62.9148 179.347 63.3599 177.333 62.381 175.807C62.3603 175.777 62.3381 175.746 62.3174 175.715C61.4065 174.197 59.4412 173.702 57.9285 174.602C57.8738 174.636 57.825 174.66 57.7806 174.698C56.2649 175.761 55.8227 177.81 56.7632 179.409C57.7939 180.912 59.8508 181.326 61.3887 180.327ZM225.586 261.99C225.197 260.21 223.442 259.082 221.654 259.48C219.874 259.865 218.745 261.624 219.142 263.409C219.525 265.153 221.228 266.274 222.984 265.94C224.771 265.543 225.926 263.792 225.586 261.99L225.586 261.99ZM146.492 276.685C146.103 274.904 144.348 273.777 142.56 274.174C140.78 274.56 139.653 276.318 140.048 278.103C140.431 279.847 142.134 280.969 143.889 280.635C145.671 280.246 146.832 278.486 146.492 276.685L146.492 276.685ZM59.4946 5.20939C60.5001 3.67404 60.0994 1.61557 58.5689 0.585595C57.099 -0.445855 55.0775 -0.0764245 54.0454 1.39243C54.038 1.4013 54.0321 1.41016 54.0247 1.41903C52.9378 2.80514 53.1862 4.80449 54.5718 5.8921C54.6384 5.94234 54.7034 5.99111 54.7818 6.05021C56.336 7.02994 58.3752 6.67529 59.4946 5.20939ZM13.9032 71.4912C14.891 69.9425 14.5258 67.8974 13.0692 66.7861C11.5328 65.7813 9.46845 66.1921 8.4422 67.7112C7.41299 69.2155 7.79746 71.2754 9.30283 72.2995C9.32057 72.3128 9.34128 72.329 9.35163 72.335C10.8215 73.3664 12.843 72.997 13.8677 71.537C13.8884 71.5089 13.8958 71.5 13.9032 71.4912ZM237.941 339.843C237.79 338.226 236.369 337.026 234.747 337.144C233.126 337.279 231.917 338.708 232.046 340.336C232.174 341.965 233.61 343.165 235.24 343.035L235.24 343.035C236.857 342.879 238.06 341.462 237.941 339.843ZM97.4405 74.3609C98.4608 73.0428 98.2804 71.169 97.022 70.0725C95.8154 69.047 94.0083 69.1918 92.9806 70.3962C92.951 70.4346 92.9303 70.4627 92.9022 70.5011C91.8257 71.7306 91.9558 73.5984 93.1935 74.6609C93.2113 74.6742 93.2202 74.6816 93.2423 74.6963C94.5022 75.6923 96.3359 75.5534 97.4405 74.3609L97.4405 74.3609ZM51.3511 129.201C52.3714 127.945 52.1792 126.103 50.9371 125.081C49.7304 124.055 47.9234 124.2 46.8956 125.404C46.8661 125.443 46.8454 125.471 46.8173 125.509C45.7407 126.739 45.8709 128.607 47.0982 129.679C47.116 129.693 47.1248 129.7 47.147 129.715C48.4542 130.696 50.3175 130.474 51.3511 129.201L51.3511 129.201ZM5.18878 184.295C6.26531 183.065 6.13518 181.197 4.90781 180.124C4.89007 180.111 4.8812 180.104 4.85902 180.089C3.71742 179.052 1.94736 179.149 0.910753 180.29C0.845688 180.359 0.786538 180.435 0.730346 180.51C-0.346184 181.74 -0.216054 183.607 1.01131 184.68C1.02905 184.694 1.03793 184.701 1.06011 184.716C2.3274 185.684 4.14478 185.505 5.18878 184.295L5.18878 184.295ZM164.06 216.856C165.482 216.052 166.013 214.261 165.238 212.819C164.49 211.378 162.729 210.815 161.289 211.559C159.851 212.337 159.254 214.105 159.937 215.587C160.734 217.06 162.562 217.617 164.06 216.856L164.06 216.856ZM100.333 249.978C101.751 249.301 102.36 247.605 101.683 246.188C101.658 246.14 101.628 246.086 101.609 246.029C100.861 244.589 99.0996 244.026 97.6593 244.769C96.222 245.548 95.6246 247.315 96.3077 248.797C97.0959 250.22 98.8867 250.751 100.333 249.978L100.333 249.978ZM299.654 295.116C301.285 294.154 301.886 292.094 301.01 290.407C300.119 288.742 298.058 288.097 296.388 288.971C294.737 289.916 294.132 292.004 295.032 293.68C295.923 295.344 297.984 295.988 299.654 295.116L299.654 295.116ZM226.502 334.109C228.177 333.227 228.813 331.16 227.939 329.491C227.065 327.823 224.987 327.182 223.318 328.055C221.642 328.937 221.006 331.004 221.88 332.673C222.765 334.348 224.833 334.984 226.502 334.109L226.502 334.109ZM31.574 71.8473C32.0767 69.9942 31.049 68.0747 29.2213 67.4762C27.3758 66.9811 25.4741 68.0821 24.9876 69.9336C24.51 71.7158 25.5244 73.5511 27.2767 74.1112C29.0823 74.6195 30.9751 73.6294 31.574 71.8473L31.574 71.8473ZM7.49879 151.096C8.00748 149.292 7.0182 147.402 5.23483 146.806C3.42336 146.246 1.50098 147.258 0.942016 149.069C0.38157 150.879 1.39451 152.8 3.20598 153.358C5.01154 153.883 6.91617 152.874 7.49879 151.096L7.49879 151.096ZM167.625 190.627C168.744 189.119 168.523 187.002 167.131 185.747C165.635 184.608 163.507 184.868 162.33 186.332C161.118 187.742 161.274 189.869 162.696 191.085C162.714 191.098 162.735 191.114 162.754 191.128C164.225 192.339 166.401 192.115 167.625 190.627C167.619 190.636 167.625 190.627 167.625 190.627L167.625 190.627ZM114.97 254.704C116.179 253.217 115.957 251.039 114.485 249.83C114.485 249.83 114.485 249.83 114.476 249.823C113.044 248.657 110.927 248.878 109.772 250.316L109.772 250.316C108.577 251.766 108.775 253.912 110.22 255.101C111.634 256.306 113.759 256.113 114.97 254.704L114.97 254.704ZM219.158 214.647C220.365 213.22 220.181 211.072 218.744 209.859C217.307 208.642 215.167 208.837 213.95 210.272C212.779 211.669 212.912 213.747 214.265 214.972C215.72 216.228 217.898 216.082 219.158 214.647L219.158 214.647ZM164.156 276.205C165.406 274.764 165.259 272.586 163.823 271.328C162.416 270.134 160.304 270.246 159.025 271.572C157.789 273.038 157.899 275.203 159.267 276.531C160.73 277.747 162.874 277.589 164.156 276.205L164.156 276.205ZM53.7495 165.103C54.3336 163.298 53.3636 161.346 51.5669 160.725C49.7998 160.125 47.8759 161.059 47.2755 162.823C46.5998 164.533 47.4338 166.469 49.1432 167.146C49.189 167.166 49.2319 167.184 49.2866 167.193C51.0552 167.87 53.0382 166.979 53.7037 165.202C53.7273 165.177 53.7392 165.142 53.7495 165.103L53.7495 165.103Z" transform="translate(1.9121094 0)" id="texture-2_11_gS5PXifxC_4sDEWaX2O6s" fill="#A1C3FC" stroke="none" />
        <g id="Group" transform="translate(248.51465 331.8674)" opacity="0.26">
          <path d="M23.9765 221.268L23.9765 23.9613L0 0L0 221.268L23.9765 221.268Z" transform="translate(40.583984 40.554626)" id="Path" fill="none" fill-rule="evenodd" stroke="none" />
          <path d="M23.9779 176.851L23.9779 23.9598L0 0L0 176.851L23.9779 176.851Z" transform="translate(85.03076 84.971985)" id="Path" fill="none" fill-rule="evenodd" stroke="none" />
          <path d="M23.9765 88.0176L23.9765 23.9613L0 0L0 88.0176L23.9765 88.0176Z" transform="translate(173.92725 173.8053)" id="Path" fill="none" fill-rule="evenodd" stroke="none" />
          <path d="M20.1125 20.0985L0 0L0 261.823L20.1125 261.823L20.1125 20.0985Z" id="Path" fill="none" fill-rule="evenodd" stroke="none" />
          <path d="M23.9765 43.5987L23.9765 23.9583L0 0L0 43.5987L23.9765 43.5987Z" transform="translate(218.37549 218.22418)" id="Path" fill="none" fill-rule="evenodd" stroke="none" />
          <path d="M23.9765 132.434L23.9765 23.9598L0 0L0 132.434L23.9765 132.434Z" transform="translate(129.479 129.3894)" id="Path" fill="none" fill-rule="evenodd" stroke="none" />
          <path d="M19.6541 19.6404L0 0L0 19.6404L19.6541 19.6404Z" transform="translate(242.35205 242.1825)" id="Path" fill="#FFFFFF" stroke="none" />
          <path d="M20.4718 64.0563L20.4718 20.4576L0 0L0 64.0563L20.4718 64.0563Z" transform="translate(197.90381 197.7666)" id="Path" fill="#FFFFFF" stroke="none" />
          <path d="M20.4718 108.474L20.4718 20.4561L0 0L0 108.474L20.4718 108.474Z" transform="translate(153.45557 153.34918)" id="Path" fill="#FFFFFF" stroke="none" />
          <path d="M20.4703 152.891L20.4703 20.4576L0 0L0 152.891L20.4703 152.891Z" transform="translate(109.00879 108.93182)" id="Path" fill="#FFFFFF" stroke="none" />
          <path d="M20.4703 197.307L20.4703 20.4561L0 0L0 197.307L20.4703 197.307Z" transform="translate(64.56055 64.51587)" id="Path" fill="#FFFFFF" stroke="none" />
          <path d="M20.4718 241.724L20.4718 20.4561L0 0L0 241.724L20.4718 241.724Z" transform="translate(20.112305 20.09851)" id="Path" fill="#FFFFFF" stroke="none" />
        </g>
        <g id="Group" transform="translate(442.45117 487.93124)" opacity="0.26">
          <path d="M0 0L88.7694 88.7077L98.3827 79.1025L19.2252 0L0 0Z" transform="translate(32.54004 0)" id="Path" fill="none" fill-rule="evenodd" stroke="none" />
          <path d="M0 0L35.3111 35.2865L44.9244 25.6799L19.2252 0L0 0Z" transform="translate(139.45654 0)" id="Path" fill="none" fill-rule="evenodd" stroke="none" />
          <path d="M0 0L53.13 53.0931L62.7434 43.4879L19.2237 0L0 0Z" transform="translate(103.81836 0)" id="Path" fill="none" fill-rule="evenodd" stroke="none" />
          <path d="M0 0L105.04 104.967L113.104 96.9105L16.1258 0L0 0Z" id="Path" fill="none" fill-rule="evenodd" stroke="none" />
          <path d="M0 0L17.4921 17.48L27.104 7.87331L19.2252 0L0 0Z" transform="translate(175.0957 0)" id="Path" fill="none" fill-rule="evenodd" stroke="none" />
          <path d="M0 0L70.9489 70.9011L80.5623 61.2959L19.2252 0L0 0Z" transform="translate(68.1792 0)" id="Path" fill="none" fill-rule="evenodd" stroke="none" />
          <path d="M7.87878 7.87331L15.759 0L0 0L7.87878 7.87331Z" transform="translate(194.3208 0)" id="Path" fill="#FFFFFF" stroke="none" />
          <path d="M0 0L25.6992 25.6799L33.9063 17.48L16.4141 0L0 0Z" transform="translate(158.68164 0)" id="Path" fill="#FFFFFF" stroke="none" />
          <path d="M0 0L43.5196 43.4879L51.7252 35.2865L16.4141 0L0 0Z" transform="translate(123.04248 0)" id="Path" fill="#FFFFFF" stroke="none" />
          <path d="M0 0L61.3371 61.2959L69.5441 53.0931L16.4141 0L0 0Z" transform="translate(87.4043 0)" id="Path" fill="#FFFFFF" stroke="none" />
          <path d="M0 0L79.1575 79.1025L87.3631 70.9011L16.4141 0L0 0Z" transform="translate(51.765137 0)" id="Path" fill="#FFFFFF" stroke="none" />
          <path d="M0 0L96.9779 96.9105L105.183 88.7077L16.4141 0L0 0Z" transform="translate(16.125488 0)" id="Path" fill="#FFFFFF" stroke="none" />
        </g>
        <g id="Group" transform="translate(73.10986 203.12964)">
          <path d="M21.7879 14.9752L0 0C4.33422 5.8636 11.9365 11.0149 21.7879 14.9752Z" transform="translate(4.0546875 46.00891)" id="Path" fill="#D9E021" stroke="none" />
          <path d="M0.30758 3.00864L40.7662 30.8194C42.6782 31.2716 44.6375 31.6853 46.6398 32.0607L0 0C0.0103512 1.01372 0.115342 2.01709 0.30758 3.00864Z" transform="translate(0 34.829926)" id="Path" fill="#D9E021" stroke="none" />
          <path d="M0 2.22545L56.2694 40.9048C57.825 41.0777 59.397 41.2255 60.9881 41.3511L0.832536 0C0.504254 0.734428 0.227728 1.47625 0 2.22545Z" transform="translate(0.7421875 27.519653)" id="Path" fill="#D9E021" stroke="none" />
          <path d="M0 1.81021L66.6147 47.6004C67.8229 47.627 69.0369 47.6418 70.2598 47.6418C70.421 47.6418 70.5793 47.6388 70.7404 47.6388L1.43734 0C0.924219 0.597 0.442146 1.19843 0 1.81021Z" transform="translate(3.9038086 21.716644)" id="Path" fill="#D9E021" stroke="none" />
          <path d="M0 1.52944L73.8222 52.2744C75.0732 52.2094 76.3139 52.1296 77.5442 52.0351L1.84548 0C1.20222 0.502426 0.587064 1.01224 0 1.52944Z" transform="translate(8.648926 16.86673)" id="Path" fill="#D9E021" stroke="none" />
          <path d="M0 1.30631L78.773 55.4545C79.9161 55.3126 81.0473 55.1575 82.1682 54.9905L2.1708 0C1.42699 0.42854 0.702406 0.86299 0 1.30631Z" transform="translate(14.522461 12.736511)" id="Path" fill="#D9E021" stroke="none" />
          <path d="M0 1.11273L81.868 57.3874C82.9165 57.1775 83.9546 56.9588 84.9793 56.7283L2.45325 0C1.61775 0.36352 0.800004 0.734428 0 1.11273Z" transform="translate(21.321777 9.212128)" id="Path" fill="#D9E021" stroke="none" />
          <path d="M0 0.933921L83.3113 58.2016C84.2754 57.9312 85.2233 57.6504 86.1579 57.3608L2.71203 0C1.79225 0.304411 0.888729 0.614733 0 0.933921Z" transform="translate(28.94043 6.2359924)" id="Path" fill="#D9E021" stroke="none" />
          <path d="M0 0.755116L83.2019 57.9474C84.0817 57.6179 84.9453 57.278 85.7912 56.9307L2.97229 0C1.96674 0.240869 0.975975 0.493559 0 0.755116Z" transform="translate(37.333984 3.793335)" id="Path" fill="#D9E021" stroke="none" />
          <path d="M0 0.568923L81.525 56.6086C82.3176 56.217 83.0924 55.8165 83.8466 55.4072L3.2429 0C2.1501 0.178804 1.06914 0.367953 0 0.568923Z" transform="translate(46.51367 1.8988953)" id="Path" fill="#D9E021" stroke="none" />
          <path d="M0 0.360564L78.18 54.1024C78.878 53.6413 79.5523 53.1729 80.203 52.6956L3.54309 0C2.35269 0.106396 1.17117 0.227569 0 0.360564Z" transform="translate(56.53369 0.6029358)" id="Path" fill="#D9E021" stroke="none" />
          <path d="M0 0.115262L72.9334 50.2485C73.5175 49.7062 74.0721 49.1535 74.597 48.5949L3.90242 0C2.59225 0.0236436 1.29243 0.0620644 0 0.115262Z" transform="translate(67.50781 0)" id="Path" fill="#D9E021" stroke="none" />
          <path d="M0 0L65.3445 44.9183C65.7792 44.2637 66.1696 43.6002 66.5216 42.9308L4.37562 0.212792C2.93088 0.121173 1.47283 0.0502426 0 0Z" transform="translate(79.64844 0.06945801)" id="Path" fill="#D9E021" stroke="none" />
          <path d="M0 0L54.415 37.4056C54.6132 36.5751 54.7492 35.7343 54.8202 34.8861L5.14901 0.741817C3.46028 0.46696 1.74197 0.218703 0 0Z" transform="translate(93.444824 1.161499)" id="Path" fill="#D9E021" stroke="none" />
          <path d="M7.1882 2.1427C4.88875 1.36542 2.48874 0.650198 0 0L37.3458 25.6725C36.9688 24.3484 36.4349 23.0495 35.7473 21.7757L7.1882 2.1427Z" transform="translate(110.32471 4.3740845)" id="Path" fill="#D9E021" stroke="none" />
        </g>
        <g id="Group" transform="translate(158.31934 360.05792)">
          <path d="M0 1.23094L40.849 29.3106C41.9788 29.1422 43.0863 28.9501 44.1673 28.7358L2.36304 0C1.53494 0.391597 0.74529 0.802403 0 1.23094Z" transform="translate(8.526367 5.2872925)" id="Path" fill="none" fill-rule="evenodd" stroke="none" />
          <path d="M0 2.51361C0 2.54168 0.0029575 2.56828 0.0029575 2.59636L23.8182 18.9681C25.5247 19.2872 27.2948 19.5503 29.1136 19.7512L0.380039 0C0.131609 0.821614 0 1.65948 0 2.51361Z" transform="translate(0 15.20282)" id="Path" fill="none" fill-rule="evenodd" stroke="none" />
          <path d="M0 1.04475L42.1414 30.0126C43.1825 29.7776 44.1954 29.5219 45.1802 29.2441L2.63809 0C1.7257 0.33101 0.845845 0.679753 0 1.04475Z" transform="translate(12.140625 3.6736145)" id="Path" fill="none" fill-rule="evenodd" stroke="none" />
          <path d="M1.9135 4.17161L13.0381 11.8188C15.3524 12.7483 17.9091 13.5507 20.6596 14.2009L0 0C0.280962 1.44817 0.933091 2.84462 1.9135 4.17161Z" transform="translate(0.15820312 19.335999)" id="Path" fill="none" fill-rule="evenodd" stroke="none" />
          <path d="M0 2.04074L30.7181 23.1559C32.188 23.2712 33.6844 23.3495 35.2046 23.3835L1.18891 0C0.708321 0.663498 0.312016 1.34473 0 2.04074Z" transform="translate(0.80566406 12.025726)" id="Path" fill="none" fill-rule="evenodd" stroke="none" />
          <path d="M0 1.44226L38.6545 28.0132C39.8848 27.9201 41.0945 27.7974 42.2819 27.6497L2.05694 0C1.322 0.464005 0.635862 0.944265 0 1.44226Z" transform="translate(5.3603516 7.1846924)" id="Path" fill="none" fill-rule="evenodd" stroke="none" />
          <path d="M0 1.69643L35.3894 26.0227C36.7395 26.0183 38.0719 25.9813 39.385 25.9133L1.68873 0C1.06618 0.549713 0.501296 1.1142 0 1.69643Z" transform="translate(2.7280273 9.407196)" id="Path" fill="none" fill-rule="evenodd" stroke="none" />
          <path d="M0 0.678275L42.2908 29.748C43.1647 29.389 44.0017 29.0121 44.8002 28.6161L3.17044 0C2.08947 0.203926 1.03217 0.431495 0 0.678275Z" transform="translate(20.581055 1.2723389)" id="Path" fill="none" fill-rule="evenodd" stroke="none" />
          <path d="M0 0.477304L41.1595 28.7698C41.9433 28.3442 42.6871 27.9009 43.3821 27.4413L3.46027 0C2.28467 0.132995 1.12976 0.292589 0 0.477304Z" transform="translate(25.40918 0.50686646)" id="Path" fill="none" fill-rule="evenodd" stroke="none" />
          <path d="M0 0L25.3635 17.4357C25.3827 17.2007 25.3961 16.9672 25.3961 16.7308C25.3961 15.9299 25.2807 15.1437 25.0604 14.3709L5.98894 1.26198C4.08874 0.763983 2.08652 0.339876 0 0Z" transform="translate(50.34668 0.98565674)" id="Path" fill="none" fill-rule="evenodd" stroke="none" />
          <path d="M0 0.248257L39.1455 27.1561C39.8301 26.6537 40.4616 26.135 41.0368 25.6001L3.79447 0C2.50944 0.0517203 1.24363 0.134473 0 0.248257Z" transform="translate(30.679688 0.07388306)" id="Path" fill="none" fill-rule="evenodd" stroke="none" />
          <path d="M1.40481 0C0.933091 0 0.465806 0.00591089 0 0.0132995L36.0992 24.8272C36.6597 24.2287 37.1551 23.614 37.5736 22.9845L4.20556 0.0472871C3.28282 0.0177327 2.34826 0 1.40481 0Z" transform="translate(36.46582 0)" id="Path" fill="none" fill-rule="evenodd" stroke="none" />
          <path d="M0 0L14.5834 10.0249C12.3742 5.9301 7.11427 2.40278 0 0Z" transform="translate(60.009277 3.3411255)" id="Path" fill="none" fill-rule="evenodd" stroke="none" />
          <path d="M0 0.861512L42.6102 30.1529C43.5669 29.8559 44.4926 29.5397 45.3873 29.2042L2.90131 0C1.90463 0.264512 0.937527 0.554146 0 0.861512Z" transform="translate(16.164062 2.3377686)" id="Path" fill="none" fill-rule="evenodd" stroke="none" />
          <path d="M0 0L31.734 21.8141C32.1229 21.0768 32.4127 20.3216 32.5976 19.5503L4.81037 0.449228C3.2429 0.254168 1.63846 0.101963 0 0Z" transform="translate(42.90869 0.15664673)" id="Path" fill="none" fill-rule="evenodd" stroke="none" />
          <path d="M11.1246 7.64722L0 0C2.21369 2.99387 6.09541 5.62421 11.1246 7.64722Z" transform="translate(2.0717773 23.50763)" id="Path" fill="#A1C3FC" stroke="none" />
          <path d="M0.156748 1.53683L20.8164 15.7377C21.7938 15.9683 22.7935 16.1796 23.8153 16.3717L0 0C0.00443625 0.517203 0.05915 1.02997 0.156748 1.53683Z" transform="translate(0.0014648438 17.799164)" id="Path" fill="#A1C3FC" stroke="none" />
          <path d="M0 1.13637L28.7336 20.8876C29.5262 20.9748 30.3321 21.0516 31.1425 21.1152L0.424401 0C0.257302 0.373864 0.116821 0.753639 0 1.13637Z" transform="translate(0.3798828 14.066437)" id="Path" fill="#A1C3FC" stroke="none" />
          <path d="M0 0.715218L34.0157 24.3071C34.6323 24.3204 35.2534 24.5376 35.8774 24.5376C35.9602 24.5376 36.0401 24.5376 36.1229 24.5376L0.73346 0C0.471721 0.305889 0.226249 0.401941 0 0.715218Z" transform="translate(1.9946289 11.311981)" id="Path" fill="#A1C3FC" stroke="none" />
          <path d="M0 0.77876L37.6963 26.6921C38.3351 26.6581 38.968 26.6182 39.5965 26.5709L0.941964 0C0.61516 0.254168 0.300186 0.514248 0 0.77876Z" transform="translate(4.416992 8.628418)" id="Path" fill="#A1C3FC" stroke="none" />
          <path d="M0 0.664975L40.225 28.3161C40.8091 28.2422 41.3873 28.1639 41.9581 28.0797L1.10906 0C0.727545 0.217225 0.357857 0.438884 0 0.664975Z" transform="translate(7.4174805 6.5197144)" id="Path" fill="#A1C3FC" stroke="none" />
          <path d="M0 0.568923L41.8043 29.3047C42.3396 29.1983 42.8704 29.086 43.3924 28.9678L1.25102 0C0.825143 0.186193 0.408135 0.375342 0 0.568923Z" transform="translate(10.889648 4.7168884)" id="Path" fill="#A1C3FC" stroke="none" />
          <path d="M0 0.475827L42.5422 29.72C43.0346 29.5811 43.5181 29.4392 43.9958 29.2914L1.38559 0C0.915346 0.153683 0.452497 0.3118 0 0.475827Z" transform="translate(14.779785 3.1992798)" id="Path" fill="#A1C3FC" stroke="none" />
          <path d="M0 0.384208L42.486 29.5884C42.9355 29.42 43.3762 29.2471 43.8094 29.0698L1.51868 0C1.00555 0.121173 0.498339 0.249735 0 0.384208Z" transform="translate(19.06543 1.9520874)" id="Path" fill="#A1C3FC" stroke="none" />
          <path d="M0 0.289634L41.6298 28.9057C42.0349 28.7048 42.4298 28.5008 42.8157 28.2925L1.6562 0C1.09871 0.0901411 0.545659 0.186193 0 0.289634Z" transform="translate(23.75293 0.9841614)" id="Path" fill="#A1C3FC" stroke="none" />
          <path d="M0 0.184715L39.9218 27.626C40.2782 27.3911 40.6227 27.1502 40.9555 26.9079L1.80999 0C1.20074 0.0546757 0.598894 0.11674 0 0.184715Z" transform="translate(28.869629 0.3206787)" id="Path" fill="#A1C3FC" stroke="none" />
          <path d="M0 0.0591089L37.2423 25.6592C37.541 25.3828 37.8235 25.1006 38.0926 24.8139L1.99336 0C1.32496 0.0118218 0.661001 0.0310322 0 0.0591089Z" transform="translate(34.472656 0.013305664)" id="Path" fill="#A1C3FC" stroke="none" />
          <path d="M0 0L33.368 22.9372C33.5898 22.6032 33.7894 22.2648 33.9698 21.922L2.23587 0.107874C1.49649 0.0620644 0.751205 0.026599 0 0Z" transform="translate(40.67285 0.04876709)" id="Path" fill="#A1C3FC" stroke="none" />
          <path d="M0 0L27.7872 19.101C27.8892 18.6769 27.9587 18.2469 27.9942 17.8154L2.6307 0.379775C1.76563 0.239391 0.888729 0.112307 0 0Z" transform="translate(47.71924 0.6058655)" id="Path" fill="#A1C3FC" stroke="none" />
          <path d="M3.67026 1.09499C2.49613 0.698963 1.27025 0.332488 0 0L19.0714 13.1089C18.8792 12.4336 18.6056 11.7686 18.2552 11.1199L3.67026 1.09499Z" transform="translate(56.338867 2.2461548)" id="Path" fill="#A1C3FC" stroke="none" />
        </g>
        <g id="Group" transform="translate(897.94434 449.1912)">
          <path d="M11.4677 22.921C5.14457 22.921 0 17.7814 0 11.4612C0 5.141 5.14457 0 11.4677 0C17.7923 0 22.9369 5.141 22.9369 11.4612C22.9339 17.7814 17.7908 22.921 11.4677 22.921ZM11.4675 1.57971C6.01535 1.57971 1.5791 6.01288 1.5791 11.4627C1.5791 16.9111 6.01535 21.3443 11.4675 21.3443C16.9211 21.3443 21.3574 16.9111 21.3574 11.4627C21.3574 6.01436 16.9211 1.57971 11.4675 1.57971Z" transform="translate(30.215332 30.192871)" id="Shape" fill="#FFFFFF" stroke="none" />
          <path d="M18.1812 36.3387C8.15679 36.3387 0 28.1876 0 18.1701C0 8.15112 8.15679 0 18.1812 0C28.2072 0 36.3639 8.15112 36.3639 18.1701C36.3625 28.1876 28.2057 36.3387 18.1812 36.3387ZM18.181 1.57672C9.0261 1.57672 1.57764 9.02149 1.57764 18.1701C1.57764 27.3187 9.0261 34.7619 18.181 34.7619C27.336 34.7619 34.7859 27.3187 34.7859 18.1701C34.7844 9.02001 27.336 1.57672 18.181 1.57672Z" transform="translate(23.501465 23.485474)" id="Shape" fill="#FFFFFF" stroke="none" />
          <path d="M25.7347 51.4366C11.5446 51.4366 0 39.9 0 25.7198C0 11.5381 11.5446 0 25.7347 0C39.9248 0 51.4723 11.5366 51.4723 25.7198C51.4708 39.9 39.9248 51.4366 25.7347 51.4366ZM25.7345 1.57672C12.4139 1.57672 1.57764 12.407 1.57764 25.7183C1.57764 39.0296 12.4139 49.8584 25.7345 49.8584C39.0551 49.8584 49.8928 39.0296 49.8928 25.7183C49.8928 12.407 39.0536 1.57672 25.7345 1.57672Z" transform="translate(15.948242 15.935791)" id="Shape" fill="#FFFFFF" stroke="none" />
          <path d="M34.1296 68.2087C15.311 68.2087 0 52.9099 0 34.1058C0 15.3003 15.3095 0 34.1296 0C52.9496 0 68.2591 15.2989 68.2591 34.1058C68.2576 52.9099 52.9481 68.2087 34.1296 68.2087ZM34.1293 1.57526C16.1803 1.57526 1.5791 16.1678 1.5791 34.1029C1.5791 52.0395 16.1818 66.6305 34.1293 66.6305C52.0769 66.6305 66.6796 52.0395 66.6796 34.1029C66.6796 16.1692 52.0769 1.57526 34.1293 1.57526Z" transform="translate(7.5532227 7.5511475)" id="Shape" fill="#FFFFFF" stroke="none" />
          <path d="M41.683 83.3081C18.7003 83.3081 0 64.6223 0 41.654C0 18.6858 18.6988 0 41.683 0C64.6672 0 83.366 18.6858 83.366 41.654C83.3645 64.6223 64.6672 83.3081 41.683 83.3081ZM41.6828 1.57819C19.5696 1.57819 1.5791 19.5576 1.5791 41.6555C1.5791 63.7534 19.5696 81.7313 41.6828 81.7313C63.796 81.7313 81.788 63.7534 81.788 41.6555C81.788 19.5576 63.796 1.57819 41.6828 1.57819Z" id="Shape" fill="#FFFFFF" stroke="none" />
        </g>
        <g id="Group" transform="translate(1028.0566 308.2135)" opacity="0.31">
          <path d="M0 11.8661L154.699 11.8661L154.699 0L11.8758 0L0 11.8661Z" transform="translate(0 142.72586)" id="Path" fill="none" fill-rule="evenodd" stroke="none" />
        </g>
        <path d="M58.9646 64.0167C58.7162 63.8792 58.4042 63.9738 58.2667 64.2206C58.1291 64.4689 58.2238 64.7821 58.4722 64.9181C58.7206 65.0555 59.0326 64.9609 59.1702 64.7142L59.1702 64.7142C59.3077 64.4659 59.2175 64.1526 58.9646 64.0167L58.9646 64.0167ZM6.47164 59.121C6.39179 58.8417 6.099 58.6806 5.82099 58.7619L5.82099 58.7619C5.56369 58.8269 5.40842 59.0899 5.47349 59.3456C5.47644 59.3663 5.48532 59.3899 5.49567 59.4091C5.56813 59.6796 5.84022 59.8406 6.11231 59.7712C6.38587 59.6884 6.55149 59.4003 6.47164 59.121L6.47164 59.121L6.47164 59.121ZM32.8986 63.3104C32.906 63.0222 32.6975 62.774 32.4136 62.7296C32.1222 62.7015 31.859 62.9188 31.8324 63.2143C31.8043 63.5054 32.0217 63.7685 32.3174 63.7951C32.6043 63.798 32.8542 63.5941 32.8986 63.3104ZM61.947 1.15141C62.0253 0.613518 61.6601 0.109614 61.1218 0.0194732C60.6072 -0.0854452 60.1044 0.244087 59.998 0.755379C59.995 0.774589 59.9906 0.789367 59.9891 0.807099C59.9107 1.34499 60.276 1.84889 60.8142 1.93904C61.3436 2.03509 61.8523 1.68191 61.947 1.15141L61.947 1.15141ZM58.0195 24.6546C58.0979 24.1123 57.7223 23.6113 57.1796 23.5359C56.6487 23.4591 56.1504 23.8197 56.0631 24.3487C55.967 24.8792 56.3204 25.3846 56.8513 25.4806L56.8513 25.4806C57.3999 25.5486 57.9071 25.1895 58.0195 24.6546ZM54.0639 48.1918C54.1556 47.6613 53.8052 47.1603 53.2743 47.0687C53.2639 47.0672 53.2521 47.0658 53.2417 47.0643C52.7271 46.9594 52.2244 47.2889 52.1179 47.8002C52.1149 47.8194 52.1105 47.8342 52.109 47.8519C52.038 48.3957 52.3974 48.904 52.9356 49.0193C53.471 49.0947 53.9737 48.7297 54.0639 48.1918ZM104.865 28.6932C104.398 28.4213 103.799 28.5779 103.527 29.0493C103.255 29.5148 103.413 30.1148 103.883 30.3867C104.341 30.6527 104.928 30.5049 105.206 30.0542C105.48 29.5843 105.328 28.9799 104.865 28.6932L104.865 28.6932ZM92.2169 48.9232C91.7496 48.6513 91.1507 48.808 90.8786 49.2794C90.6066 49.7449 90.7648 50.3448 91.235 50.6167C91.6934 50.8827 92.2805 50.7349 92.5585 50.2857C92.8321 49.8173 92.6798 49.2099 92.2169 48.9232L92.2169 48.9232ZM15.3666 13.483C15.232 12.9555 14.7012 12.6304 14.1688 12.7574C13.6483 12.8727 13.3244 13.3884 13.4383 13.9086C13.4398 13.9115 13.4398 13.916 13.4413 13.9189C13.527 14.4347 14.0135 14.7819 14.5296 14.6977C14.5533 14.6933 14.5784 14.6888 14.6065 14.6829C15.13 14.5381 15.4627 14.0209 15.3666 13.483ZM20.7239 36.7394C20.5834 36.2119 20.0629 35.8823 19.5276 35.9784C18.9996 36.1129 18.6758 36.6463 18.8015 37.1754C18.9242 37.7029 19.4521 38.031 19.9786 37.9068C19.986 37.9053 19.9934 37.9039 19.9963 37.9039C20.5168 37.7886 20.8407 37.2729 20.7283 36.7572C20.7253 36.7453 20.7253 36.7424 20.7239 36.7394ZM26.08 59.9574C25.975 59.4461 25.4781 59.1136 24.9665 59.22C24.9517 59.223 24.9354 59.2259 24.9221 59.2319C24.3913 59.3338 24.0467 59.8495 24.1488 60.38C24.1517 60.3978 24.1547 60.4111 24.1576 60.4288C24.2848 60.9608 24.8201 61.2888 25.348 61.1632C25.8804 61.0362 26.2087 60.5012 26.083 59.9737C26.0815 59.9633 26.08 59.9604 26.08 59.9574ZM124.378 41.6085C123.994 41.3174 123.447 41.3868 123.147 41.7651C122.851 42.1464 122.922 42.6976 123.303 42.9961C123.685 43.2946 124.236 43.2207 124.535 42.8394L124.535 42.8394C124.826 42.4537 124.757 41.9085 124.378 41.6085ZM38.108 19.0614C38.0252 18.5737 37.5772 18.2368 37.0862 18.293C36.6204 18.3521 36.2892 18.7747 36.3469 19.2417C36.3498 19.2564 36.3513 19.2653 36.3542 19.2801C36.4075 19.7618 36.8422 20.1076 37.3228 20.0515C37.3302 20.05 37.3332 20.0485 37.3406 20.0485C37.8093 19.9702 38.148 19.5416 38.108 19.0614L38.108 19.0614ZM40.8631 40.1308C40.7936 39.655 40.3514 39.3284 39.8782 39.3949C39.4124 39.454 39.0812 39.8766 39.1388 40.3436C39.1418 40.3584 39.1433 40.3672 39.1462 40.382C39.1995 40.8637 39.6342 41.2095 40.1148 41.1563C40.1222 41.1549 40.1252 41.1534 40.1326 41.1534C40.6102 41.0632 40.934 40.6125 40.8631 40.1308L40.8631 40.1308ZM43.6594 61.2681C43.6062 60.7864 43.1715 60.4406 42.6909 60.4938C42.6835 60.4953 42.6805 60.4968 42.6731 60.4968C42.2162 60.5381 41.8835 60.9445 41.9249 61.3996C41.9278 61.4277 41.9323 61.4558 41.9367 61.4824C41.9899 61.9641 42.4247 62.3099 42.9053 62.2567C42.9127 62.2552 42.9156 62.2538 42.923 62.2538C43.3888 62.1725 43.7156 61.7395 43.6594 61.2681L43.6594 61.2681ZM82.6495 33.085C82.7589 32.6136 82.4735 32.1378 82.0033 32.0181C81.5375 31.8925 81.0613 32.1644 80.9356 32.6284C80.8188 33.0998 81.085 33.5844 81.5464 33.7322C82.027 33.8519 82.5149 33.5638 82.6495 33.085L82.6495 33.085ZM77.116 53.6534C77.252 53.2072 77.0036 52.7343 76.557 52.5983C76.5407 52.5939 76.523 52.591 76.5067 52.5821C76.0409 52.4565 75.5647 52.7284 75.439 53.1924C75.3222 53.6638 75.5884 54.1485 76.0498 54.2962C76.52 54.4086 76.9932 54.1233 77.116 53.6534L77.116 53.6534ZM1.63476 42.4094C1.41295 42.0045 0.908695 41.8582 0.503517 42.0769C0.487251 42.0873 0.470985 42.0932 0.459155 42.1035C0.0347533 42.3326 -0.124952 42.8646 0.105733 43.2916C0.111648 43.3005 0.116085 43.3108 0.120521 43.3182C0.379302 43.7261 0.913131 43.8605 1.33605 43.6212C1.75158 43.3862 1.89502 42.8572 1.6599 42.4419C1.65103 42.4316 1.64068 42.4227 1.63476 42.4094L1.63476 42.4094ZM12.2995 60.8529C12.0525 60.4318 11.5143 60.281 11.084 60.5145C10.6655 60.7716 10.5294 61.3213 10.7882 61.7395C11.0322 62.14 11.5468 62.2819 11.9609 62.0632C12.3838 61.8415 12.5479 61.3154 12.3246 60.8928C12.3202 60.8825 12.3098 60.8662 12.2995 60.8529L12.2995 60.8529ZM126.969 19.1531C127.086 18.6033 126.756 18.0581 126.21 17.9118C125.668 17.7729 125.113 18.0935 124.97 18.6329C124.845 19.1841 125.181 19.7338 125.728 19.8742C126.272 20.0131 126.825 19.6924 126.969 19.1531L126.969 19.1531ZM120.831 42.9592C120.974 42.4168 120.649 41.8627 120.109 41.7194C119.569 41.576 119.012 41.9011 118.868 42.4405C118.725 42.9828 119.05 43.537 119.59 43.6803C120.131 43.8236 120.686 43.4985 120.831 42.9592L120.831 42.9592ZM24.3469 32.9491C24.0422 32.4673 23.4167 32.3077 22.9184 32.587C22.4393 32.8914 22.3003 33.5269 22.6079 34.0042C22.9021 34.4652 23.5069 34.6115 23.9801 34.3426C24.4533 34.05 24.6175 33.4367 24.3469 32.9491L24.3469 32.9491ZM36.8586 54.1041C36.5658 53.6313 35.9536 53.4672 35.4656 53.7377C34.9806 54.0214 34.8149 54.6435 35.0989 55.1297C35.3828 55.6144 36.0053 55.7799 36.4918 55.4962C36.9695 55.2065 37.1307 54.5888 36.8586 54.1041L36.8586 54.1041ZM77.6245 27.0441C77.5196 26.4973 77.0109 26.1205 76.4578 26.1737C75.9077 26.2712 75.538 26.7899 75.6223 27.3396C75.6874 27.8864 76.1842 28.2795 76.7358 28.213C76.7432 28.2115 76.7506 28.21 76.7565 28.21C77.317 28.1317 77.7044 27.6115 77.6245 27.0441C77.626 27.0485 77.6245 27.0441 77.6245 27.0441L77.6245 27.0441ZM81.085 51.4028C81.0022 50.8413 80.4816 50.4526 79.9212 50.531C79.9212 50.531 79.9212 50.531 79.9182 50.5324C79.3755 50.6108 78.9999 51.1176 79.0827 51.6599L79.0827 51.6599C79.1611 52.2111 79.6698 52.5983 80.2199 52.5215C80.767 52.4535 81.15 51.9496 81.085 51.4028L81.085 51.4028ZM93.2183 20.6027C93.1488 20.053 92.6416 19.6629 92.0885 19.7323C91.534 19.8018 91.1481 20.3086 91.2176 20.8628C91.2885 21.3992 91.7691 21.7863 92.3089 21.7361C92.8738 21.6696 93.2789 21.1642 93.2183 20.6027L93.2183 20.6027ZM95.6554 44.9673C95.5918 44.4058 95.0846 43.9994 94.5212 44.0615C93.977 44.1295 93.5792 44.6127 93.6117 45.1594C93.6857 45.7239 94.181 46.1333 94.7459 46.1008C95.3049 46.0254 95.7012 45.5244 95.6554 44.9673L95.6554 44.9673ZM49.2001 46.8086C48.9221 46.3195 48.3011 46.1392 47.8042 46.4067C47.3192 46.6726 47.1373 47.28 47.4035 47.7662C47.643 48.2568 48.233 48.4636 48.724 48.2243C48.7373 48.2183 48.7506 48.2124 48.7639 48.2036C49.2667 47.9524 49.4693 47.3406 49.2149 46.8381C49.212 46.8278 49.2075 46.8189 49.2001 46.8086L49.2001 46.8086Z" transform="translate(114.98389 493.6837)" id="texture-2_15_gS5PXifxC_4sDEWaX2O6s" fill="#FFFFFF" stroke="none" />
      </g>
    </g>
  </g>
</svg>