<?xml version="1.0" encoding="utf-8"?>
<svg width="669px" height="403px" viewBox="0 0 669 403" version="1.1" xmlns:xlink="http://www.w3.org/1999/xlink" xmlns="http://www.w3.org/2000/svg">
  <defs>
    <path d="M0.100988 0.108667L69.0916 0L68.9906 65.0152L0 65.1239L0.100988 0.108667Z" transform="matrix(1 -2.6213076E-10 2.6213076E-10 1 -0.00048828125 6.1035156E-05)" id="path_1" />
    <path d="M0.127046 0.141126L62.118 0L61.991 56.9021L0 57.0433L0.127046 0.141126Z" transform="matrix(1 -2.6213076E-10 2.6213076E-10 1 0 -6.1035156E-05)" id="path_2" />
    <clipPath id="mask_1">
      <use xlink:href="#path_1" />
    </clipPath>
    <clipPath id="mask_2">
      <use xlink:href="#path_2" />
    </clipPath>
  </defs>
  <g id="Group-101" transform="matrix(-0.9925461 0.1218694 0.1218694 0.9925461 628.28955 0)">
    <path d="M77.106 11.2864C77.106 11.2864 51.4643 8.15576 31.4651 5.16566C11.4685 2.17817 4.63456 -0.486629 2.11045 0.0754779C-0.41105 0.634982 -1.13372 4.35894 2.53463 8.19219C6.20297 12.0228 28.0664 15.6817 28.0664 15.6817C28.0664 15.6817 26.0608 20.6184 28.5037 23.1739C30.9493 25.7294 34.6962 26.445 34.6962 26.445C34.6962 26.445 32.1563 27.6291 33.9578 30.7909C35.7618 33.9528 40.1345 34.6841 40.1345 34.6841C40.1345 34.6841 38.1446 38.9987 41.2316 40.9453C44.3213 42.8944 59.9452 45.1507 61.8749 43.329C63.8021 41.5074 63.2679 37.7522 63.2679 37.7522C63.2679 37.7522 72.0133 39.2147 73.9902 35.5246C75.9618 31.8345 74.2206 26.1796 74.2206 26.1796L83 26.3956L77.106 11.2864Z" transform="matrix(1 -5.2027442E-08 5.2027442E-08 1 0 132.64471)" id="Fill-1" fill="#FDC68B" fill-rule="evenodd" stroke="none" />
    <path d="M47.4634 15.5227C47.4634 15.5227 40.9261 23.4542 34.0293 20.7965C27.1299 18.1362 27.1457 17.5153 24.6609 15.585C22.1787 13.6574 16.4185 16.0085 9.53233 12.7247C2.65139 9.4461 4.06036 3.87872 4.06036 3.87872C4.06036 3.87872 7.19286 5.19847 14.169 4.74903C18.9801 4.43728 27.1219 3.0266 32.9587 2.41348C27.5211 1.71464 21.1583 0.880701 14.7426 0C13.6323 0.423464 12.1943 0.885896 10.4602 1.23402C6.32316 2.06536 0 1.60033 0 1.60033C0 1.60033 1.67067 10.6645 6.66153 13.5898C11.655 16.5125 19.9132 15.4681 19.559 17.0165C19.2048 18.5649 11.9247 18.3856 11.9247 18.3856C11.9247 18.3856 23.3153 18.6636 25.824 19.6612C28.3326 20.6562 32.3507 24.4882 30.0905 26.2989C27.8251 28.1123 18.9827 27.2731 18.9827 27.2731C18.9827 27.2731 29.3927 28.7721 30.9602 29.432C32.5278 30.0945 33.0724 33.5316 28.6102 34.6669C26.395 35.228 21.6949 35.5008 17.5209 35.6333C23.3603 36.8673 31.6264 37.6155 33.001 36.3295C34.9492 34.511 34.41 30.7622 34.41 30.7622C34.41 30.7622 43.2365 32.2248 45.2323 28.5383C47.2255 24.8545 45.4676 19.2091 45.4676 19.2091L48 19.2715C47.7515 17.0866 47.4634 15.5227 47.4634 15.5227" transform="matrix(1 -5.2027442E-08 5.2027442E-08 1 29.007324 139.64484)" id="Fill-3" fill="#F0A96E" fill-rule="evenodd" stroke="none" />
    <path d="M10.3164 1.4024L0 0L6.20912 27.6581L20 28L10.3164 1.4024Z" transform="matrix(1 -5.2027442E-08 5.2027442E-08 1 74.00781 139.64484)" id="Fill-5" fill="#E0DBD7" fill-rule="evenodd" stroke="none" />
    <path d="M0 33.9106C0 33.9106 31.5693 42.2318 68.4626 37.8818C131.591 30.4364 172.197 0 172.197 0L208 31.2228C208 31.2228 184.975 53.2092 126.227 65.2754C77.3158 75.3244 8.117 69.0862 8.117 69.0862L0 33.9106Z" transform="matrix(1 -5.2027442E-08 5.2027442E-08 1 81.99756 102.64459)" id="Fill-7" fill="#AF9074" fill-rule="evenodd" stroke="none" />
    <path d="M31.5598 6.59681C39.4336 14.5455 40.1926 26.5433 33.2564 33.3932C26.3202 40.2431 14.3151 39.3515 6.44127 31.4028C-1.43256 23.454 -2.1942 11.4589 4.74464 4.60898C11.6809 -2.24353 23.686 -1.35189 31.5598 6.59681" transform="matrix(1 -5.2027442E-08 5.2027442E-08 1 108.00586 156.64496)" id="Fill-9" fill="#B6D1DC" fill-rule="evenodd" stroke="none" />
    <path d="M48.4461 48.5005L48.4461 48.5005C46.5028 50.4061 43.5035 50.5105 41.7919 48.7276L0 5.20767L5.30858 0L48.7515 41.9067C50.529 43.6217 50.392 46.5923 48.4461 48.5005" transform="matrix(1 -5.2027442E-08 5.2027442E-08 1 143.0083 191.64496)" id="Fill-11" fill="#1F3038" fill-rule="evenodd" stroke="none" />
    <path d="M14 3.8378L3.77501 14L0 10.1622L10.225 0L14 3.8378Z" transform="matrix(1 -5.2027442E-08 5.2027442E-08 1 138.99023 187.64484)" id="Fill-13" fill="#1F3038" fill-rule="evenodd" stroke="none" />
    <path d="M7.77174 9.91067C2.4482 15.1655 4.68999 26.5771 11.8346 33.7737C18.9769 40.9701 30.2207 43.4957 35.5442 38.2408C40.8682 32.9886 39.8052 20.6554 32.6606 13.4589C25.5145 6.26255 13.0958 4.65582 7.77174 9.91067M41.4597 41.5913C33.8826 49.0665 19.4419 46.8052 9.26389 36.5556C-0.913149 26.3034 -3.03394 11.8799 4.54313 4.40734C12.1141 -3.06511 26.5581 -0.806493 36.7337 9.44563C46.9155 19.6952 49.0311 34.1188 41.4597 41.5913" transform="matrix(1 -5.2027442E-08 5.2027442E-08 1 103.990234 152.64484)" id="Fill-15" fill="#1F3038" fill-rule="evenodd" stroke="none" />
    <path d="M16.4508 3.81444C20.6691 8.28595 21.2044 14.9047 17.6418 18.5951C14.0791 22.2883 7.77089 21.6576 3.55002 17.186C-0.670856 12.7145 -1.20359 6.09582 2.35905 2.40266C5.9217 -1.28782 12.2325 -0.657079 16.4508 3.81444" transform="matrix(1 -5.2027442E-08 5.2027442E-08 1 112.007324 161.64484)" id="Fill-17" fill="#CDDEE6" fill-rule="evenodd" stroke="none" />
    <path d="M51.3849 7.17455L45.3204 9.2553C45.3204 9.2553 35.0335 0.0766112 32.0301 0.0011842C29.0242 -0.0742428 22.1741 3.47863 22.1741 3.47863L9.40409 3.16132L0 18.551C2.06527 26.0391 6.58996 25.4071 6.58996 25.4071C6.58996 25.4071 6.45858 30.6115 9.39095 33.6598C12.3181 36.7055 16.8979 33.8445 16.8979 33.8445C16.8979 33.8445 13.8 37.4858 17.4813 40.5523C21.1599 43.6188 25.0093 39.9957 25.0093 39.9957C25.0093 39.9957 21.8562 45.866 27.114 45.9986C32.3691 46.1287 46.8812 36.8148 46.9548 33.8419C47.031 30.869 47.1072 27.8962 47.1072 27.8962L57 22.9336L51.3849 7.17455Z" transform="matrix(1 -5.2027442E-08 5.2027442E-08 1 149.0083 190.64496)" id="Fill-19" fill="#FDC68B" fill-rule="evenodd" stroke="none" />
    <path d="M34.5845 9.61956C25.6348 1.16016 15.0925 0.291119 10.8677 0.0101893C9.55288 -0.0738271 8.26188 0.364633 7.26188 1.21792L0 7.42201L3.91268 10.738L5.4312 10.7984C5.4312 10.7984 18.7909 5.84933 19.5184 6.99405C20.246 8.13877 31.4734 12.9225 36.8914 23.1908C42.3067 33.4645 38.3094 42 38.3094 42L44.0342 34.0762C44.73 33.1126 45.066 31.9443 44.9893 30.7602C44.7565 27.1475 43.8676 18.3966 34.5845 9.61956" transform="matrix(1 -5.2027442E-08 5.2027442E-08 1 109.001465 149.64471)" id="Fill-21" fill="#1F3038" fill-rule="evenodd" stroke="none" />
    <path d="M0 3.5985L14.6911 0C14.6911 0 32.4796 22.4257 63.8726 24.7118C95.2655 26.998 148 14.0554 148 14.0554C148 14.0554 111.988 46.9328 110.438 79.1723C108.888 111.412 132.199 167.542 132.199 167.542C132.199 167.542 112.494 172.894 91.6968 170.282C61.8382 166.531 50.145 154.98 50.145 154.98C50.145 154.98 55.7769 109.33 47.6341 75.3481C39.4965 41.3683 0 3.5985 0 3.5985" transform="matrix(1 -5.2027442E-08 5.2027442E-08 1 268.0044 111.64496)" id="Fill-23" fill="#C9A57F" fill-rule="evenodd" stroke="none" />
    <path d="M49.8426 18.8335C28.8126 17.3081 13.8754 6.8161 6.25825 0C5.23842 2.132 2.72041 7.38323 0 12.9574C12.2247 27.0937 28.6129 48.9756 33.5438 69.4869C35.4914 77.5869 36.6506 86.3512 37.2945 95C42.1361 86.1622 48.2445 73.0709 51.8717 57.9316C58.5847 29.9399 55.0915 19.3403 55.0915 19.3403L54.4213 19.0567C52.8547 19.0147 51.3224 18.9412 49.8426 18.8335" transform="matrix(1 -5.2027442E-08 5.2027442E-08 1 281.99756 117.644714)" id="Fill-25" fill="#AF9074" fill-rule="evenodd" stroke="none" />
    <path d="M6.98651 0L0 1.52077L8.16037 22L14 19.8883L6.98651 0Z" transform="matrix(1 -5.2027442E-08 5.2027442E-08 1 197.99854 194.64471)" id="Fill-27" fill="#F2EFED" fill-rule="evenodd" stroke="none" />
    <path d="M0 195.177C0 195.177 17.174 198.6 62.3774 191.486C107.581 184.372 124.343 174.304 124.343 174.304C124.343 174.304 108.271 96.7481 108.964 99.0138C109.659 101.277 145.602 164.346 145.602 164.346C145.602 164.346 158.334 165.412 197.106 145.403C235.878 125.395 261 81.0772 261 81.0772C261 81.0772 136.182 0.813176 133.952 0.00906913C131.721 -0.795038 61.3593 52.1346 60.5537 54.3609C59.7482 56.5899 17.9218 138.695 17.9218 138.695L0 195.177Z" transform="matrix(1 -5.2027442E-08 5.2027442E-08 1 371.00195 85.64484)" id="Fill-29" fill="#AF9074" fill-rule="evenodd" stroke="none" />
    <g id="Group-33" transform="matrix(1 -5.2027442E-08 5.2027442E-08 1 151.41846 0)">
      <path d="M0.100988 0.108667L69.0916 0L68.9906 65.0152L0 65.1239L0.100988 0.108667Z" transform="matrix(1 -2.6213076E-10 2.6213076E-10 1 -0.00048828125 6.1035156E-05)" id="Clip-32" fill="none" fill-rule="evenodd" stroke="none" />
      <g clip-path="url(#mask_1)">
        <path d="M3.23389 65.1242C3.23389 65.1242 -2.08677 24.7182 0.921274 19.1236C3.92683 13.529 21.1819 16.6344 21.1819 16.6344C21.1819 16.6344 27.331 3.32519 34.4078 0.217784C41.4871 -2.88951 69.0916 28.2817 69.0916 28.2817L3.23389 65.1242Z" transform="matrix(1 -2.6213076E-10 2.6213076E-10 1 -0.0009765625 -0.00030517578)" id="Fill-31" fill="#C9A57F" fill-rule="evenodd" stroke="none" />
      </g>
    </g>
    <g id="Group-36" transform="matrix(1 -5.2027442E-08 5.2027442E-08 1 152.66553 0.0020751953)">
      <path d="M0.127046 0.141126L62.118 0L61.991 56.9021L0 57.0433L0.127046 0.141126Z" transform="matrix(1 -2.6213076E-10 2.6213076E-10 1 0 -6.1035156E-05)" id="Clip-35" fill="none" fill-rule="evenodd" stroke="none" />
      <g clip-path="url(#mask_2)">
        <path d="M0 57.0442L0 57.0442L62.118 22.6667C53.4553 13.6059 37.4942 -2.00789 32.3559 0.213894C31.1515 0.73464 29.9732 1.55395 28.8514 2.54451C34.6565 5.1107 41.2526 13.9704 41.2526 13.9704L0 57.0442Z" transform="matrix(1 -2.6213076E-10 2.6213076E-10 1 0.00048828125 -0.0010375977)" id="Fill-34" fill="#AF9074" fill-rule="evenodd" stroke="none" />
      </g>
    </g>
    <path d="M55.8601 0C37.9917 5.50687 9.77419 31.8509 0 41.3525C0.292751 44.1674 0.553853 46.4931 0.727921 48C6.65151 43.2361 17.3382 35.6625 31.9389 29.4336C38.7117 26.5455 45.743 23.7672 52.3128 21.2819L68 12.5441C68 12.5441 62.5459 6.46959 55.8601 0" transform="matrix(1 -5.2027442E-08 5.2027442E-08 1 153.01953 15.64447)" id="Fill-37" fill="#703807" fill-rule="evenodd" stroke="none" />
    <path d="M30.5391 70.9943C30.5391 70.9943 6.88126 80.4055 0.83985 75.6657C-5.20156 70.9284 21.9585 43.6122 62.7459 19.4778C103.536 -4.6539 138.135 -3.6047 139.932 7.7573C141.732 19.1193 107.307 36.7897 107.307 36.7897L30.5391 70.9943Z" transform="matrix(1 -5.2027442E-08 5.2027442E-08 1 122.990234 21.644897)" id="Fill-39" fill="#C9A57F" fill-rule="evenodd" stroke="none" />
    <path d="M133.233 0C125.328 1.12405 112.727 3.94859 93.1786 10.5855C50.9985 24.902 30.8557 50.9936 23.4301 57.3344C17.4096 62.4778 7.31322 65.9102 6.14754 61.2542C0.761221 67.4666 -1.31489 71.9969 0.83753 73.6738C6.87642 78.3848 30.5373 69.0309 30.5373 69.0309L107.304 35.0368C107.304 35.0368 141.729 17.4713 139.932 6.17835C139.498 3.44552 137.127 1.32318 133.233 0" transform="matrix(1 -5.2027442E-08 5.2027442E-08 1 123.03369 23.644714)" id="Fill-41" fill="#AF9074" fill-rule="evenodd" stroke="none" />
    <path d="M58.0275 0L74 25.3405L65.45 31.5292L7.42255 45L0 13.4682L58.0275 0Z" transform="matrix(1 -5.2027442E-08 5.2027442E-08 1 216.99902 80.644714)" id="Fill-43" fill="#FDC68B" fill-rule="evenodd" stroke="none" />
    <path d="M55 27.8185C50.8132 19.0696 43.4661 8.37101 30.7387 0L0 7.21902L7.3941 39L55 27.8185Z" transform="matrix(1 -5.2027442E-08 5.2027442E-08 1 217.01953 86.64484)" id="Fill-45" fill="#F0A96E" fill-rule="evenodd" stroke="none" />
    <path d="M67.7199 9.36746C67.2432 9.77262 66.8556 10.2562 66.5387 10.792C61.1014 4.61796 59.7342 2.55819 57.3796 0.495804C51.408 -4.72943 -4.57849 32.864 0.30094 41.9814C7.17615 54.8366 25.2874 69.3282 39.9179 96.6777C54.5483 124.03 76.4704 108.213 83.5316 99.2132C90.5953 90.2135 95.5769 56.4102 88.7462 41.5788C87.9841 39.9216 87.0229 38.1494 85.9254 36.3039C87.366 36.2151 88.6467 35.7576 89.6577 34.8924C93.6597 31.4656 91.994 22.9755 85.9333 15.9258C79.8779 8.87866 71.7193 5.94061 67.7199 9.36746" transform="matrix(1 -5.2027442E-08 5.2027442E-08 1 158.99023 42.644775)" id="Fill-47" fill="#FDC68B" fill-rule="evenodd" stroke="none" />
    <path d="M80.2097 10.5313C80.2097 10.5313 81.4661 -3.53539 61.0089 0.84572C31.8118 7.10483 2.86375 30.8805 0.42693 41.832C-2.00989 52.7835 6.77996 63 6.77996 63C6.77996 63 6.05075 62.1473 7.50917 53.5106C8.97021 44.8713 21.65 25.155 42.3879 14.8051C63.1258 4.45524 72.7681 13.942 78.3867 23.9152L84 33.8911L80.2097 10.5313Z" transform="matrix(1 -5.2027442E-08 5.2027442E-08 1 150.99023 39.644897)" id="Fill-49" fill="#703807" fill-rule="evenodd" stroke="none" />
    <path d="M7.216 1.269C9.29011 3.68553 9.60217 6.81977 7.90737 8.26862C6.21526 9.72284 3.16194 8.94063 1.08783 6.52409C-0.986285 4.10755 0.248497 3.27426 1.9406 1.82273C3.63271 0.373883 5.14189 -1.14754 7.216 1.269" transform="matrix(1 -5.2027442E-08 5.2027442E-08 1 171.0083 90.64508)" id="Fill-51" fill="#703807" fill-rule="evenodd" stroke="none" />
    <path d="M7.23036 1.522C9.28778 3.85922 9.59732 6.89059 7.91617 8.29448C6.23768 9.69837 3.20893 8.94183 1.15151 6.60461C-0.905905 4.26739 0.100121 2.69711 1.77861 1.29322C3.45977 -0.108078 5.17294 -0.815224 7.23036 1.522" transform="matrix(1 -5.2027442E-08 5.2027442E-08 1 196.99023 71.64496)" id="Fill-53" fill="#703807" fill-rule="evenodd" stroke="none" />
    <path d="M0.0953332 6.46029C0.0953332 6.46029 2.74081 2.12851 8.63935 0.72617C13.9626 -0.537831 16.4548 0.0914567 17.4227 0.785844C18.3959 1.48023 19.6433 3.84549 18.6137 3.97297C17.5813 4.09774 14.3309 3.8482 10.8923 6.05613C7.45373 8.26678 4.64157 13 4.64157 13C4.64157 13 -0.778426 9.00456 0.0953332 6.46029" transform="matrix(1 -5.2027442E-08 5.2027442E-08 1 187.99023 63.64496)" id="Fill-55" fill="#703807" fill-rule="evenodd" stroke="none" />
    <path d="M0.220349 10.7199C-0.330818 9.05278 0.0937648 5.18728 2.15866 2.58849C4.22356 -0.0075805 6.26736 -0.53878 7.12708 0.496378C7.98416 1.52881 10.6662 5.05652 9.84599 5.269C9.03111 5.47876 7.92614 5.94458 5.65818 7.6989C3.38758 9.45322 2.85751 13 2.85751 13C2.85751 13 0.547357 11.7142 0.220349 10.7199" transform="matrix(1 -5.2027442E-08 5.2027442E-08 1 165.99854 81.64459)" id="Fill-57" fill="#703807" fill-rule="evenodd" stroke="none" />
    <path d="M15.9074 9.08795C15.9074 9.08795 9.01688 8.82598 6.74103 12.504C4.4678 16.1821 5.36451 18.3748 4.4914 22.823C3.61829 27.2686 0 27.6564 0 27.6564C0 27.6564 4.55432 32.3875 11.5051 28.4056C18.4559 24.421 19.038 13.3109 19.038 13.3109C19.038 13.3109 28.9017 19.9073 38.3512 14.5212C47.8007 9.13772 48 1.31792 48 1.31792C48 1.31792 41.0885 4.77331 33.325 2.05406C25.5587 -0.665186 23.9331 -0.256513 22.651 0.84114C21.3715 1.93879 15.9074 9.08795 15.9074 9.08795" transform="matrix(1 -5.2027442E-08 5.2027442E-08 1 181.00732 106.64484)" id="Fill-59" fill="#703807" fill-rule="evenodd" stroke="none" />
    <path d="M0.165046 0.183722C-1.24616 -1.58258 6.83764 9.79419 7.50064 16.8438C8.16364 23.8908 7.27964 28.3143 8.57901 30.6564C9.88104 32.9984 16.1995 36.195 20.9044 31.8417C26.5785 26.5897 30 15.622 30 15.622C30 15.622 24.1422 24.9537 19.2722 28.5514C15.0146 31.6959 11.0766 28.0695 10.5787 25.7873C10.0834 23.5078 10.7411 13.3867 0.165046 0.183722" transform="matrix(1 -5.2027442E-08 5.2027442E-08 1 177.99854 84.64484)" id="Fill-61" fill="#F0A96E" fill-rule="evenodd" stroke="none" />
    <path d="M0 23.8029L20.201 48.9084L11.6268 55.1762C11.6268 55.1762 5.83445 61.2779 48.2743 78.1749C90.7167 95.0745 208 50.5011 208 50.5011L178.804 0C178.804 0 94.3215 40.8686 0 23.8029" transform="matrix(1 -5.2027442E-08 5.2027442E-08 1 270.99023 56.64496)" id="Fill-63" fill="#F2EFED" fill-rule="evenodd" stroke="none" />
    <path d="M0 0L27.3273 22.778L13.5455 27.536L24.6384 39.1443L10.9123 41.6355L14.8382 44L31.9938 41.0253C31.9938 41.0253 16.9432 28.1859 18.65 28.2282C20.3568 28.2704 37 23.0184 37 23.0184L10.7955 0.834824L0 0Z" transform="matrix(1 -5.2027442E-08 5.2027442E-08 1 287.99756 82.644714)" id="Fill-65" fill="#E0DBD7" fill-rule="evenodd" stroke="none" />
    <path d="M0 3.69655L7.79434 11.8018C7.79434 11.8018 16.3863 13.1717 17.816 8.70865C19.2458 4.2456 11.8729 0 11.8729 0L0 3.69655Z" transform="matrix(1 -5.2027442E-08 5.2027442E-08 1 306.0205 107.644714)" id="Fill-67" fill="#1F3038" fill-rule="evenodd" stroke="none" />
    <path d="M50.7834 31.8788C50.7834 31.8788 86.4119 -10.7272 138.674 2.57191C190.938 15.8737 222.463 137.388 234.068 184.169C245.67 230.949 248 288 248 288L198.421 287.515L215.937 278.201C215.937 278.201 213.175 238.39 179.234 183.552C155.501 145.218 117.582 125.028 117.582 125.028C117.582 125.028 65.73 155.231 57.5118 183.521C49.2911 211.813 78.4276 278.526 78.4276 278.526L28.0811 278.773L47.0973 269.499C47.0973 269.499 13.011 231.83 1.77678 188.883C-11.2545 139.066 51.6688 86.6407 51.6688 86.6407L50.7834 31.8788Z" transform="matrix(1 -5.2027442E-08 5.2027442E-08 1 364.99805 39.64392)" id="Fill-69" fill="#1F3038" fill-rule="evenodd" stroke="none" />
    <path d="M0 54.2993L10.5677 51.9359C10.5677 51.9359 40.2472 65.8039 82.4106 60.8542C124.571 55.9046 148.334 36.2423 194.002 41.1316C254.45 47.6027 308.04 164 308.04 164L374 137.89C374 137.89 323.71 18.7046 253.492 3.60643C198.238 -8.27069 135.409 12.6664 109.04 16.5092C74.2341 21.5821 36.2679 14.694 31.7321 16.0816C27.1911 17.4692 16.2034 36.6987 16.2034 36.6987L0 54.2993Z" transform="matrix(1 -5.2027442E-08 5.2027442E-08 1 259.0078 29.64386)" id="Fill-71" fill="#C9A57F" fill-rule="evenodd" stroke="none" />
    <path d="M0 0C0 0 20.0409 2.75599 35.9127 23.4233C51.7871 44.0879 42.0375 76.8737 42.0375 76.8737L26.8922 87L21.3846 68.8472C21.3846 68.8472 33.8112 48.1406 26.8349 29.2004C19.8534 10.2575 0 0 0 0" transform="matrix(1 -5.2027442E-08 5.2027442E-08 1 319.99023 114.64484)" id="Fill-73" fill="#1F3038" fill-rule="evenodd" stroke="none" />
    <path d="M0 34.3375L18.4784 14.3662L26.3027 0.939985C26.3027 0.939985 31.6586 -3.46661 48.6382 6.80221C65.6204 17.0684 93.3302 17.7671 93.3302 17.7671L99.7368 31.5532C99.7368 31.5532 102.244 21.0198 110.574 17.4442C118.907 13.8713 175 18.3096 175 18.3096C175 18.3096 144.874 24.3624 118.438 32.7813C92.0017 41.1975 65.023 41.2742 49.2959 40.8772C33.5714 40.4802 15.4598 30.3729 15.4598 30.3729L0 34.3375Z" transform="matrix(1 -5.2027442E-08 5.2027442E-08 1 254.99023 50.644714)" id="Fill-75" fill="#AF9074" fill-rule="evenodd" stroke="none" />
    <path d="M0 5.64644L22.6907 0C22.6907 0 35.497 13.287 43.2469 33.7422C50.9943 54.1922 53 64 53 64C53 64 22.2286 17.4562 0 5.64644" transform="matrix(1 -5.2027442E-08 5.2027442E-08 1 260.0088 111.64496)" id="Fill-77" fill="#AF9074" fill-rule="evenodd" stroke="none" />
    <path d="M89.4022 10.602C89.4022 10.602 99.0819 -7.40962 128.173 3.52036C145.248 9.93437 147.91 83.3734 119.809 128.345C91.7081 173.313 9.75568 184 9.75568 184L0 154.558C0 154.558 36.8478 149.485 71.353 118.153C105.858 86.8187 96.2938 34.7317 89.4022 10.602" transform="matrix(1 -5.2027442E-08 5.2027442E-08 1 202.01855 34.644043)" id="Fill-79" fill="#C9A57F" fill-rule="evenodd" stroke="none" />
    <path d="M0 7.25798L6.23846 26.4309L15.785 32L22 21.5106L13.5865 0L0 7.25798Z" transform="matrix(1 -5.2027442E-08 5.2027442E-08 1 217.99023 177.64484)" id="Fill-81" fill="#AF9074" fill-rule="evenodd" stroke="none" />
    <path d="M0 4.43073L5.14539 0.0121184C5.14539 0.0121184 16.0728 -0.56307 25.419 6.21196C34.7679 12.987 37.0614 22.1423 36.9988 24.6975C36.9335 27.2554 33.4607 32 33.4607 32C33.4607 32 32.1039 18.89 21.9305 11.5238C11.7598 4.16036 0 4.43073 0 4.43073" transform="matrix(1 -5.2027442E-08 5.2027442E-08 1 113.01953 150.64471)" id="Fill-99" fill="#405964" fill-rule="evenodd" stroke="none" />
  </g>
</svg>