<?xml version="1.0" encoding="utf-8"?>
<svg width="365px" height="217px" viewBox="0 0 365 217" version="1.1" xmlns:xlink="http://www.w3.org/1999/xlink" xmlns="http://www.w3.org/2000/svg">
  <defs>
    <path d="M7.53009 0L57.5928 27.0364L50.0651 49.2808L0 22.2406" id="path_1" />
    <path d="M7.57705 0L96.1671 42.2165L88.5861 62.3322L0 20.1138" id="path_2" />
    <clipPath id="mask_1">
      <use xlink:href="#path_1" />
    </clipPath>
    <clipPath id="mask_2">
      <use xlink:href="#path_2" />
    </clipPath>
  </defs>
  <g id="Group-31">
    <g id="Group-4" transform="translate(293.99902 113)">
      <path d="M57 85L0 56.5459L0 0L57 28.4541L57 85Z" transform="translate(0 7)" id="Fill-1" fill="#FFDC91" fill-rule="evenodd" stroke="none" />
      <path d="M14 56.1723L0 63L0 6.82343L14 0L14 56.1723Z" transform="translate(57 29)" id="Fill-2" fill="#FFBA5A" fill-rule="evenodd" stroke="none" />
      <path d="M13.5724 0L0 6.66421L56.4226 35L70 28.3358L13.5724 0Z" id="Fill-3" fill="#FDC54A" fill-rule="evenodd" stroke="none" />
      <path d="M11.0207 18.5998C10.7375 19.8133 10.2953 20.7384 9.65925 21.3709C10.494 23.0233 11.0008 24.8349 11.2244 26.8659L11.2244 33.9444C11.2244 34.5038 11.2592 35.0159 11.3486 35.4849C11.6368 36.9909 12.4567 38.0839 14.3448 39.0263L14.9907 39.349L14.9907 46.4662L14.3448 46.1392C13.2467 45.5927 12.2579 45.029 11.3486 44.4481C6.65316 41.3843 4.32281 37.6321 3.77128 32.5459L3.77128 25.5019C3.77128 24.9296 3.73153 24.4089 3.64209 23.9399C3.35888 22.4295 2.53406 21.3666 0.650906 20.42L0 20.0972L0 12.9929L0.650906 13.3157C0.958969 13.4749 1.23722 13.5911 1.49559 13.6814C1.78378 13.789 2.03719 13.8492 2.26078 13.8794C2.37009 13.8837 2.48438 13.8837 2.58375 13.8837C2.7825 13.8794 2.94647 13.8234 3.07566 13.7245C3.14522 13.69 3.20484 13.6255 3.2595 13.5609C3.38372 13.4448 3.47316 13.2942 3.54769 13.0962C3.58247 12.9929 3.61725 12.8983 3.64209 12.7778C3.73153 12.3819 3.77128 11.9043 3.77128 11.3449L3.77128 4.93767C4.32281 0.419492 6.64322 -0.983296 11.3486 0.669068C12.2579 0.991795 13.2467 1.4178 14.3448 1.96858L14.9907 2.29131L14.9907 9.39131L14.3448 9.06858C12.4567 8.12622 11.6368 8.36719 11.3486 9.60646C11.2592 9.98083 11.2244 10.4671 11.2244 11.0394L11.2244 17.4466C11.1499 17.9027 11.0952 18.2599 11.0207 18.5998" transform="translate(9.393555 23.855164)" id="Fill-4" fill="#DD0000" fill-rule="evenodd" stroke="none" />
      <path d="M3.97003 27.1908C4.25325 25.9774 4.70044 25.0522 5.33644 24.4197C4.49672 22.7673 3.99487 20.9558 3.77128 18.9247L3.77128 12.5175C3.77128 11.9581 3.7365 11.4504 3.64209 10.977C3.35888 9.47097 2.53406 8.378 0.650906 7.43564L0 7.11291L0 0L0.650906 0.322727C1.749 0.869212 2.73281 1.43721 3.64209 2.01382C8.33756 5.07758 10.6729 8.82982 11.2244 13.916L11.2244 20.2888C11.2244 20.8611 11.2592 21.3775 11.3536 21.8508C11.6368 23.3568 12.4616 24.424 14.3448 25.3664L14.9907 25.6934L14.9907 32.7934L14.3448 32.4707C14.0367 32.3158 13.7535 32.1996 13.4951 32.1092C13.2119 31.9973 12.9535 31.9414 12.7299 31.9113C12.6206 31.9027 12.5063 31.9027 12.4119 31.9027C12.2132 31.9113 12.0492 31.9629 11.92 32.0662C11.8455 32.1006 11.7859 32.1652 11.7312 32.2297C11.612 32.3459 11.5176 32.4965 11.448 32.6944C11.4132 32.7977 11.3735 32.8924 11.3536 33.0128C11.2592 33.4087 11.2244 33.8821 11.2244 34.4458L11.2244 41.5242C10.6729 46.0467 8.35247 47.4452 3.64209 45.7929C2.73281 45.4701 1.749 45.0441 0.650906 44.4976L0 44.1749L0 37.0749L0.650906 37.3976C2.53406 38.34 3.35888 38.0947 3.64209 36.8555C3.7365 36.4811 3.77128 35.9949 3.77128 35.4225L3.77128 28.3441C3.84084 27.8879 3.90047 27.5308 3.97003 27.1908" transform="translate(32.62207 30.265747)" id="Fill-6" fill="#DD0000" fill-rule="evenodd" stroke="none" />
    </g>
    <g id="Group-30">
      <g id="Group-3" transform="translate(30 8.371826)">
        <path d="M82.1235 96.0264L0 54.7991L0 0L82.1235 41.2273L82.1235 96.0264Z" transform="translate(0 6.574585)" id="Fill-8" fill="#FFDC91" fill-rule="evenodd" stroke="none" />
        <path d="M13.6144 54.7991L0 61.4602L0 6.65679L13.6144 0L13.6144 54.7991Z" transform="translate(82.06201 41.141724)" id="Fill-10" fill="#FFBA5A" fill-rule="evenodd" stroke="none" />
        <path d="M82.1235 47.7163L0 6.48897L13.2666 0L95.3901 41.2273L82.1235 47.7163Z" transform="translate(0.111816406 0)" id="Fill-12" fill="#FDC54A" fill-rule="evenodd" stroke="none" />
        <path d="M7.41834 8.89867L16.4515 21.2613L16.4515 23.4816L9.64931 20.0822L0 6.69982L0 3.72212L9.64931 0L16.4515 3.39939L16.4515 5.57242L7.41834 8.89867Z" transform="translate(9.490234 37.48584)" id="Fill-14" fill="#135665" fill-rule="evenodd" stroke="none" />
        <path d="M6.70781 27.2769L0 23.9292L0 22.1305L18.3148 0L24.9729 3.33055L24.9729 5.12491L6.70781 27.2769Z" transform="translate(27.838867 43.757507)" id="Fill-16" fill="#135665" fill-rule="evenodd" stroke="none" />
        <path d="M0 0L6.85191 3.42091L16.5012 16.8033L16.5012 19.781L6.85191 23.5075L0 20.0822L0 17.8619L9.08288 14.5615L0 2.17303L0 0Z" transform="translate(54.708496 55.2677)" id="Fill-18" fill="#135665" fill-rule="evenodd" stroke="none" />
      </g>
      <g id="Group-3-Copy" transform="translate(175.99902 0)">
        <path d="M82.1235 96.0264L0 54.7991L0 0L82.1235 41.2274L82.1235 96.0264Z" transform="translate(0 6.574585)" id="Fill-8" fill="#FFDC91" fill-rule="evenodd" stroke="none" />
        <g id="Group-16" transform="matrix(0.99254614 0.12186935 -0.12186935 0.99254614 15.791016 24.94342)">
          <g id="Group-3">
            <path d="M7.53009 0L57.5928 27.0364L50.0651 49.2808L0 22.2406" id="Clip-2" fill="none" fill-rule="evenodd" stroke="none" />
            <g clip-path="url(#mask_1)">
              <path d="M8.80165 1.17323C6.93908 -0.177606 5.36021 -0.367355 4.05408 0.632012C2.75115 1.63228 1.65288 3.73806 0.813648 6.94446C-0.0328931 10.1527 -0.215633 12.8431 0.249896 15.0537C0.709943 17.2589 1.83334 19.0267 3.642 20.3364C3.98509 20.5863 4.47027 20.8282 5.09295 21.0956C5.71838 21.3638 6.33924 21.4846 6.91076 21.4573C7.48273 21.4302 7.84912 21.1133 8.00994 20.4946C8.07709 20.2473 8.09171 19.8547 8.09491 19.344C8.08988 18.7887 8.03963 18.3134 7.94323 17.8411C7.8811 17.3551 7.7742 17.0917 7.62755 16.9868L7.4206 16.9466L7.18761 16.9262C6.82807 16.9603 6.47081 16.9182 6.10259 16.8347C5.73117 16.7502 5.32366 16.5675 4.90519 16.2627C4.10159 15.681 3.65753 14.8076 3.51774 13.6774C3.38799 12.5189 3.5721 10.9986 4.05819 9.15172C4.54245 7.30045 5.1094 6.05618 5.71564 5.47268C6.31548 4.84127 7.05878 4.82943 7.8843 5.42447C8.26212 5.70321 8.57049 6.03226 8.80988 6.35449C9.04653 6.7065 9.285 7.10551 9.51434 7.56342C9.64683 7.87997 9.75053 8.06555 9.80809 8.10403C9.93327 8.19918 10.1297 8.11738 10.4002 7.91313C10.661 7.66014 10.9287 7.37796 11.1997 7.02371C11.4491 6.65219 11.5989 6.39629 11.656 6.18069C11.7949 5.65627 11.7365 5.06346 11.4655 4.42499C11.2179 3.80445 10.8351 3.19739 10.3339 2.61649C9.85241 2.04446 9.33251 1.55858 8.80165 1.17323" transform="translate(0.31347656 10.526825)" id="Fill-1" fill="#33004D" fill-rule="evenodd" stroke="none" />
            </g>
          </g>
          <g id="Group-6">
            <path d="M7.53009 0L57.5928 27.0364L50.0651 49.2808L0 22.2406" id="Clip-5" fill="none" fill-rule="evenodd" stroke="none" />
            <g clip-path="url(#mask_1)">
              <path d="M5.72977 0.836393L5.31502 0.396709C4.73539 -0.217079 4.37 -0.114863 4.22398 0.67739L0.375335 21.5503C0.00651266 23.5535 -0.0932339 25.2313 0.0887779 26.6048C0.273189 27.979 0.708166 29.0487 1.40125 29.7849C2.3329 30.7751 2.91185 30.6674 3.13122 29.4592C3.16173 29.3006 3.19121 28.9868 3.23405 28.5038C3.27724 28.0171 3.30466 27.552 3.29267 27.1233C3.30055 26.6746 3.2601 26.4016 3.18401 26.3209L3.07809 26.2447L2.99583 26.1976L2.75349 26.0534C2.56359 25.8541 2.44636 25.5794 2.41894 25.2438C2.37644 24.8949 2.41654 24.4426 2.51492 23.9015L6.37555 2.96961C6.45268 2.55522 6.4304 2.19001 6.32551 1.85278C6.22851 1.4829 6.03038 1.15747 5.72977 0.836393" transform="translate(13.90625 5.270584)" id="Fill-4" fill="#33004D" fill-rule="evenodd" stroke="none" />
            </g>
          </g>
          <g id="Group-9">
            <path d="M7.53009 0L57.5928 27.0364L50.0651 49.2808L0 22.2406" id="Clip-8" fill="none" fill-rule="evenodd" stroke="none" />
            <g clip-path="url(#mask_1)">
              <path d="M8.69781 1.32784C7.93248 0.785993 7.23078 0.399497 6.54693 0.20115C5.86079 0.00190833 5.31014 -0.0641676 4.84142 0.0706082C4.39605 0.181768 4.10722 0.442494 3.99371 0.865189C3.93695 1.07469 3.91681 1.48456 3.9255 2.02545C3.93054 2.56539 3.96395 3.08678 4.03719 3.53244C4.10585 4.01053 4.22486 4.30382 4.37133 4.40955C4.40429 4.43317 4.55672 4.43585 4.81899 4.4374C5.27169 4.44068 5.71569 4.50115 6.09423 4.5522C6.48056 4.64988 6.91037 4.84143 7.38229 5.17879C7.96681 5.59051 8.32155 6.05417 8.50831 6.57831C8.68499 7.05867 8.6763 7.65848 8.48771 8.34972L8.18103 9.48475C6.51855 8.31453 5.14948 7.73762 4.08388 7.73792C3.0224 7.73559 2.2081 8.09018 1.66385 8.81111C1.12236 9.53658 0.693463 10.4786 0.377628 11.6488C-0.0297525 13.1801 -0.104363 14.5894 0.13915 15.8653C0.402804 17.1578 1.05965 18.1909 2.13715 18.953C2.72442 19.3655 3.30116 19.5582 3.8303 19.5365C4.36538 19.4902 4.81579 19.3431 5.19708 19.1478C5.5651 18.9078 5.82143 18.6947 5.96424 18.4777L5.93586 18.7435L5.89054 18.9935C5.80266 19.6474 5.76467 20.191 5.7697 20.585C5.78115 21.022 5.92442 21.3029 6.16152 21.4663C6.40137 21.6376 6.71629 21.8253 7.11726 22.0354C7.50725 22.2051 7.88671 22.3275 8.22909 22.3576C8.59024 22.3964 8.78981 22.2882 8.85435 22.047C8.8928 21.8999 8.93903 21.6465 8.98435 21.247C9.09009 20.6089 9.18804 20.0025 9.31163 19.3766C9.43842 18.7516 9.64394 17.8968 9.93277 16.8207L11.6813 10.3151C12.166 8.51622 12.1944 6.85925 11.7458 5.2974C11.3064 3.77527 10.2706 2.43688 8.69781 1.32784M4.77063 16.2905C4.4306 16.0455 4.2086 15.6971 4.08308 15.228C3.97161 14.8099 3.97536 14.3593 4.11305 13.8491C4.58563 12.0733 5.84692 11.8861 7.8885 13.3527L7.34848 15.3879C7.00518 15.9305 6.56866 16.2975 6.0989 16.4538C5.62164 16.6398 5.18513 16.5908 4.77063 16.2905" transform="translate(21.376465 17.624542)" id="Fill-7" fill="#33004D" fill-rule="evenodd" stroke="none" />
            </g>
          </g>
          <g id="Group-12">
            <path d="M7.53009 0L57.5928 27.0364L50.0651 49.2808L0 22.2406" id="Clip-11" fill="none" fill-rule="evenodd" stroke="none" />
            <g clip-path="url(#mask_1)">
              <path d="M7.60985 0.804056C6.92857 0.228689 6.2906 -0.0443533 5.67491 0.0058811C5.07252 0.0641407 4.51429 0.428585 4.04095 1.088C3.55775 1.78393 3.17317 2.70776 2.87905 3.9796C2.61451 5.11809 2.51332 6.1319 2.54934 7.03729C2.58664 7.93893 2.7084 8.72387 2.90305 9.34519C3.11657 9.97992 3.38282 10.6229 3.68981 11.2622L3.93891 11.7377C4.19144 12.2141 4.37495 12.638 4.51258 12.945C4.63263 13.2348 4.72352 13.5789 4.76211 13.9111C4.81184 14.2588 4.78783 14.6154 4.70037 14.9964C4.58118 15.5023 4.41525 15.8201 4.16486 15.9141C3.9239 16.0506 3.6285 15.9488 3.27778 15.6562C3.01153 15.4288 2.77057 15.1498 2.58578 14.8046C2.39499 14.4894 2.19862 14.0972 2.01426 13.6771C1.85134 13.3149 1.74715 13.1092 1.68455 13.0586C1.55807 12.9488 1.38571 13.031 1.15633 13.2183C0.914091 13.4336 0.703147 13.7058 0.481484 14.0895C0.266253 14.4398 0.129911 14.7782 0.0625973 15.0624C-0.0518785 15.5737 -0.0145774 16.135 0.214374 16.7825C0.427891 17.4172 0.731873 18.0558 1.16448 18.6464C1.57479 19.2577 2.02584 19.7552 2.50046 20.1566C3.24434 20.7864 3.95349 21.0812 4.61548 20.9977C5.2899 20.9574 5.87685 20.5422 6.38235 19.8292C6.86255 19.1362 7.26557 18.1508 7.55712 16.8781C7.85724 15.5804 7.96657 14.379 7.86539 13.347C7.74791 12.3022 7.5151 11.3451 7.13266 10.4531C7.07092 10.3236 6.88441 9.89881 6.58557 9.30929C6.31203 8.77497 6.10966 8.3375 5.97204 8.03052C5.84298 7.69456 5.73365 7.33679 5.68992 6.95936C5.62089 6.5981 5.63933 6.19617 5.72936 5.81586C5.92745 4.95795 6.35276 4.82612 7.0036 5.37618C7.25785 5.58821 7.47137 5.8074 7.63172 6.09368C7.81565 6.36721 7.9923 6.6661 8.15479 7.02828L8.39446 7.46128C8.50637 7.55458 8.67829 7.47243 8.87123 7.21445C9.07574 6.97572 9.2884 6.62095 9.47234 6.24548C9.67728 5.8528 9.79604 5.49705 9.85692 5.24269C9.97311 4.73588 9.91823 4.23237 9.70686 3.67746C9.48048 3.10602 9.19065 2.55889 8.79277 2.06978C8.40347 1.54789 8.00473 1.13762 7.60985 0.804056" transform="translate(35.773926 22.761017)" id="Fill-10" fill="#33004D" fill-rule="evenodd" stroke="none" />
            </g>
          </g>
          <g id="Group-15">
            <path d="M7.53009 0L57.5928 27.0364L50.0651 49.2808L0 22.2406" id="Clip-14" fill="none" fill-rule="evenodd" stroke="none" />
            <g clip-path="url(#mask_1)">
              <path d="M7.62735 0.806877C6.94401 0.23149 6.30915 -0.0406134 5.69059 0.00490056C5.07117 0.0542125 4.53111 0.432107 4.05496 1.09062C3.5711 1.78264 3.18589 2.71019 2.89205 3.97803C2.62695 5.12011 2.52572 6.13391 2.56261 7.03543C2.59907 7.94068 2.7209 8.72557 2.91607 9.34678C3.13227 9.98232 3.39651 10.6244 3.70407 11.2638L3.9533 11.7392C4.2051 12.2154 4.38955 12.6394 4.51267 12.9299C4.65036 13.2369 4.72586 13.5646 4.77691 13.9124C4.82967 14.2609 4.80565 14.6175 4.71513 14.9976C4.59889 15.5044 4.43031 15.8211 4.18365 15.9122C3.93829 16.0515 3.64273 15.9498 3.2927 15.6536C3.01002 15.4133 2.7861 15.1515 2.59864 14.8057C2.40776 14.4903 2.21344 14.0992 2.02641 13.6781C1.86426 13.3123 1.7596 13.1104 1.6974 13.0559C1.57 12.9499 1.39798 13.0322 1.16806 13.2157C0.926126 13.431 0.71379 13.7068 0.492447 14.0867C0.277966 14.4369 0.127401 14.7671 0.0609124 15.0515C-0.0561938 15.5581 -0.00386065 16.1357 0.212764 16.7713C0.441829 17.4187 0.746391 18.0572 1.17921 18.6477C1.5863 19.2581 2.03842 19.7556 2.51371 20.1571C3.25881 20.7831 3.96874 21.0779 4.63406 20.9953C5.30538 20.9579 5.89349 20.543 6.38336 19.8173C6.88224 19.138 7.28332 18.1518 7.57502 16.8794C7.87829 15.5788 7.98467 14.3805 7.868 13.3322C7.76633 12.3002 7.53255 11.3469 7.15249 10.4558C7.08772 10.3254 6.90069 9.9006 6.6017 9.31113C6.32931 8.77311 6.12813 8.34033 5.98786 8.03245C5.85831 7.69651 5.75236 7.33975 5.70475 6.96137C5.63912 6.60106 5.65799 6.19921 5.7455 5.81813C5.94539 4.96108 6.37135 4.82944 7.00793 5.36299C7.27474 5.59044 7.49137 5.81053 7.64923 6.09593C7.83454 6.36583 7.99668 6.65655 8.17513 7.03145L8.41535 7.46441C8.52473 7.55679 8.6813 7.4619 8.88935 7.21663C9.09439 6.97429 9.30973 6.62415 9.49032 6.24779C9.69966 5.85237 9.81762 5.50045 9.87639 5.24519C9.99264 4.73854 9.94073 4.23598 9.72926 3.67726C9.50276 3.10585 9.19477 2.54529 8.813 2.07337C8.42178 1.55078 8.02113 1.14042 7.62735 0.806877" transform="translate(46.94043 26.737793)" id="Fill-13" fill="#33004D" fill-rule="evenodd" stroke="none" />
            </g>
          </g>
        </g>
        <path d="M13.6144 54.7991L0 61.4602L0 6.6568L13.6144 0L13.6144 54.7991Z" transform="translate(82.06201 41.141724)" id="Fill-10" fill="#FFBA5A" fill-rule="evenodd" stroke="none" />
        <path d="M82.1235 47.7163L0 6.48898L13.2666 0L95.3901 41.2274L82.1235 47.7163Z" transform="translate(0.111816406 0)" id="Fill-12" fill="#FDC54A" fill-rule="evenodd" stroke="none" />
      </g>
      <g id="Group-3" transform="translate(0 88.371826)">
        <path d="M132.999 121.054L0 54.7991L0 0L132.999 66.2544L132.999 121.054Z" transform="translate(0 6.574585)" id="Fill-8" fill="#FFDC91" fill-rule="evenodd" stroke="none" />
        <g id="Group-25" transform="matrix(0.99254614 0.12186935 -0.12186935 0.99254614 22.33496 29.641785)">
          <g id="Group-3">
            <path d="M7.57705 0L96.1671 42.2165L88.5861 62.3322L0 20.1138" id="Clip-2" fill="none" fill-rule="evenodd" stroke="none" />
            <g clip-path="url(#mask_2)">
              <path d="M7.02474 0.613277C5.67281 -0.88436 4.6388 0.359475 3.9045 4.36138L3.39588 7.14729L3.14249 6.86968C2.99774 6.70974 2.86867 6.71988 2.75565 6.94415C2.63132 7.15196 2.51829 7.60405 2.39506 8.27588L2.28349 8.88468C2.15916 9.56025 2.10265 10.0342 2.12161 10.401C2.1227 10.7894 2.20546 11.0333 2.35057 11.1971L2.60142 11.4739L0.0426582 25.4412C-0.0969835 26.2107 0.10464 26.9003 0.655915 27.5089L1.03984 27.9331C1.60242 28.5579 1.94587 28.4788 2.08806 27.7101L4.64682 13.7428L5.34284 14.5113C5.4854 14.6703 5.61666 14.661 5.73515 14.4068C5.85875 14.1989 5.97907 13.7896 6.10012 13.1168L6.21169 12.5081C6.33492 11.8363 6.38742 11.3168 6.36846 10.9497C6.3619 10.5954 6.27731 10.3468 6.13476 10.1878L5.44165 9.41634L5.96996 6.53427C6.0684 5.98856 6.18033 5.61211 6.31122 5.45074C6.42315 5.30212 6.57993 5.32257 6.75822 5.51937L6.99266 5.89774L7.14907 6.14595C7.23111 6.23763 7.33903 6.12755 7.4794 5.82184C7.60737 5.53541 7.72952 5.17077 7.85858 4.77686C7.97817 4.36741 8.04416 4.09303 8.0726 3.93216C8.29464 2.71456 7.94755 1.63719 7.02474 0.613277" transform="translate(0.5517578 1.5652084)" id="Fill-1" fill="#000000" fill-rule="evenodd" stroke="none" />
            </g>
          </g>
          <g id="Group-6">
            <path d="M7.57705 0L96.1671 42.2165L88.5861 62.3322L0 20.1138" id="Clip-5" fill="none" fill-rule="evenodd" stroke="none" />
            <g clip-path="url(#mask_2)">
              <path d="M11.0913 4.93569L10.5492 4.53945C10.141 4.24083 9.81457 4.10537 9.58234 4.14327C9.35012 4.17778 9.18176 4.36289 9.08887 4.70961L6.29325 15.4726C6.01146 15.8544 5.68947 16.1677 5.31792 16.3448C4.94234 16.5533 4.58373 16.5316 4.22915 16.2692C3.80355 15.9586 3.54319 15.5631 3.44361 15.0776C3.35027 14.5939 3.40252 14.0124 3.58115 13.3172L6.3397 2.69951C6.43259 2.35285 6.39865 2.01876 6.25306 1.70484C6.11283 1.39601 5.8297 1.08808 5.42376 0.790292L4.87982 0.389779C4.49084 0.107053 4.16082 -0.0292393 3.92993 0.0052785C3.68074 0.0314931 3.52846 0.22834 3.43869 0.575949L0.484543 11.9455C0.0026795 13.7965 -0.115665 15.3311 0.111646 16.5624C0.35548 17.8089 0.9673 18.7765 1.9547 19.4959C2.56652 19.9435 3.17699 20.0806 3.82811 19.9723C4.48548 19.8657 5.04952 19.5568 5.54299 19.0591L5.46797 19.5873C5.38222 20.2139 5.34962 20.7393 5.35007 21.1219C5.36793 21.5095 5.50414 21.7811 5.73994 21.9569C5.95921 22.1177 6.23788 22.2872 6.61033 22.4895C6.98903 22.6645 7.32799 22.771 7.64015 22.7979C7.95276 22.8503 8.14836 22.7159 8.20821 22.4865C8.24706 22.342 8.29038 22.0975 8.34575 21.7264C8.42882 21.1677 8.52037 20.5825 8.64586 19.9488C8.76152 19.3449 8.96293 18.4935 9.23445 17.4517L11.9934 6.83411C12.0828 6.4865 12.0658 6.16416 11.9055 5.84276C11.7657 5.534 11.4968 5.23354 11.0913 4.93569" transform="translate(9.599609 12.483681)" id="Fill-4" fill="#000000" fill-rule="evenodd" stroke="none" />
            </g>
          </g>
          <g id="Group-9">
            <path d="M7.57705 0L96.1671 42.2165L88.5861 62.3322L0 20.1138" id="Clip-8" fill="none" fill-rule="evenodd" stroke="none" />
            <g clip-path="url(#mask_2)">
              <path d="M10.0922 3.2227C9.49683 2.78714 8.87729 2.6121 8.23943 2.73112C7.58414 2.83847 7.01914 3.14694 6.51448 3.60502L6.5641 3.09205C6.65037 2.46266 6.66959 1.99557 6.65842 1.64644C6.63473 1.28302 6.51761 1.02778 6.27847 0.851257C6.07509 0.705854 5.77963 0.52121 5.41667 0.361403C5.04432 0.156013 4.70818 0.0504435 4.37517 0.0142854C4.06541 -0.0407223 3.87678 0.06301 3.80749 0.321926C3.77039 0.467032 3.72793 0.711426 3.67205 1.08202C3.52723 2.25075 3.23311 3.61694 2.82008 5.20677L0.0514043 15.8399C-0.130522 16.5333 0.169411 17.1663 0.952096 17.7353L1.4943 18.1346C2.29352 18.7156 2.77494 18.6549 2.95642 17.965L5.75504 7.21046C6.03754 6.83264 6.35267 6.54675 6.73441 6.34361C7.11033 6.1355 7.46613 6.15624 7.82194 6.41854C8.2515 6.72618 8.51076 7.12451 8.6082 7.60879C8.70207 8.09225 8.66989 8.68559 8.49511 9.34853L5.72912 19.9858C5.54719 20.6792 5.84802 21.3088 6.62981 21.8813L7.15547 22.2655C7.95738 22.8505 8.45265 22.801 8.63502 22.1075L11.5986 10.7199C12.0751 8.89833 12.1895 7.36802 11.9441 6.12613C11.6969 4.91235 11.0778 3.94052 10.0922 3.2227" transform="translate(24.409668 18.112953)" id="Fill-7" fill="#000000" fill-rule="evenodd" stroke="none" />
            </g>
          </g>
          <g id="Group-12">
            <path d="M7.57705 0L96.1671 42.2165L88.5861 62.3322L0 20.1138" id="Clip-11" fill="none" fill-rule="evenodd" stroke="none" />
            <g clip-path="url(#mask_2)">
              <path d="M8.6695 1.15463C6.82998 -0.171558 5.26846 -0.361117 3.9845 0.615917C2.67858 1.5799 1.61959 3.65303 0.793332 6.79037C-0.0338367 9.93138 -0.213079 12.5646 0.24966 14.7301C0.71057 16.8913 1.82215 18.6245 3.58806 19.897C3.92963 20.1434 4.42391 20.3927 5.04166 20.6565C5.65575 20.9194 6.25155 21.0264 6.81534 21.0009C7.37959 20.9754 7.74128 20.662 7.90223 20.0611C7.96533 19.8181 7.99597 19.4461 7.98042 18.9335C7.99322 18.4022 7.94293 17.9367 7.84965 17.4748C7.77832 17.0261 7.6608 16.7274 7.53369 16.6368L7.32929 16.597L7.0993 16.5767C6.74676 16.6102 6.39467 16.5684 6.03207 16.4859C5.66535 16.4026 5.26252 16.2228 4.83224 15.9077C4.05445 15.3525 3.5972 14.4841 3.47512 13.3894C3.34526 12.2547 3.52176 10.7655 3.99867 8.95791C4.4765 7.14677 5.03115 5.92853 5.61414 5.34686C6.22229 4.74194 6.93789 4.71929 7.76826 5.31503C8.14549 5.5897 8.44682 5.91149 8.68733 6.22833C8.91687 6.57254 9.13636 6.94791 9.38099 7.41263C9.51496 7.72373 9.6183 7.90567 9.6718 7.94252C9.79754 8.03676 9.99187 7.95708 10.2388 7.74082C10.5159 7.51024 10.7797 7.23454 11.0426 6.88708C11.2886 6.52385 11.44 6.27442 11.4953 6.06342C11.6311 5.55014 11.5703 4.96865 11.3046 4.34379C11.0559 3.73483 10.6773 3.13969 10.1853 2.57077C9.6942 1.99841 9.19214 1.53212 8.6695 1.15463" transform="translate(38.99707 24.154667)" id="Fill-10" fill="#000000" fill-rule="evenodd" stroke="none" />
            </g>
          </g>
          <g id="Group-15">
            <path d="M7.57705 0L96.1671 42.2165L88.5861 62.3322L0 20.1138" id="Clip-14" fill="none" fill-rule="evenodd" stroke="none" />
            <g clip-path="url(#mask_2)">
              <path d="M6.23368 0.805864L5.65147 0.314856C5.05956 -0.18694 4.64595 -0.0959829 4.42479 0.638476L3.42007 3.84771L3.13867 3.60904C2.93288 3.43663 2.77964 3.4544 2.62358 3.6528C2.48247 3.86377 2.33247 4.28809 2.18773 4.93828L2.05188 5.52943C1.90471 6.17882 1.85498 6.65395 1.87035 6.99866C1.89258 7.38412 1.99002 7.6155 2.19541 7.78785L2.47722 8.02658L0.437465 17.0702C-0.00444743 19.0182 -0.116037 20.66 0.122911 22.0018C0.36105 23.3474 0.906871 24.3986 1.76846 25.1275C2.92722 26.1078 3.638 26.0095 3.90242 24.8327C3.93638 24.6772 3.9853 24.3872 4.03746 23.913C4.07142 23.4289 4.09972 22.9705 4.09649 22.5638C4.08719 22.1128 4.03544 21.8493 3.9287 21.7541L3.68571 21.6628L3.40673 21.4984C3.17061 21.301 3.02708 21.032 2.99029 20.7038C2.95026 20.3783 2.98746 19.965 3.1132 19.4093L5.16872 10.3049L6.04567 11.0464C6.24783 11.2178 6.4043 11.2009 6.56724 10.9698C6.70753 10.7589 6.85228 10.3636 6.99985 9.71437L7.13449 9.12677C7.27882 8.47652 7.33745 7.9732 7.31926 7.62757C7.28934 7.26669 7.19351 7.03985 6.98853 6.86749L6.11198 6.12605L6.883 2.72013C6.97438 2.32001 6.9574 1.97077 6.85915 1.66573C6.74554 1.3483 6.54662 1.06979 6.23368 0.805864" transform="translate(51.91211 23.151928)" id="Fill-13" fill="#000000" fill-rule="evenodd" stroke="none" />
            </g>
          </g>
          <g id="Group-18">
            <path d="M7.57705 0L96.1671 42.2165L88.5861 62.3322L0 20.1138" id="Clip-17" fill="none" fill-rule="evenodd" stroke="none" />
            <g clip-path="url(#mask_2)">
              <path d="M3.72831 0.786504L3.13589 0.386394C2.68912 0.08489 2.35206 -0.0406184 2.07429 0.0114101C1.81706 0.0473797 1.65227 0.243998 1.55003 0.61916L0.799818 3.31291C0.697114 3.69151 0.716721 4.01464 0.874046 4.32586C1.02857 4.63608 1.33388 4.94884 1.78392 5.25124L2.37681 5.65135C2.8231 5.95291 3.1793 6.09045 3.43093 6.05697C3.68442 6.02017 3.86789 5.83546 3.97387 5.45769L4.71988 2.76655C4.82678 2.3889 4.78944 2.0503 4.63164 1.73919C4.48412 1.40166 4.17181 1.08724 3.72831 0.786504M3.97228 9.38752L3.65967 8.98043C3.42668 8.67502 3.24481 8.5526 3.09623 8.58971C2.95828 8.63526 2.86529 8.85708 2.8018 9.23321L0.0398052 26.0837C-0.0826987 26.8413 0.0778946 27.5073 0.526732 28.0912L0.83934 28.5019C1.29744 29.0978 1.58191 29.0144 1.70648 28.2611L4.46985 11.4114C4.53093 11.0345 4.51755 10.6721 4.44171 10.345C4.36656 10.0182 4.20494 9.69299 3.97228 9.38752" transform="translate(61.300293 22.193817)" id="Fill-16" fill="#000000" fill-rule="evenodd" stroke="none" />
            </g>
          </g>
          <g id="Group-21">
            <path d="M7.57705 0L96.1671 42.2165L88.5861 62.3322L0 20.1138" id="Clip-20" fill="none" fill-rule="evenodd" stroke="none" />
            <g clip-path="url(#mask_2)">
              <path d="M9.17492 1.01155C7.31909 -0.206856 5.70139 -0.330473 4.26779 0.672707C2.84567 1.64818 1.69659 3.67024 0.822468 6.73913C-0.0449595 9.80621 -0.226192 12.4644 0.276381 14.7398C0.782779 17.0162 1.94142 18.7506 3.79439 19.968C5.63349 21.1747 7.27509 21.2816 8.70917 20.2749C10.1256 19.2601 11.2703 17.237 12.1421 14.1672C13.0095 11.1003 13.1974 8.41338 12.7082 6.17913C12.1985 3.93233 11.0116 2.21752 9.17492 1.01155M5.11206 15.9865C4.45574 15.4889 4.09637 14.6579 4.01007 13.4789C3.93484 12.342 4.1247 10.8161 4.57789 9.00169C5.50241 5.31156 6.59732 3.95172 7.87855 4.9224C8.51762 5.40713 8.87964 6.23905 8.94204 7.40339C9.01816 8.54035 8.8345 10.0369 8.37733 11.8816C7.9144 13.7244 7.4112 14.9785 6.87525 15.6892C6.34638 16.3666 5.75113 16.4713 5.11206 15.9865" transform="translate(68.18506 34.398006)" id="Fill-19" fill="#000000" fill-rule="evenodd" stroke="none" />
            </g>
          </g>
          <g id="Group-24">
            <path d="M7.57705 0L96.1671 42.2165L88.5861 62.3322L0 20.1138" id="Clip-23" fill="none" fill-rule="evenodd" stroke="none" />
            <g clip-path="url(#mask_2)">
              <path d="M10.078 3.22347C9.48354 2.78794 8.86584 2.60943 8.21196 2.71686C7.5737 2.8394 6.98994 3.13555 6.50578 3.60647L6.55536 3.09327C6.64112 2.46364 6.66032 1.99633 6.63352 1.63195C6.62638 1.28352 6.50936 1.02823 6.27085 0.851608C6.06718 0.706116 5.77284 0.521494 5.3932 0.350034C5.03812 0.156282 4.68661 0.035454 4.37039 0.0145848C4.06131 -0.0404342 3.87328 0.0599398 3.80315 0.322347C3.76742 0.464163 3.72455 0.708547 3.66782 1.08289C3.50748 2.23692 3.22967 3.61886 2.81697 5.20943L0.0513638 15.8471C-0.129973 16.5408 0.168831 17.1741 0.950454 17.7432L1.49134 18.1427C2.28993 18.7237 2.77052 18.663 2.9523 17.9694L5.74739 7.21359C6.0118 6.82359 6.3441 6.54945 6.72196 6.34538C7.09714 6.13704 7.45534 6.15862 7.81176 6.41747C8.24009 6.72855 8.49915 7.12732 8.59607 7.61164C8.69031 8.09187 8.64029 8.67704 8.46877 9.34106L5.70004 19.9814C5.51781 20.6751 5.82153 21.3058 6.60181 21.8785L7.14359 22.2745C7.94442 22.8597 8.42232 22.7948 8.60455 22.1011L11.5644 10.7118C12.0401 8.88941 12.1714 7.37017 11.9276 6.12447C11.6801 4.91026 11.062 3.94162 10.078 3.22347" transform="translate(83.65869 39.02131)" id="Fill-22" fill="#000000" fill-rule="evenodd" stroke="none" />
            </g>
          </g>
        </g>
        <path d="M13.6144 54.7991L0 61.4602L0 6.6568L13.6144 0L13.6144 54.7991Z" transform="translate(132.99902 66.628174)" id="Fill-10" fill="#FFBA5A" fill-rule="evenodd" stroke="none" />
        <path d="M132.887 73.6282L0 6.48895L13.2666 0L146.154 67.1392L132.887 73.6282Z" transform="translate(0.111816406 0)" id="Fill-12" fill="#FDC54A" fill-rule="evenodd" stroke="none" />
      </g>
      <g id="Group-2" transform="translate(169.19336 87.80524)">
        <path d="M71 107L0 71.1924L0 0L71 35.816L71 107Z" transform="translate(0 9)" id="Fill-20" fill="#FFDC91" fill-rule="evenodd" stroke="none" />
        <path d="M18 71.3323L0 80L0 8.66765L18 0L18 71.3323Z" transform="translate(71 36)" id="Fill-22" fill="#FFBA5A" fill-rule="evenodd" stroke="none" />
        <path d="M70.9278 44L0 8.38295L17.0722 0L88 35.617L70.9278 44Z" id="Fill-24" fill="#FDC54A" fill-rule="evenodd" stroke="none" />
        <path d="M9.615 47L9.085 46.7474C2.875 43.7245 0.385 39.8933 0.385 33.9822L0.385 5.80797C0.385 -0.103069 2.875 -1.46715 9.085 1.55573L9.615 1.80834L9.615 7.42467L9.085 7.17206C7.075 6.18688 6.545 6.82683 6.545 8.72139L6.545 37.1062C6.545 38.9586 7.075 40.1459 9.085 41.1226L9.615 41.3837L9.615 47Z" transform="translate(7 29)" id="Fill-26" fill="#0071C6" fill-rule="evenodd" stroke="none" />
        <path d="M0.92 39.8414C2.92 40.8187 3.46 40.1447 3.46 38.2828L3.46 9.89084C3.46 7.98681 2.92 6.84945 0.92 5.87216L0.39 5.61941L0.39 0L0.92 0.252747C7.12 3.26886 9.61 7.05165 9.61 12.9744L9.61 41.1557C9.61 47.07 7.12 48.4769 0.92 45.4608L0.39 45.208L0.39 39.5886L0.92 39.8414Z" transform="translate(54 50)" id="Fill-28" fill="#0071C6" fill-rule="evenodd" stroke="none" />
      </g>
    </g>
  </g>
</svg>